%TF.GenerationSoftware,KiCad,Pcbnew,(5.1.9)-1*%
%TF.CreationDate,2021-10-21T19:00:56-05:00*%
%TF.ProjectId,tutorial2,7475746f-7269-4616-9c32-2e6b69636164,rev?*%
%TF.SameCoordinates,Original*%
%TF.FileFunction,Legend,Top*%
%TF.FilePolarity,Positive*%
%FSLAX46Y46*%
G04 Gerber Fmt 4.6, Leading zero omitted, Abs format (unit mm)*
G04 Created by KiCad (PCBNEW (5.1.9)-1) date 2021-10-21 19:00:56*
%MOMM*%
%LPD*%
G01*
G04 APERTURE LIST*
%ADD10C,0.120000*%
%ADD11C,0.150000*%
G04 APERTURE END LIST*
D10*
%TO.C,U3*%
X147320000Y-87376000D02*
X147320000Y-79756000D01*
X147320000Y-79756000D02*
X132080000Y-79756000D01*
X132080000Y-79756000D02*
X132080000Y-89916000D01*
X132080000Y-89916000D02*
X147320000Y-89916000D01*
X147320000Y-89916000D02*
X147320000Y-87376000D01*
X149860000Y-83566000D02*
X144780000Y-83566000D01*
X144780000Y-83566000D02*
X144780000Y-86106000D01*
X144780000Y-86106000D02*
X149860000Y-83566000D01*
X149860000Y-83566000D02*
X149860000Y-86106000D01*
X149860000Y-86106000D02*
X144780000Y-86106000D01*
%TO.C,U2*%
X112014000Y-107950000D02*
X119634000Y-107950000D01*
X119634000Y-107950000D02*
X119634000Y-92710000D01*
X119634000Y-92710000D02*
X109474000Y-92710000D01*
X109474000Y-92710000D02*
X109474000Y-107950000D01*
X109474000Y-107950000D02*
X112014000Y-107950000D01*
X115824000Y-110490000D02*
X115824000Y-105410000D01*
X115824000Y-105410000D02*
X113284000Y-105410000D01*
X113284000Y-105410000D02*
X115824000Y-110490000D01*
X115824000Y-110490000D02*
X113284000Y-110490000D01*
X113284000Y-110490000D02*
X113284000Y-105410000D01*
%TO.C,U1*%
X117602000Y-59182000D02*
X109982000Y-59182000D01*
X109982000Y-59182000D02*
X109982000Y-74422000D01*
X109982000Y-74422000D02*
X120142000Y-74422000D01*
X120142000Y-74422000D02*
X120142000Y-59182000D01*
X120142000Y-59182000D02*
X117602000Y-59182000D01*
X113792000Y-56642000D02*
X113792000Y-61722000D01*
X113792000Y-61722000D02*
X116332000Y-61722000D01*
X116332000Y-61722000D02*
X113792000Y-56642000D01*
X113792000Y-56642000D02*
X116332000Y-56642000D01*
X116332000Y-56642000D02*
X116332000Y-61722000D01*
%TO.C,R2*%
X123090000Y-83534000D02*
X125830000Y-83534000D01*
X125830000Y-83534000D02*
X125830000Y-76994000D01*
X125830000Y-76994000D02*
X123090000Y-76994000D01*
X123090000Y-76994000D02*
X123090000Y-83534000D01*
X124460000Y-84304000D02*
X124460000Y-83534000D01*
X124460000Y-76224000D02*
X124460000Y-76994000D01*
%TO.C,R1*%
X111030000Y-83974000D02*
X111030000Y-86714000D01*
X111030000Y-86714000D02*
X117570000Y-86714000D01*
X117570000Y-86714000D02*
X117570000Y-83974000D01*
X117570000Y-83974000D02*
X111030000Y-83974000D01*
X110260000Y-85344000D02*
X111030000Y-85344000D01*
X118340000Y-85344000D02*
X117570000Y-85344000D01*
%TO.C,U3*%
D11*
X136112380Y-84327904D02*
X136921904Y-84327904D01*
X137017142Y-84280285D01*
X137064761Y-84232666D01*
X137112380Y-84137428D01*
X137112380Y-83946952D01*
X137064761Y-83851714D01*
X137017142Y-83804095D01*
X136921904Y-83756476D01*
X136112380Y-83756476D01*
X136112380Y-83375523D02*
X136112380Y-82756476D01*
X136493333Y-83089809D01*
X136493333Y-82946952D01*
X136540952Y-82851714D01*
X136588571Y-82804095D01*
X136683809Y-82756476D01*
X136921904Y-82756476D01*
X137017142Y-82804095D01*
X137064761Y-82851714D01*
X137112380Y-82946952D01*
X137112380Y-83232666D01*
X137064761Y-83327904D01*
X137017142Y-83375523D01*
%TO.C,U2*%
X115062095Y-96742380D02*
X115062095Y-97551904D01*
X115109714Y-97647142D01*
X115157333Y-97694761D01*
X115252571Y-97742380D01*
X115443047Y-97742380D01*
X115538285Y-97694761D01*
X115585904Y-97647142D01*
X115633523Y-97551904D01*
X115633523Y-96742380D01*
X116062095Y-96837619D02*
X116109714Y-96790000D01*
X116204952Y-96742380D01*
X116443047Y-96742380D01*
X116538285Y-96790000D01*
X116585904Y-96837619D01*
X116633523Y-96932857D01*
X116633523Y-97028095D01*
X116585904Y-97170952D01*
X116014476Y-97742380D01*
X116633523Y-97742380D01*
%TO.C,U1*%
X113030095Y-69294380D02*
X113030095Y-70103904D01*
X113077714Y-70199142D01*
X113125333Y-70246761D01*
X113220571Y-70294380D01*
X113411047Y-70294380D01*
X113506285Y-70246761D01*
X113553904Y-70199142D01*
X113601523Y-70103904D01*
X113601523Y-69294380D01*
X114601523Y-70294380D02*
X114030095Y-70294380D01*
X114315809Y-70294380D02*
X114315809Y-69294380D01*
X114220571Y-69437238D01*
X114125333Y-69532476D01*
X114030095Y-69580095D01*
%TO.C,R2*%
X122542380Y-80430666D02*
X122066190Y-80764000D01*
X122542380Y-81002095D02*
X121542380Y-81002095D01*
X121542380Y-80621142D01*
X121590000Y-80525904D01*
X121637619Y-80478285D01*
X121732857Y-80430666D01*
X121875714Y-80430666D01*
X121970952Y-80478285D01*
X122018571Y-80525904D01*
X122066190Y-80621142D01*
X122066190Y-81002095D01*
X121637619Y-80049714D02*
X121590000Y-80002095D01*
X121542380Y-79906857D01*
X121542380Y-79668761D01*
X121590000Y-79573523D01*
X121637619Y-79525904D01*
X121732857Y-79478285D01*
X121828095Y-79478285D01*
X121970952Y-79525904D01*
X122542380Y-80097333D01*
X122542380Y-79478285D01*
%TO.C,R1*%
X114133333Y-83426380D02*
X113800000Y-82950190D01*
X113561904Y-83426380D02*
X113561904Y-82426380D01*
X113942857Y-82426380D01*
X114038095Y-82474000D01*
X114085714Y-82521619D01*
X114133333Y-82616857D01*
X114133333Y-82759714D01*
X114085714Y-82854952D01*
X114038095Y-82902571D01*
X113942857Y-82950190D01*
X113561904Y-82950190D01*
X115085714Y-83426380D02*
X114514285Y-83426380D01*
X114800000Y-83426380D02*
X114800000Y-82426380D01*
X114704761Y-82569238D01*
X114609523Y-82664476D01*
X114514285Y-82712095D01*
%TD*%
M02*
