M48
; DRILL file {KiCad (5.1.9)-1} date 10/21/21 19:01:13
; FORMAT={-:-/ absolute / inch / decimal}
; #@! TF.CreationDate,2021-10-21T19:01:13-05:00
; #@! TF.GenerationSoftware,Kicad,Pcbnew,(5.1.9)-1
; #@! TF.FileFunction,Plated,1,2,PTH
FMAT,2
INCH
T1C0.0157
T2C0.0300
T3C0.0315
%
G90
G05
T1
X4.7628Y-2.5872
X4.8Y-2.59
X5.55Y-3.61
T2
X4.36Y-3.85
X4.36Y-3.95
X4.36Y-4.05
X4.36Y-4.15
X4.38Y-2.43
X4.38Y-2.53
X4.38Y-2.63
X4.38Y-2.73
X4.66Y-3.85
X4.66Y-3.95
X4.66Y-4.05
X4.66Y-4.15
X4.68Y-2.43
X4.68Y-2.53
X4.68Y-2.63
X4.68Y-2.73
X5.4Y-3.19
X5.4Y-3.49
X5.5Y-3.19
X5.5Y-3.49
X5.6Y-3.19
X5.6Y-3.49
X5.7Y-3.19
X5.7Y-3.49
T3
X4.3Y-3.36
X4.7Y-3.36
X4.9Y-2.96
X4.9Y-3.36
T0
M30
