%TF.GenerationSoftware,KiCad,Pcbnew,(5.1.9)-1*%
%TF.CreationDate,2021-10-21T19:00:56-05:00*%
%TF.ProjectId,tutorial2,7475746f-7269-4616-9c32-2e6b69636164,rev?*%
%TF.SameCoordinates,Original*%
%TF.FileFunction,Copper,L1,Top*%
%TF.FilePolarity,Positive*%
%FSLAX46Y46*%
G04 Gerber Fmt 4.6, Leading zero omitted, Abs format (unit mm)*
G04 Created by KiCad (PCBNEW (5.1.9)-1) date 2021-10-21 19:00:56*
%MOMM*%
%LPD*%
G01*
G04 APERTURE LIST*
%TA.AperFunction,ComponentPad*%
%ADD10C,1.524000*%
%TD*%
%TA.AperFunction,ComponentPad*%
%ADD11O,1.600000X1.600000*%
%TD*%
%TA.AperFunction,ComponentPad*%
%ADD12C,1.600000*%
%TD*%
%TA.AperFunction,ViaPad*%
%ADD13C,0.800000*%
%TD*%
%TA.AperFunction,Conductor*%
%ADD14C,0.250000*%
%TD*%
G04 APERTURE END LIST*
D10*
%TO.P,U3,8*%
%TO.N,Net-(U2-Pad7)*%
X144780000Y-88646000D03*
%TO.P,U3,7*%
%TO.N,4*%
X142240000Y-88646000D03*
%TO.P,U3,6*%
%TO.N,1*%
X139700000Y-88646000D03*
%TO.P,U3,5*%
%TO.N,Net-(U2-Pad7)*%
X137160000Y-88646000D03*
%TO.P,U3,4*%
%TO.N,Net-(R1-Pad1)*%
X137160000Y-81026000D03*
%TO.P,U3,3*%
%TO.N,Net-(U1-Pad7)*%
X139700000Y-81026000D03*
%TO.P,U3,2*%
%TO.N,Net-(U1-Pad1)*%
X142240000Y-81026000D03*
%TO.P,U3,1*%
%TO.N,Net-(U1-Pad2)*%
X144780000Y-81026000D03*
%TD*%
%TO.P,U2,8*%
%TO.N,Net-(U2-Pad3)*%
X110744000Y-105410000D03*
%TO.P,U2,7*%
%TO.N,Net-(U2-Pad7)*%
X110744000Y-102870000D03*
%TO.P,U2,6*%
%TO.N,Net-(R1-Pad1)*%
X110744000Y-100330000D03*
%TO.P,U2,5*%
X110744000Y-97790000D03*
%TO.P,U2,4*%
%TO.N,GND*%
X118364000Y-97790000D03*
%TO.P,U2,3*%
%TO.N,Net-(U2-Pad3)*%
X118364000Y-100330000D03*
%TO.P,U2,2*%
%TO.N,4*%
X118364000Y-102870000D03*
%TO.P,U2,1*%
%TO.N,1*%
X118364000Y-105410000D03*
%TD*%
%TO.P,U1,8*%
%TO.N,Net-(U1-Pad1)*%
X118872000Y-61722000D03*
%TO.P,U1,7*%
%TO.N,Net-(U1-Pad7)*%
X118872000Y-64262000D03*
%TO.P,U1,6*%
%TO.N,Net-(U1-Pad2)*%
X118872000Y-66802000D03*
%TO.P,U1,5*%
%TO.N,Net-(R1-Pad1)*%
X118872000Y-69342000D03*
%TO.P,U1,4*%
X111252000Y-69342000D03*
%TO.P,U1,3*%
X111252000Y-66802000D03*
%TO.P,U1,2*%
%TO.N,Net-(U1-Pad2)*%
X111252000Y-64262000D03*
%TO.P,U1,1*%
%TO.N,Net-(U1-Pad1)*%
X111252000Y-61722000D03*
%TD*%
D11*
%TO.P,R2,2*%
%TO.N,GND*%
X124460000Y-75184000D03*
D12*
%TO.P,R2,1*%
%TO.N,Net-(R1-Pad1)*%
X124460000Y-85344000D03*
%TD*%
D11*
%TO.P,R1,2*%
%TO.N,GND*%
X119380000Y-85344000D03*
D12*
%TO.P,R1,1*%
%TO.N,Net-(R1-Pad1)*%
X109220000Y-85344000D03*
%TD*%
D13*
%TO.N,Net-(R1-Pad1)*%
X121920000Y-65786000D03*
X120975001Y-65714999D03*
%TO.N,4*%
X140970000Y-91694000D03*
%TD*%
D14*
%TO.N,GND*%
X120505001Y-86469001D02*
X119380000Y-85344000D01*
X125000001Y-86469001D02*
X120505001Y-86469001D01*
X125585001Y-85884001D02*
X125000001Y-86469001D01*
X125585001Y-76309001D02*
X125585001Y-85884001D01*
X124460000Y-75184000D02*
X125585001Y-76309001D01*
%TO.N,Net-(R1-Pad1)*%
X117784999Y-78668999D02*
X124460000Y-85344000D01*
X117784999Y-66280239D02*
X117784999Y-78668999D01*
X118350239Y-65714999D02*
X117784999Y-66280239D01*
X121848999Y-65714999D02*
X118350239Y-65714999D01*
X137160000Y-81026000D02*
X121920000Y-65786000D01*
X121920000Y-65786000D02*
X121848999Y-65714999D01*
%TO.N,Net-(U1-Pad1)*%
X111252000Y-61722000D02*
X118872000Y-61722000D01*
X122936000Y-61722000D02*
X142240000Y-81026000D01*
X118872000Y-61722000D02*
X122936000Y-61722000D01*
%TO.N,Net-(U1-Pad7)*%
X122936000Y-64262000D02*
X118872000Y-64262000D01*
X139700000Y-81026000D02*
X122936000Y-64262000D01*
%TO.N,Net-(U1-Pad2)*%
X143692999Y-82113001D02*
X134183001Y-82113001D01*
X144780000Y-81026000D02*
X143692999Y-82113001D01*
X134183001Y-82113001D02*
X118872000Y-66802000D01*
%TO.N,Net-(U2-Pad7)*%
X137160000Y-88646000D02*
X138430000Y-87376000D01*
X140208000Y-87122000D02*
X139954000Y-87376000D01*
X142748000Y-87122000D02*
X140208000Y-87122000D01*
X138430000Y-87376000D02*
X139954000Y-87376000D01*
X141152999Y-88503998D02*
X141152999Y-89336999D01*
X140208000Y-87558999D02*
X141152999Y-88503998D01*
X140208000Y-87122000D02*
X140208000Y-87558999D01*
X142761761Y-89733001D02*
X143327001Y-89167761D01*
X143327001Y-89167761D02*
X143327001Y-87955001D01*
X141549001Y-89733001D02*
X142761761Y-89733001D01*
X141152999Y-89336999D02*
X141549001Y-89733001D01*
X143327001Y-87955001D02*
X143256000Y-87884000D01*
X143256000Y-87884000D02*
X143256000Y-87122000D01*
X143256000Y-87122000D02*
X144780000Y-88646000D01*
%TO.N,4*%
X118364000Y-102870000D02*
X129794000Y-102870000D01*
X129794000Y-102870000D02*
X140970000Y-91694000D01*
X140970000Y-91694000D02*
X140970000Y-91694000D01*
%TD*%
M02*
