%TF.GenerationSoftware,KiCad,Pcbnew,(5.1.9)-1*%
%TF.CreationDate,2021-10-21T19:00:56-05:00*%
%TF.ProjectId,tutorial2,7475746f-7269-4616-9c32-2e6b69636164,rev?*%
%TF.SameCoordinates,Original*%
%TF.FileFunction,Copper,L2,Bot*%
%TF.FilePolarity,Positive*%
%FSLAX46Y46*%
G04 Gerber Fmt 4.6, Leading zero omitted, Abs format (unit mm)*
G04 Created by KiCad (PCBNEW (5.1.9)-1) date 2021-10-21 19:00:56*
%MOMM*%
%LPD*%
G01*
G04 APERTURE LIST*
%TA.AperFunction,ComponentPad*%
%ADD10C,1.524000*%
%TD*%
%TA.AperFunction,ComponentPad*%
%ADD11O,1.600000X1.600000*%
%TD*%
%TA.AperFunction,ComponentPad*%
%ADD12C,1.600000*%
%TD*%
%TA.AperFunction,ViaPad*%
%ADD13C,0.800000*%
%TD*%
%TA.AperFunction,Conductor*%
%ADD14C,0.250000*%
%TD*%
%TA.AperFunction,Conductor*%
%ADD15C,0.254000*%
%TD*%
%TA.AperFunction,Conductor*%
%ADD16C,0.100000*%
%TD*%
G04 APERTURE END LIST*
D10*
%TO.P,U3,8*%
%TO.N,Net-(U2-Pad7)*%
X144780000Y-88646000D03*
%TO.P,U3,7*%
%TO.N,4*%
X142240000Y-88646000D03*
%TO.P,U3,6*%
%TO.N,1*%
X139700000Y-88646000D03*
%TO.P,U3,5*%
%TO.N,Net-(U2-Pad7)*%
X137160000Y-88646000D03*
%TO.P,U3,4*%
%TO.N,Net-(R1-Pad1)*%
X137160000Y-81026000D03*
%TO.P,U3,3*%
%TO.N,Net-(U1-Pad7)*%
X139700000Y-81026000D03*
%TO.P,U3,2*%
%TO.N,Net-(U1-Pad1)*%
X142240000Y-81026000D03*
%TO.P,U3,1*%
%TO.N,Net-(U1-Pad2)*%
X144780000Y-81026000D03*
%TD*%
%TO.P,U2,8*%
%TO.N,Net-(U2-Pad3)*%
X110744000Y-105410000D03*
%TO.P,U2,7*%
%TO.N,Net-(U2-Pad7)*%
X110744000Y-102870000D03*
%TO.P,U2,6*%
%TO.N,Net-(R1-Pad1)*%
X110744000Y-100330000D03*
%TO.P,U2,5*%
X110744000Y-97790000D03*
%TO.P,U2,4*%
%TO.N,GND*%
X118364000Y-97790000D03*
%TO.P,U2,3*%
%TO.N,Net-(U2-Pad3)*%
X118364000Y-100330000D03*
%TO.P,U2,2*%
%TO.N,4*%
X118364000Y-102870000D03*
%TO.P,U2,1*%
%TO.N,1*%
X118364000Y-105410000D03*
%TD*%
%TO.P,U1,8*%
%TO.N,Net-(U1-Pad1)*%
X118872000Y-61722000D03*
%TO.P,U1,7*%
%TO.N,Net-(U1-Pad7)*%
X118872000Y-64262000D03*
%TO.P,U1,6*%
%TO.N,Net-(U1-Pad2)*%
X118872000Y-66802000D03*
%TO.P,U1,5*%
%TO.N,Net-(R1-Pad1)*%
X118872000Y-69342000D03*
%TO.P,U1,4*%
X111252000Y-69342000D03*
%TO.P,U1,3*%
X111252000Y-66802000D03*
%TO.P,U1,2*%
%TO.N,Net-(U1-Pad2)*%
X111252000Y-64262000D03*
%TO.P,U1,1*%
%TO.N,Net-(U1-Pad1)*%
X111252000Y-61722000D03*
%TD*%
D11*
%TO.P,R2,2*%
%TO.N,GND*%
X124460000Y-75184000D03*
D12*
%TO.P,R2,1*%
%TO.N,Net-(R1-Pad1)*%
X124460000Y-85344000D03*
%TD*%
D11*
%TO.P,R1,2*%
%TO.N,GND*%
X119380000Y-85344000D03*
D12*
%TO.P,R1,1*%
%TO.N,Net-(R1-Pad1)*%
X109220000Y-85344000D03*
%TD*%
D13*
%TO.N,Net-(R1-Pad1)*%
X121920000Y-65786000D03*
X120975001Y-65714999D03*
%TO.N,4*%
X140970000Y-91694000D03*
%TD*%
D14*
%TO.N,GND*%
X118364000Y-86360000D02*
X119380000Y-85344000D01*
X118364000Y-97790000D02*
X118364000Y-86360000D01*
%TO.N,Net-(R1-Pad1)*%
X109220000Y-96266000D02*
X110744000Y-97790000D01*
X109220000Y-85344000D02*
X109220000Y-96266000D01*
X110744000Y-100330000D02*
X110744000Y-97790000D01*
X109220000Y-85344000D02*
X110744000Y-85344000D01*
X118110001Y-70103999D02*
X118872000Y-69342000D01*
X118110000Y-77978000D02*
X118110001Y-70103999D01*
X110744000Y-85344000D02*
X118110000Y-77978000D01*
X111252000Y-66802000D02*
X111252000Y-69342000D01*
X111252000Y-66802000D02*
X117094000Y-66802000D01*
X117094000Y-66802000D02*
X118110000Y-65786000D01*
X118279238Y-65786000D02*
X118350239Y-65714999D01*
X118110000Y-65786000D02*
X118279238Y-65786000D01*
X118350239Y-65714999D02*
X120975001Y-65714999D01*
X120975001Y-65714999D02*
X121848999Y-65714999D01*
%TO.N,Net-(U1-Pad2)*%
X115244999Y-70429001D02*
X118872000Y-66802000D01*
X110730239Y-70429001D02*
X115244999Y-70429001D01*
X110164999Y-69863761D02*
X110730239Y-70429001D01*
X110164999Y-65349001D02*
X110164999Y-69863761D01*
X111252000Y-64262000D02*
X110164999Y-65349001D01*
%TO.N,Net-(U2-Pad3)*%
X115824000Y-100330000D02*
X110744000Y-105410000D01*
X118364000Y-100330000D02*
X115824000Y-100330000D01*
%TO.N,Net-(U2-Pad7)*%
X114736999Y-98877001D02*
X110744000Y-102870000D01*
X126928999Y-98877001D02*
X114736999Y-98877001D01*
X137160000Y-88646000D02*
X126928999Y-98877001D01*
%TO.N,4*%
X140970000Y-89916000D02*
X142240000Y-88646000D01*
X140970000Y-91694000D02*
X140970000Y-89916000D01*
%TO.N,1*%
X122936000Y-105410000D02*
X118364000Y-105410000D01*
X139700000Y-88646000D02*
X122936000Y-105410000D01*
%TD*%
D15*
%TO.N,GND*%
X187504152Y-95731656D02*
X145261076Y-121279864D01*
X93840604Y-113934082D01*
X90429569Y-85202665D01*
X107785000Y-85202665D01*
X107785000Y-85485335D01*
X107840147Y-85762574D01*
X107948320Y-86023727D01*
X108105363Y-86258759D01*
X108305241Y-86458637D01*
X108460000Y-86562043D01*
X108460001Y-96228668D01*
X108456324Y-96266000D01*
X108460001Y-96303333D01*
X108470998Y-96414986D01*
X108475273Y-96429078D01*
X108514454Y-96558246D01*
X108585026Y-96690276D01*
X108656201Y-96777002D01*
X108680000Y-96806001D01*
X108708998Y-96829799D01*
X109377628Y-97498430D01*
X109347000Y-97652408D01*
X109347000Y-97927592D01*
X109400686Y-98197490D01*
X109505995Y-98451727D01*
X109658880Y-98680535D01*
X109853465Y-98875120D01*
X109984001Y-98962341D01*
X109984000Y-99157659D01*
X109853465Y-99244880D01*
X109658880Y-99439465D01*
X109505995Y-99668273D01*
X109400686Y-99922510D01*
X109347000Y-100192408D01*
X109347000Y-100467592D01*
X109400686Y-100737490D01*
X109505995Y-100991727D01*
X109658880Y-101220535D01*
X109853465Y-101415120D01*
X110082273Y-101568005D01*
X110159515Y-101600000D01*
X110082273Y-101631995D01*
X109853465Y-101784880D01*
X109658880Y-101979465D01*
X109505995Y-102208273D01*
X109400686Y-102462510D01*
X109347000Y-102732408D01*
X109347000Y-103007592D01*
X109400686Y-103277490D01*
X109505995Y-103531727D01*
X109658880Y-103760535D01*
X109853465Y-103955120D01*
X110082273Y-104108005D01*
X110159515Y-104140000D01*
X110082273Y-104171995D01*
X109853465Y-104324880D01*
X109658880Y-104519465D01*
X109505995Y-104748273D01*
X109400686Y-105002510D01*
X109347000Y-105272408D01*
X109347000Y-105547592D01*
X109400686Y-105817490D01*
X109505995Y-106071727D01*
X109658880Y-106300535D01*
X109853465Y-106495120D01*
X110082273Y-106648005D01*
X110336510Y-106753314D01*
X110606408Y-106807000D01*
X110881592Y-106807000D01*
X111151490Y-106753314D01*
X111405727Y-106648005D01*
X111634535Y-106495120D01*
X111829120Y-106300535D01*
X111982005Y-106071727D01*
X112087314Y-105817490D01*
X112141000Y-105547592D01*
X112141000Y-105272408D01*
X112110372Y-105118429D01*
X116138802Y-101090000D01*
X117191659Y-101090000D01*
X117278880Y-101220535D01*
X117473465Y-101415120D01*
X117702273Y-101568005D01*
X117779515Y-101600000D01*
X117702273Y-101631995D01*
X117473465Y-101784880D01*
X117278880Y-101979465D01*
X117125995Y-102208273D01*
X117020686Y-102462510D01*
X116967000Y-102732408D01*
X116967000Y-103007592D01*
X117020686Y-103277490D01*
X117125995Y-103531727D01*
X117278880Y-103760535D01*
X117473465Y-103955120D01*
X117702273Y-104108005D01*
X117779515Y-104140000D01*
X117702273Y-104171995D01*
X117473465Y-104324880D01*
X117278880Y-104519465D01*
X117125995Y-104748273D01*
X117020686Y-105002510D01*
X116967000Y-105272408D01*
X116967000Y-105547592D01*
X117020686Y-105817490D01*
X117125995Y-106071727D01*
X117278880Y-106300535D01*
X117473465Y-106495120D01*
X117702273Y-106648005D01*
X117956510Y-106753314D01*
X118226408Y-106807000D01*
X118501592Y-106807000D01*
X118771490Y-106753314D01*
X119025727Y-106648005D01*
X119254535Y-106495120D01*
X119449120Y-106300535D01*
X119536341Y-106170000D01*
X122898678Y-106170000D01*
X122936000Y-106173676D01*
X122973322Y-106170000D01*
X122973333Y-106170000D01*
X123084986Y-106159003D01*
X123228247Y-106115546D01*
X123360276Y-106044974D01*
X123476001Y-105950001D01*
X123499804Y-105920997D01*
X139408430Y-90012372D01*
X139562408Y-90043000D01*
X139837592Y-90043000D01*
X140107490Y-89989314D01*
X140209388Y-89947106D01*
X140210001Y-89953332D01*
X140210000Y-90990289D01*
X140166063Y-91034226D01*
X140052795Y-91203744D01*
X139974774Y-91392102D01*
X139935000Y-91592061D01*
X139935000Y-91795939D01*
X139974774Y-91995898D01*
X140052795Y-92184256D01*
X140166063Y-92353774D01*
X140310226Y-92497937D01*
X140479744Y-92611205D01*
X140668102Y-92689226D01*
X140868061Y-92729000D01*
X141071939Y-92729000D01*
X141271898Y-92689226D01*
X141460256Y-92611205D01*
X141629774Y-92497937D01*
X141773937Y-92353774D01*
X141887205Y-92184256D01*
X141965226Y-91995898D01*
X142005000Y-91795939D01*
X142005000Y-91592061D01*
X141965226Y-91392102D01*
X141887205Y-91203744D01*
X141773937Y-91034226D01*
X141730000Y-90990289D01*
X141730000Y-90230801D01*
X141948430Y-90012372D01*
X142102408Y-90043000D01*
X142377592Y-90043000D01*
X142647490Y-89989314D01*
X142901727Y-89884005D01*
X143130535Y-89731120D01*
X143325120Y-89536535D01*
X143478005Y-89307727D01*
X143510000Y-89230485D01*
X143541995Y-89307727D01*
X143694880Y-89536535D01*
X143889465Y-89731120D01*
X144118273Y-89884005D01*
X144372510Y-89989314D01*
X144642408Y-90043000D01*
X144917592Y-90043000D01*
X145187490Y-89989314D01*
X145441727Y-89884005D01*
X145670535Y-89731120D01*
X145865120Y-89536535D01*
X146018005Y-89307727D01*
X146123314Y-89053490D01*
X146177000Y-88783592D01*
X146177000Y-88508408D01*
X146123314Y-88238510D01*
X146018005Y-87984273D01*
X145865120Y-87755465D01*
X145670535Y-87560880D01*
X145441727Y-87407995D01*
X145187490Y-87302686D01*
X144917592Y-87249000D01*
X144642408Y-87249000D01*
X144372510Y-87302686D01*
X144118273Y-87407995D01*
X143889465Y-87560880D01*
X143694880Y-87755465D01*
X143541995Y-87984273D01*
X143510000Y-88061515D01*
X143478005Y-87984273D01*
X143325120Y-87755465D01*
X143130535Y-87560880D01*
X142901727Y-87407995D01*
X142647490Y-87302686D01*
X142377592Y-87249000D01*
X142102408Y-87249000D01*
X141832510Y-87302686D01*
X141578273Y-87407995D01*
X141349465Y-87560880D01*
X141154880Y-87755465D01*
X141001995Y-87984273D01*
X140970000Y-88061515D01*
X140938005Y-87984273D01*
X140785120Y-87755465D01*
X140590535Y-87560880D01*
X140361727Y-87407995D01*
X140107490Y-87302686D01*
X139837592Y-87249000D01*
X139562408Y-87249000D01*
X139292510Y-87302686D01*
X139038273Y-87407995D01*
X138809465Y-87560880D01*
X138614880Y-87755465D01*
X138461995Y-87984273D01*
X138430000Y-88061515D01*
X138398005Y-87984273D01*
X138245120Y-87755465D01*
X138050535Y-87560880D01*
X137821727Y-87407995D01*
X137567490Y-87302686D01*
X137297592Y-87249000D01*
X137022408Y-87249000D01*
X136752510Y-87302686D01*
X136498273Y-87407995D01*
X136269465Y-87560880D01*
X136074880Y-87755465D01*
X135921995Y-87984273D01*
X135816686Y-88238510D01*
X135763000Y-88508408D01*
X135763000Y-88783592D01*
X135793628Y-88937570D01*
X126614198Y-98117001D01*
X119722224Y-98117001D01*
X119753023Y-97992865D01*
X119765910Y-97717983D01*
X119724922Y-97445867D01*
X119631636Y-97186977D01*
X119569656Y-97071020D01*
X119329565Y-97004040D01*
X118543605Y-97790000D01*
X118557748Y-97804143D01*
X118378143Y-97983748D01*
X118364000Y-97969605D01*
X118349858Y-97983748D01*
X118170253Y-97804143D01*
X118184395Y-97790000D01*
X117398435Y-97004040D01*
X117158344Y-97071020D01*
X117041244Y-97320048D01*
X116974977Y-97587135D01*
X116962090Y-97862017D01*
X117000497Y-98117001D01*
X114774321Y-98117001D01*
X114736998Y-98113325D01*
X114699675Y-98117001D01*
X114699666Y-98117001D01*
X114588013Y-98127998D01*
X114444752Y-98171455D01*
X114312723Y-98242027D01*
X114196998Y-98337000D01*
X114173200Y-98365998D01*
X112141000Y-100398199D01*
X112141000Y-100192408D01*
X112087314Y-99922510D01*
X111982005Y-99668273D01*
X111829120Y-99439465D01*
X111634535Y-99244880D01*
X111504000Y-99157659D01*
X111504000Y-98962341D01*
X111634535Y-98875120D01*
X111829120Y-98680535D01*
X111982005Y-98451727D01*
X112087314Y-98197490D01*
X112141000Y-97927592D01*
X112141000Y-97652408D01*
X112087314Y-97382510D01*
X111982005Y-97128273D01*
X111829120Y-96899465D01*
X111754090Y-96824435D01*
X117578040Y-96824435D01*
X118364000Y-97610395D01*
X119149960Y-96824435D01*
X119082980Y-96584344D01*
X118833952Y-96467244D01*
X118566865Y-96400977D01*
X118291983Y-96388090D01*
X118019867Y-96429078D01*
X117760977Y-96522364D01*
X117645020Y-96584344D01*
X117578040Y-96824435D01*
X111754090Y-96824435D01*
X111634535Y-96704880D01*
X111405727Y-96551995D01*
X111151490Y-96446686D01*
X110881592Y-96393000D01*
X110606408Y-96393000D01*
X110452430Y-96423628D01*
X109980000Y-95951199D01*
X109980000Y-86562043D01*
X110134759Y-86458637D01*
X110334637Y-86258759D01*
X110438043Y-86104000D01*
X110706678Y-86104000D01*
X110744000Y-86107676D01*
X110781322Y-86104000D01*
X110781333Y-86104000D01*
X110892986Y-86093003D01*
X111036247Y-86049546D01*
X111168276Y-85978974D01*
X111284001Y-85884001D01*
X111307804Y-85854997D01*
X111469762Y-85693039D01*
X117988096Y-85693039D01*
X118028754Y-85827087D01*
X118148963Y-86081420D01*
X118316481Y-86307414D01*
X118524869Y-86496385D01*
X118766119Y-86641070D01*
X119030960Y-86735909D01*
X119253000Y-86614624D01*
X119253000Y-85471000D01*
X119507000Y-85471000D01*
X119507000Y-86614624D01*
X119729040Y-86735909D01*
X119993881Y-86641070D01*
X120235131Y-86496385D01*
X120443519Y-86307414D01*
X120611037Y-86081420D01*
X120731246Y-85827087D01*
X120771904Y-85693039D01*
X120649915Y-85471000D01*
X119507000Y-85471000D01*
X119253000Y-85471000D01*
X118110085Y-85471000D01*
X117988096Y-85693039D01*
X111469762Y-85693039D01*
X112167840Y-84994961D01*
X117988096Y-84994961D01*
X118110085Y-85217000D01*
X119253000Y-85217000D01*
X119253000Y-84073376D01*
X119507000Y-84073376D01*
X119507000Y-85217000D01*
X120649915Y-85217000D01*
X120657790Y-85202665D01*
X123025000Y-85202665D01*
X123025000Y-85485335D01*
X123080147Y-85762574D01*
X123188320Y-86023727D01*
X123345363Y-86258759D01*
X123545241Y-86458637D01*
X123780273Y-86615680D01*
X124041426Y-86723853D01*
X124318665Y-86779000D01*
X124601335Y-86779000D01*
X124878574Y-86723853D01*
X125139727Y-86615680D01*
X125374759Y-86458637D01*
X125574637Y-86258759D01*
X125731680Y-86023727D01*
X125839853Y-85762574D01*
X125895000Y-85485335D01*
X125895000Y-85202665D01*
X125839853Y-84925426D01*
X125731680Y-84664273D01*
X125574637Y-84429241D01*
X125374759Y-84229363D01*
X125139727Y-84072320D01*
X124878574Y-83964147D01*
X124601335Y-83909000D01*
X124318665Y-83909000D01*
X124041426Y-83964147D01*
X123780273Y-84072320D01*
X123545241Y-84229363D01*
X123345363Y-84429241D01*
X123188320Y-84664273D01*
X123080147Y-84925426D01*
X123025000Y-85202665D01*
X120657790Y-85202665D01*
X120771904Y-84994961D01*
X120731246Y-84860913D01*
X120611037Y-84606580D01*
X120443519Y-84380586D01*
X120235131Y-84191615D01*
X119993881Y-84046930D01*
X119729040Y-83952091D01*
X119507000Y-84073376D01*
X119253000Y-84073376D01*
X119030960Y-83952091D01*
X118766119Y-84046930D01*
X118524869Y-84191615D01*
X118316481Y-84380586D01*
X118148963Y-84606580D01*
X118028754Y-84860913D01*
X117988096Y-84994961D01*
X112167840Y-84994961D01*
X116274393Y-80888408D01*
X135763000Y-80888408D01*
X135763000Y-81163592D01*
X135816686Y-81433490D01*
X135921995Y-81687727D01*
X136074880Y-81916535D01*
X136269465Y-82111120D01*
X136498273Y-82264005D01*
X136752510Y-82369314D01*
X137022408Y-82423000D01*
X137297592Y-82423000D01*
X137567490Y-82369314D01*
X137821727Y-82264005D01*
X138050535Y-82111120D01*
X138245120Y-81916535D01*
X138398005Y-81687727D01*
X138430000Y-81610485D01*
X138461995Y-81687727D01*
X138614880Y-81916535D01*
X138809465Y-82111120D01*
X139038273Y-82264005D01*
X139292510Y-82369314D01*
X139562408Y-82423000D01*
X139837592Y-82423000D01*
X140107490Y-82369314D01*
X140361727Y-82264005D01*
X140590535Y-82111120D01*
X140785120Y-81916535D01*
X140938005Y-81687727D01*
X140970000Y-81610485D01*
X141001995Y-81687727D01*
X141154880Y-81916535D01*
X141349465Y-82111120D01*
X141578273Y-82264005D01*
X141832510Y-82369314D01*
X142102408Y-82423000D01*
X142377592Y-82423000D01*
X142647490Y-82369314D01*
X142901727Y-82264005D01*
X143130535Y-82111120D01*
X143325120Y-81916535D01*
X143478005Y-81687727D01*
X143510000Y-81610485D01*
X143541995Y-81687727D01*
X143694880Y-81916535D01*
X143889465Y-82111120D01*
X144118273Y-82264005D01*
X144372510Y-82369314D01*
X144642408Y-82423000D01*
X144917592Y-82423000D01*
X145187490Y-82369314D01*
X145441727Y-82264005D01*
X145670535Y-82111120D01*
X145865120Y-81916535D01*
X146018005Y-81687727D01*
X146123314Y-81433490D01*
X146177000Y-81163592D01*
X146177000Y-80888408D01*
X146123314Y-80618510D01*
X146018005Y-80364273D01*
X145865120Y-80135465D01*
X145670535Y-79940880D01*
X145441727Y-79787995D01*
X145187490Y-79682686D01*
X144917592Y-79629000D01*
X144642408Y-79629000D01*
X144372510Y-79682686D01*
X144118273Y-79787995D01*
X143889465Y-79940880D01*
X143694880Y-80135465D01*
X143541995Y-80364273D01*
X143510000Y-80441515D01*
X143478005Y-80364273D01*
X143325120Y-80135465D01*
X143130535Y-79940880D01*
X142901727Y-79787995D01*
X142647490Y-79682686D01*
X142377592Y-79629000D01*
X142102408Y-79629000D01*
X141832510Y-79682686D01*
X141578273Y-79787995D01*
X141349465Y-79940880D01*
X141154880Y-80135465D01*
X141001995Y-80364273D01*
X140970000Y-80441515D01*
X140938005Y-80364273D01*
X140785120Y-80135465D01*
X140590535Y-79940880D01*
X140361727Y-79787995D01*
X140107490Y-79682686D01*
X139837592Y-79629000D01*
X139562408Y-79629000D01*
X139292510Y-79682686D01*
X139038273Y-79787995D01*
X138809465Y-79940880D01*
X138614880Y-80135465D01*
X138461995Y-80364273D01*
X138430000Y-80441515D01*
X138398005Y-80364273D01*
X138245120Y-80135465D01*
X138050535Y-79940880D01*
X137821727Y-79787995D01*
X137567490Y-79682686D01*
X137297592Y-79629000D01*
X137022408Y-79629000D01*
X136752510Y-79682686D01*
X136498273Y-79787995D01*
X136269465Y-79940880D01*
X136074880Y-80135465D01*
X135921995Y-80364273D01*
X135816686Y-80618510D01*
X135763000Y-80888408D01*
X116274393Y-80888408D01*
X118621007Y-78541795D01*
X118650000Y-78518001D01*
X118673794Y-78489008D01*
X118673799Y-78489003D01*
X118744974Y-78402277D01*
X118815546Y-78270247D01*
X118859002Y-78126987D01*
X118873676Y-77978001D01*
X118869999Y-77940668D01*
X118869999Y-75533040D01*
X123068091Y-75533040D01*
X123162930Y-75797881D01*
X123307615Y-76039131D01*
X123496586Y-76247519D01*
X123722580Y-76415037D01*
X123976913Y-76535246D01*
X124110961Y-76575904D01*
X124333000Y-76453915D01*
X124333000Y-75311000D01*
X124587000Y-75311000D01*
X124587000Y-76453915D01*
X124809039Y-76575904D01*
X124943087Y-76535246D01*
X125197420Y-76415037D01*
X125423414Y-76247519D01*
X125612385Y-76039131D01*
X125757070Y-75797881D01*
X125851909Y-75533040D01*
X125730624Y-75311000D01*
X124587000Y-75311000D01*
X124333000Y-75311000D01*
X123189376Y-75311000D01*
X123068091Y-75533040D01*
X118869999Y-75533040D01*
X118869999Y-74834960D01*
X123068091Y-74834960D01*
X123189376Y-75057000D01*
X124333000Y-75057000D01*
X124333000Y-73914085D01*
X124587000Y-73914085D01*
X124587000Y-75057000D01*
X125730624Y-75057000D01*
X125851909Y-74834960D01*
X125757070Y-74570119D01*
X125612385Y-74328869D01*
X125423414Y-74120481D01*
X125197420Y-73952963D01*
X124943087Y-73832754D01*
X124809039Y-73792096D01*
X124587000Y-73914085D01*
X124333000Y-73914085D01*
X124110961Y-73792096D01*
X123976913Y-73832754D01*
X123722580Y-73952963D01*
X123496586Y-74120481D01*
X123307615Y-74328869D01*
X123162930Y-74570119D01*
X123068091Y-74834960D01*
X118869999Y-74834960D01*
X118870001Y-70739000D01*
X119009592Y-70739000D01*
X119279490Y-70685314D01*
X119533727Y-70580005D01*
X119762535Y-70427120D01*
X119957120Y-70232535D01*
X120110005Y-70003727D01*
X120215314Y-69749490D01*
X120269000Y-69479592D01*
X120269000Y-69204408D01*
X120215314Y-68934510D01*
X120110005Y-68680273D01*
X119957120Y-68451465D01*
X119762535Y-68256880D01*
X119533727Y-68103995D01*
X119456485Y-68072000D01*
X119533727Y-68040005D01*
X119762535Y-67887120D01*
X119957120Y-67692535D01*
X120110005Y-67463727D01*
X120215314Y-67209490D01*
X120269000Y-66939592D01*
X120269000Y-66664408D01*
X120231324Y-66474999D01*
X120271290Y-66474999D01*
X120315227Y-66518936D01*
X120484745Y-66632204D01*
X120673103Y-66710225D01*
X120873062Y-66749999D01*
X121076940Y-66749999D01*
X121276899Y-66710225D01*
X121377738Y-66668456D01*
X121429744Y-66703205D01*
X121618102Y-66781226D01*
X121818061Y-66821000D01*
X122021939Y-66821000D01*
X122221898Y-66781226D01*
X122410256Y-66703205D01*
X122579774Y-66589937D01*
X122723937Y-66445774D01*
X122837205Y-66276256D01*
X122915226Y-66087898D01*
X122955000Y-65887939D01*
X122955000Y-65684061D01*
X122915226Y-65484102D01*
X122837205Y-65295744D01*
X122723937Y-65126226D01*
X122579774Y-64982063D01*
X122410256Y-64868795D01*
X122221898Y-64790774D01*
X122021939Y-64751000D01*
X121818061Y-64751000D01*
X121618102Y-64790774D01*
X121517263Y-64832543D01*
X121465257Y-64797794D01*
X121276899Y-64719773D01*
X121076940Y-64679999D01*
X120873062Y-64679999D01*
X120673103Y-64719773D01*
X120484745Y-64797794D01*
X120315227Y-64911062D01*
X120271290Y-64954999D01*
X120089110Y-64954999D01*
X120110005Y-64923727D01*
X120215314Y-64669490D01*
X120269000Y-64399592D01*
X120269000Y-64124408D01*
X120215314Y-63854510D01*
X120110005Y-63600273D01*
X119957120Y-63371465D01*
X119762535Y-63176880D01*
X119533727Y-63023995D01*
X119456485Y-62992000D01*
X119533727Y-62960005D01*
X119762535Y-62807120D01*
X119957120Y-62612535D01*
X120110005Y-62383727D01*
X120215314Y-62129490D01*
X120269000Y-61859592D01*
X120269000Y-61584408D01*
X120215314Y-61314510D01*
X120110005Y-61060273D01*
X119957120Y-60831465D01*
X119762535Y-60636880D01*
X119533727Y-60483995D01*
X119279490Y-60378686D01*
X119009592Y-60325000D01*
X118734408Y-60325000D01*
X118464510Y-60378686D01*
X118210273Y-60483995D01*
X117981465Y-60636880D01*
X117786880Y-60831465D01*
X117633995Y-61060273D01*
X117528686Y-61314510D01*
X117475000Y-61584408D01*
X117475000Y-61859592D01*
X117528686Y-62129490D01*
X117633995Y-62383727D01*
X117786880Y-62612535D01*
X117981465Y-62807120D01*
X118210273Y-62960005D01*
X118287515Y-62992000D01*
X118210273Y-63023995D01*
X117981465Y-63176880D01*
X117786880Y-63371465D01*
X117633995Y-63600273D01*
X117528686Y-63854510D01*
X117475000Y-64124408D01*
X117475000Y-64399592D01*
X117528686Y-64669490D01*
X117633995Y-64923727D01*
X117759516Y-65111582D01*
X117685723Y-65151026D01*
X117626029Y-65200016D01*
X117569999Y-65245999D01*
X117546201Y-65274997D01*
X116779199Y-66042000D01*
X112424341Y-66042000D01*
X112337120Y-65911465D01*
X112142535Y-65716880D01*
X111913727Y-65563995D01*
X111836485Y-65532000D01*
X111913727Y-65500005D01*
X112142535Y-65347120D01*
X112337120Y-65152535D01*
X112490005Y-64923727D01*
X112595314Y-64669490D01*
X112649000Y-64399592D01*
X112649000Y-64124408D01*
X112595314Y-63854510D01*
X112490005Y-63600273D01*
X112337120Y-63371465D01*
X112142535Y-63176880D01*
X111913727Y-63023995D01*
X111836485Y-62992000D01*
X111913727Y-62960005D01*
X112142535Y-62807120D01*
X112337120Y-62612535D01*
X112490005Y-62383727D01*
X112595314Y-62129490D01*
X112649000Y-61859592D01*
X112649000Y-61584408D01*
X112595314Y-61314510D01*
X112490005Y-61060273D01*
X112337120Y-60831465D01*
X112142535Y-60636880D01*
X111913727Y-60483995D01*
X111659490Y-60378686D01*
X111389592Y-60325000D01*
X111114408Y-60325000D01*
X110844510Y-60378686D01*
X110590273Y-60483995D01*
X110361465Y-60636880D01*
X110166880Y-60831465D01*
X110013995Y-61060273D01*
X109908686Y-61314510D01*
X109855000Y-61584408D01*
X109855000Y-61859592D01*
X109908686Y-62129490D01*
X110013995Y-62383727D01*
X110166880Y-62612535D01*
X110361465Y-62807120D01*
X110590273Y-62960005D01*
X110667515Y-62992000D01*
X110590273Y-63023995D01*
X110361465Y-63176880D01*
X110166880Y-63371465D01*
X110013995Y-63600273D01*
X109908686Y-63854510D01*
X109855000Y-64124408D01*
X109855000Y-64399592D01*
X109885628Y-64553571D01*
X109654001Y-64785197D01*
X109624998Y-64809000D01*
X109575926Y-64868795D01*
X109530025Y-64924725D01*
X109507965Y-64965996D01*
X109459453Y-65056755D01*
X109415996Y-65200016D01*
X109404999Y-65311669D01*
X109404999Y-65311679D01*
X109401323Y-65349001D01*
X109404999Y-65386324D01*
X109405000Y-69826429D01*
X109401323Y-69863761D01*
X109415997Y-70012746D01*
X109459453Y-70156007D01*
X109530025Y-70288037D01*
X109601200Y-70374763D01*
X109624999Y-70403762D01*
X109653997Y-70427560D01*
X110166439Y-70940003D01*
X110190238Y-70969002D01*
X110219236Y-70992800D01*
X110305962Y-71063975D01*
X110437992Y-71134547D01*
X110581253Y-71178004D01*
X110692906Y-71189001D01*
X110692915Y-71189001D01*
X110730238Y-71192677D01*
X110767561Y-71189001D01*
X115207677Y-71189001D01*
X115244999Y-71192677D01*
X115282321Y-71189001D01*
X115282332Y-71189001D01*
X115393985Y-71178004D01*
X115537246Y-71134547D01*
X115669275Y-71063975D01*
X115785000Y-70969002D01*
X115808803Y-70939998D01*
X117475000Y-69273801D01*
X117475000Y-69479592D01*
X117507048Y-69640706D01*
X117475027Y-69679723D01*
X117404455Y-69811753D01*
X117360999Y-69955014D01*
X117346325Y-70103999D01*
X117350002Y-70141331D01*
X117350000Y-77663198D01*
X110434501Y-84578698D01*
X110334637Y-84429241D01*
X110134759Y-84229363D01*
X109899727Y-84072320D01*
X109638574Y-83964147D01*
X109361335Y-83909000D01*
X109078665Y-83909000D01*
X108801426Y-83964147D01*
X108540273Y-84072320D01*
X108305241Y-84229363D01*
X108105363Y-84429241D01*
X107948320Y-84664273D01*
X107840147Y-84925426D01*
X107785000Y-85202665D01*
X90429569Y-85202665D01*
X87259239Y-58498731D01*
X132557841Y-38759675D01*
X187504152Y-95731656D01*
%TA.AperFunction,Conductor*%
D16*
G36*
X187504152Y-95731656D02*
G01*
X145261076Y-121279864D01*
X93840604Y-113934082D01*
X90429569Y-85202665D01*
X107785000Y-85202665D01*
X107785000Y-85485335D01*
X107840147Y-85762574D01*
X107948320Y-86023727D01*
X108105363Y-86258759D01*
X108305241Y-86458637D01*
X108460000Y-86562043D01*
X108460001Y-96228668D01*
X108456324Y-96266000D01*
X108460001Y-96303333D01*
X108470998Y-96414986D01*
X108475273Y-96429078D01*
X108514454Y-96558246D01*
X108585026Y-96690276D01*
X108656201Y-96777002D01*
X108680000Y-96806001D01*
X108708998Y-96829799D01*
X109377628Y-97498430D01*
X109347000Y-97652408D01*
X109347000Y-97927592D01*
X109400686Y-98197490D01*
X109505995Y-98451727D01*
X109658880Y-98680535D01*
X109853465Y-98875120D01*
X109984001Y-98962341D01*
X109984000Y-99157659D01*
X109853465Y-99244880D01*
X109658880Y-99439465D01*
X109505995Y-99668273D01*
X109400686Y-99922510D01*
X109347000Y-100192408D01*
X109347000Y-100467592D01*
X109400686Y-100737490D01*
X109505995Y-100991727D01*
X109658880Y-101220535D01*
X109853465Y-101415120D01*
X110082273Y-101568005D01*
X110159515Y-101600000D01*
X110082273Y-101631995D01*
X109853465Y-101784880D01*
X109658880Y-101979465D01*
X109505995Y-102208273D01*
X109400686Y-102462510D01*
X109347000Y-102732408D01*
X109347000Y-103007592D01*
X109400686Y-103277490D01*
X109505995Y-103531727D01*
X109658880Y-103760535D01*
X109853465Y-103955120D01*
X110082273Y-104108005D01*
X110159515Y-104140000D01*
X110082273Y-104171995D01*
X109853465Y-104324880D01*
X109658880Y-104519465D01*
X109505995Y-104748273D01*
X109400686Y-105002510D01*
X109347000Y-105272408D01*
X109347000Y-105547592D01*
X109400686Y-105817490D01*
X109505995Y-106071727D01*
X109658880Y-106300535D01*
X109853465Y-106495120D01*
X110082273Y-106648005D01*
X110336510Y-106753314D01*
X110606408Y-106807000D01*
X110881592Y-106807000D01*
X111151490Y-106753314D01*
X111405727Y-106648005D01*
X111634535Y-106495120D01*
X111829120Y-106300535D01*
X111982005Y-106071727D01*
X112087314Y-105817490D01*
X112141000Y-105547592D01*
X112141000Y-105272408D01*
X112110372Y-105118429D01*
X116138802Y-101090000D01*
X117191659Y-101090000D01*
X117278880Y-101220535D01*
X117473465Y-101415120D01*
X117702273Y-101568005D01*
X117779515Y-101600000D01*
X117702273Y-101631995D01*
X117473465Y-101784880D01*
X117278880Y-101979465D01*
X117125995Y-102208273D01*
X117020686Y-102462510D01*
X116967000Y-102732408D01*
X116967000Y-103007592D01*
X117020686Y-103277490D01*
X117125995Y-103531727D01*
X117278880Y-103760535D01*
X117473465Y-103955120D01*
X117702273Y-104108005D01*
X117779515Y-104140000D01*
X117702273Y-104171995D01*
X117473465Y-104324880D01*
X117278880Y-104519465D01*
X117125995Y-104748273D01*
X117020686Y-105002510D01*
X116967000Y-105272408D01*
X116967000Y-105547592D01*
X117020686Y-105817490D01*
X117125995Y-106071727D01*
X117278880Y-106300535D01*
X117473465Y-106495120D01*
X117702273Y-106648005D01*
X117956510Y-106753314D01*
X118226408Y-106807000D01*
X118501592Y-106807000D01*
X118771490Y-106753314D01*
X119025727Y-106648005D01*
X119254535Y-106495120D01*
X119449120Y-106300535D01*
X119536341Y-106170000D01*
X122898678Y-106170000D01*
X122936000Y-106173676D01*
X122973322Y-106170000D01*
X122973333Y-106170000D01*
X123084986Y-106159003D01*
X123228247Y-106115546D01*
X123360276Y-106044974D01*
X123476001Y-105950001D01*
X123499804Y-105920997D01*
X139408430Y-90012372D01*
X139562408Y-90043000D01*
X139837592Y-90043000D01*
X140107490Y-89989314D01*
X140209388Y-89947106D01*
X140210001Y-89953332D01*
X140210000Y-90990289D01*
X140166063Y-91034226D01*
X140052795Y-91203744D01*
X139974774Y-91392102D01*
X139935000Y-91592061D01*
X139935000Y-91795939D01*
X139974774Y-91995898D01*
X140052795Y-92184256D01*
X140166063Y-92353774D01*
X140310226Y-92497937D01*
X140479744Y-92611205D01*
X140668102Y-92689226D01*
X140868061Y-92729000D01*
X141071939Y-92729000D01*
X141271898Y-92689226D01*
X141460256Y-92611205D01*
X141629774Y-92497937D01*
X141773937Y-92353774D01*
X141887205Y-92184256D01*
X141965226Y-91995898D01*
X142005000Y-91795939D01*
X142005000Y-91592061D01*
X141965226Y-91392102D01*
X141887205Y-91203744D01*
X141773937Y-91034226D01*
X141730000Y-90990289D01*
X141730000Y-90230801D01*
X141948430Y-90012372D01*
X142102408Y-90043000D01*
X142377592Y-90043000D01*
X142647490Y-89989314D01*
X142901727Y-89884005D01*
X143130535Y-89731120D01*
X143325120Y-89536535D01*
X143478005Y-89307727D01*
X143510000Y-89230485D01*
X143541995Y-89307727D01*
X143694880Y-89536535D01*
X143889465Y-89731120D01*
X144118273Y-89884005D01*
X144372510Y-89989314D01*
X144642408Y-90043000D01*
X144917592Y-90043000D01*
X145187490Y-89989314D01*
X145441727Y-89884005D01*
X145670535Y-89731120D01*
X145865120Y-89536535D01*
X146018005Y-89307727D01*
X146123314Y-89053490D01*
X146177000Y-88783592D01*
X146177000Y-88508408D01*
X146123314Y-88238510D01*
X146018005Y-87984273D01*
X145865120Y-87755465D01*
X145670535Y-87560880D01*
X145441727Y-87407995D01*
X145187490Y-87302686D01*
X144917592Y-87249000D01*
X144642408Y-87249000D01*
X144372510Y-87302686D01*
X144118273Y-87407995D01*
X143889465Y-87560880D01*
X143694880Y-87755465D01*
X143541995Y-87984273D01*
X143510000Y-88061515D01*
X143478005Y-87984273D01*
X143325120Y-87755465D01*
X143130535Y-87560880D01*
X142901727Y-87407995D01*
X142647490Y-87302686D01*
X142377592Y-87249000D01*
X142102408Y-87249000D01*
X141832510Y-87302686D01*
X141578273Y-87407995D01*
X141349465Y-87560880D01*
X141154880Y-87755465D01*
X141001995Y-87984273D01*
X140970000Y-88061515D01*
X140938005Y-87984273D01*
X140785120Y-87755465D01*
X140590535Y-87560880D01*
X140361727Y-87407995D01*
X140107490Y-87302686D01*
X139837592Y-87249000D01*
X139562408Y-87249000D01*
X139292510Y-87302686D01*
X139038273Y-87407995D01*
X138809465Y-87560880D01*
X138614880Y-87755465D01*
X138461995Y-87984273D01*
X138430000Y-88061515D01*
X138398005Y-87984273D01*
X138245120Y-87755465D01*
X138050535Y-87560880D01*
X137821727Y-87407995D01*
X137567490Y-87302686D01*
X137297592Y-87249000D01*
X137022408Y-87249000D01*
X136752510Y-87302686D01*
X136498273Y-87407995D01*
X136269465Y-87560880D01*
X136074880Y-87755465D01*
X135921995Y-87984273D01*
X135816686Y-88238510D01*
X135763000Y-88508408D01*
X135763000Y-88783592D01*
X135793628Y-88937570D01*
X126614198Y-98117001D01*
X119722224Y-98117001D01*
X119753023Y-97992865D01*
X119765910Y-97717983D01*
X119724922Y-97445867D01*
X119631636Y-97186977D01*
X119569656Y-97071020D01*
X119329565Y-97004040D01*
X118543605Y-97790000D01*
X118557748Y-97804143D01*
X118378143Y-97983748D01*
X118364000Y-97969605D01*
X118349858Y-97983748D01*
X118170253Y-97804143D01*
X118184395Y-97790000D01*
X117398435Y-97004040D01*
X117158344Y-97071020D01*
X117041244Y-97320048D01*
X116974977Y-97587135D01*
X116962090Y-97862017D01*
X117000497Y-98117001D01*
X114774321Y-98117001D01*
X114736998Y-98113325D01*
X114699675Y-98117001D01*
X114699666Y-98117001D01*
X114588013Y-98127998D01*
X114444752Y-98171455D01*
X114312723Y-98242027D01*
X114196998Y-98337000D01*
X114173200Y-98365998D01*
X112141000Y-100398199D01*
X112141000Y-100192408D01*
X112087314Y-99922510D01*
X111982005Y-99668273D01*
X111829120Y-99439465D01*
X111634535Y-99244880D01*
X111504000Y-99157659D01*
X111504000Y-98962341D01*
X111634535Y-98875120D01*
X111829120Y-98680535D01*
X111982005Y-98451727D01*
X112087314Y-98197490D01*
X112141000Y-97927592D01*
X112141000Y-97652408D01*
X112087314Y-97382510D01*
X111982005Y-97128273D01*
X111829120Y-96899465D01*
X111754090Y-96824435D01*
X117578040Y-96824435D01*
X118364000Y-97610395D01*
X119149960Y-96824435D01*
X119082980Y-96584344D01*
X118833952Y-96467244D01*
X118566865Y-96400977D01*
X118291983Y-96388090D01*
X118019867Y-96429078D01*
X117760977Y-96522364D01*
X117645020Y-96584344D01*
X117578040Y-96824435D01*
X111754090Y-96824435D01*
X111634535Y-96704880D01*
X111405727Y-96551995D01*
X111151490Y-96446686D01*
X110881592Y-96393000D01*
X110606408Y-96393000D01*
X110452430Y-96423628D01*
X109980000Y-95951199D01*
X109980000Y-86562043D01*
X110134759Y-86458637D01*
X110334637Y-86258759D01*
X110438043Y-86104000D01*
X110706678Y-86104000D01*
X110744000Y-86107676D01*
X110781322Y-86104000D01*
X110781333Y-86104000D01*
X110892986Y-86093003D01*
X111036247Y-86049546D01*
X111168276Y-85978974D01*
X111284001Y-85884001D01*
X111307804Y-85854997D01*
X111469762Y-85693039D01*
X117988096Y-85693039D01*
X118028754Y-85827087D01*
X118148963Y-86081420D01*
X118316481Y-86307414D01*
X118524869Y-86496385D01*
X118766119Y-86641070D01*
X119030960Y-86735909D01*
X119253000Y-86614624D01*
X119253000Y-85471000D01*
X119507000Y-85471000D01*
X119507000Y-86614624D01*
X119729040Y-86735909D01*
X119993881Y-86641070D01*
X120235131Y-86496385D01*
X120443519Y-86307414D01*
X120611037Y-86081420D01*
X120731246Y-85827087D01*
X120771904Y-85693039D01*
X120649915Y-85471000D01*
X119507000Y-85471000D01*
X119253000Y-85471000D01*
X118110085Y-85471000D01*
X117988096Y-85693039D01*
X111469762Y-85693039D01*
X112167840Y-84994961D01*
X117988096Y-84994961D01*
X118110085Y-85217000D01*
X119253000Y-85217000D01*
X119253000Y-84073376D01*
X119507000Y-84073376D01*
X119507000Y-85217000D01*
X120649915Y-85217000D01*
X120657790Y-85202665D01*
X123025000Y-85202665D01*
X123025000Y-85485335D01*
X123080147Y-85762574D01*
X123188320Y-86023727D01*
X123345363Y-86258759D01*
X123545241Y-86458637D01*
X123780273Y-86615680D01*
X124041426Y-86723853D01*
X124318665Y-86779000D01*
X124601335Y-86779000D01*
X124878574Y-86723853D01*
X125139727Y-86615680D01*
X125374759Y-86458637D01*
X125574637Y-86258759D01*
X125731680Y-86023727D01*
X125839853Y-85762574D01*
X125895000Y-85485335D01*
X125895000Y-85202665D01*
X125839853Y-84925426D01*
X125731680Y-84664273D01*
X125574637Y-84429241D01*
X125374759Y-84229363D01*
X125139727Y-84072320D01*
X124878574Y-83964147D01*
X124601335Y-83909000D01*
X124318665Y-83909000D01*
X124041426Y-83964147D01*
X123780273Y-84072320D01*
X123545241Y-84229363D01*
X123345363Y-84429241D01*
X123188320Y-84664273D01*
X123080147Y-84925426D01*
X123025000Y-85202665D01*
X120657790Y-85202665D01*
X120771904Y-84994961D01*
X120731246Y-84860913D01*
X120611037Y-84606580D01*
X120443519Y-84380586D01*
X120235131Y-84191615D01*
X119993881Y-84046930D01*
X119729040Y-83952091D01*
X119507000Y-84073376D01*
X119253000Y-84073376D01*
X119030960Y-83952091D01*
X118766119Y-84046930D01*
X118524869Y-84191615D01*
X118316481Y-84380586D01*
X118148963Y-84606580D01*
X118028754Y-84860913D01*
X117988096Y-84994961D01*
X112167840Y-84994961D01*
X116274393Y-80888408D01*
X135763000Y-80888408D01*
X135763000Y-81163592D01*
X135816686Y-81433490D01*
X135921995Y-81687727D01*
X136074880Y-81916535D01*
X136269465Y-82111120D01*
X136498273Y-82264005D01*
X136752510Y-82369314D01*
X137022408Y-82423000D01*
X137297592Y-82423000D01*
X137567490Y-82369314D01*
X137821727Y-82264005D01*
X138050535Y-82111120D01*
X138245120Y-81916535D01*
X138398005Y-81687727D01*
X138430000Y-81610485D01*
X138461995Y-81687727D01*
X138614880Y-81916535D01*
X138809465Y-82111120D01*
X139038273Y-82264005D01*
X139292510Y-82369314D01*
X139562408Y-82423000D01*
X139837592Y-82423000D01*
X140107490Y-82369314D01*
X140361727Y-82264005D01*
X140590535Y-82111120D01*
X140785120Y-81916535D01*
X140938005Y-81687727D01*
X140970000Y-81610485D01*
X141001995Y-81687727D01*
X141154880Y-81916535D01*
X141349465Y-82111120D01*
X141578273Y-82264005D01*
X141832510Y-82369314D01*
X142102408Y-82423000D01*
X142377592Y-82423000D01*
X142647490Y-82369314D01*
X142901727Y-82264005D01*
X143130535Y-82111120D01*
X143325120Y-81916535D01*
X143478005Y-81687727D01*
X143510000Y-81610485D01*
X143541995Y-81687727D01*
X143694880Y-81916535D01*
X143889465Y-82111120D01*
X144118273Y-82264005D01*
X144372510Y-82369314D01*
X144642408Y-82423000D01*
X144917592Y-82423000D01*
X145187490Y-82369314D01*
X145441727Y-82264005D01*
X145670535Y-82111120D01*
X145865120Y-81916535D01*
X146018005Y-81687727D01*
X146123314Y-81433490D01*
X146177000Y-81163592D01*
X146177000Y-80888408D01*
X146123314Y-80618510D01*
X146018005Y-80364273D01*
X145865120Y-80135465D01*
X145670535Y-79940880D01*
X145441727Y-79787995D01*
X145187490Y-79682686D01*
X144917592Y-79629000D01*
X144642408Y-79629000D01*
X144372510Y-79682686D01*
X144118273Y-79787995D01*
X143889465Y-79940880D01*
X143694880Y-80135465D01*
X143541995Y-80364273D01*
X143510000Y-80441515D01*
X143478005Y-80364273D01*
X143325120Y-80135465D01*
X143130535Y-79940880D01*
X142901727Y-79787995D01*
X142647490Y-79682686D01*
X142377592Y-79629000D01*
X142102408Y-79629000D01*
X141832510Y-79682686D01*
X141578273Y-79787995D01*
X141349465Y-79940880D01*
X141154880Y-80135465D01*
X141001995Y-80364273D01*
X140970000Y-80441515D01*
X140938005Y-80364273D01*
X140785120Y-80135465D01*
X140590535Y-79940880D01*
X140361727Y-79787995D01*
X140107490Y-79682686D01*
X139837592Y-79629000D01*
X139562408Y-79629000D01*
X139292510Y-79682686D01*
X139038273Y-79787995D01*
X138809465Y-79940880D01*
X138614880Y-80135465D01*
X138461995Y-80364273D01*
X138430000Y-80441515D01*
X138398005Y-80364273D01*
X138245120Y-80135465D01*
X138050535Y-79940880D01*
X137821727Y-79787995D01*
X137567490Y-79682686D01*
X137297592Y-79629000D01*
X137022408Y-79629000D01*
X136752510Y-79682686D01*
X136498273Y-79787995D01*
X136269465Y-79940880D01*
X136074880Y-80135465D01*
X135921995Y-80364273D01*
X135816686Y-80618510D01*
X135763000Y-80888408D01*
X116274393Y-80888408D01*
X118621007Y-78541795D01*
X118650000Y-78518001D01*
X118673794Y-78489008D01*
X118673799Y-78489003D01*
X118744974Y-78402277D01*
X118815546Y-78270247D01*
X118859002Y-78126987D01*
X118873676Y-77978001D01*
X118869999Y-77940668D01*
X118869999Y-75533040D01*
X123068091Y-75533040D01*
X123162930Y-75797881D01*
X123307615Y-76039131D01*
X123496586Y-76247519D01*
X123722580Y-76415037D01*
X123976913Y-76535246D01*
X124110961Y-76575904D01*
X124333000Y-76453915D01*
X124333000Y-75311000D01*
X124587000Y-75311000D01*
X124587000Y-76453915D01*
X124809039Y-76575904D01*
X124943087Y-76535246D01*
X125197420Y-76415037D01*
X125423414Y-76247519D01*
X125612385Y-76039131D01*
X125757070Y-75797881D01*
X125851909Y-75533040D01*
X125730624Y-75311000D01*
X124587000Y-75311000D01*
X124333000Y-75311000D01*
X123189376Y-75311000D01*
X123068091Y-75533040D01*
X118869999Y-75533040D01*
X118869999Y-74834960D01*
X123068091Y-74834960D01*
X123189376Y-75057000D01*
X124333000Y-75057000D01*
X124333000Y-73914085D01*
X124587000Y-73914085D01*
X124587000Y-75057000D01*
X125730624Y-75057000D01*
X125851909Y-74834960D01*
X125757070Y-74570119D01*
X125612385Y-74328869D01*
X125423414Y-74120481D01*
X125197420Y-73952963D01*
X124943087Y-73832754D01*
X124809039Y-73792096D01*
X124587000Y-73914085D01*
X124333000Y-73914085D01*
X124110961Y-73792096D01*
X123976913Y-73832754D01*
X123722580Y-73952963D01*
X123496586Y-74120481D01*
X123307615Y-74328869D01*
X123162930Y-74570119D01*
X123068091Y-74834960D01*
X118869999Y-74834960D01*
X118870001Y-70739000D01*
X119009592Y-70739000D01*
X119279490Y-70685314D01*
X119533727Y-70580005D01*
X119762535Y-70427120D01*
X119957120Y-70232535D01*
X120110005Y-70003727D01*
X120215314Y-69749490D01*
X120269000Y-69479592D01*
X120269000Y-69204408D01*
X120215314Y-68934510D01*
X120110005Y-68680273D01*
X119957120Y-68451465D01*
X119762535Y-68256880D01*
X119533727Y-68103995D01*
X119456485Y-68072000D01*
X119533727Y-68040005D01*
X119762535Y-67887120D01*
X119957120Y-67692535D01*
X120110005Y-67463727D01*
X120215314Y-67209490D01*
X120269000Y-66939592D01*
X120269000Y-66664408D01*
X120231324Y-66474999D01*
X120271290Y-66474999D01*
X120315227Y-66518936D01*
X120484745Y-66632204D01*
X120673103Y-66710225D01*
X120873062Y-66749999D01*
X121076940Y-66749999D01*
X121276899Y-66710225D01*
X121377738Y-66668456D01*
X121429744Y-66703205D01*
X121618102Y-66781226D01*
X121818061Y-66821000D01*
X122021939Y-66821000D01*
X122221898Y-66781226D01*
X122410256Y-66703205D01*
X122579774Y-66589937D01*
X122723937Y-66445774D01*
X122837205Y-66276256D01*
X122915226Y-66087898D01*
X122955000Y-65887939D01*
X122955000Y-65684061D01*
X122915226Y-65484102D01*
X122837205Y-65295744D01*
X122723937Y-65126226D01*
X122579774Y-64982063D01*
X122410256Y-64868795D01*
X122221898Y-64790774D01*
X122021939Y-64751000D01*
X121818061Y-64751000D01*
X121618102Y-64790774D01*
X121517263Y-64832543D01*
X121465257Y-64797794D01*
X121276899Y-64719773D01*
X121076940Y-64679999D01*
X120873062Y-64679999D01*
X120673103Y-64719773D01*
X120484745Y-64797794D01*
X120315227Y-64911062D01*
X120271290Y-64954999D01*
X120089110Y-64954999D01*
X120110005Y-64923727D01*
X120215314Y-64669490D01*
X120269000Y-64399592D01*
X120269000Y-64124408D01*
X120215314Y-63854510D01*
X120110005Y-63600273D01*
X119957120Y-63371465D01*
X119762535Y-63176880D01*
X119533727Y-63023995D01*
X119456485Y-62992000D01*
X119533727Y-62960005D01*
X119762535Y-62807120D01*
X119957120Y-62612535D01*
X120110005Y-62383727D01*
X120215314Y-62129490D01*
X120269000Y-61859592D01*
X120269000Y-61584408D01*
X120215314Y-61314510D01*
X120110005Y-61060273D01*
X119957120Y-60831465D01*
X119762535Y-60636880D01*
X119533727Y-60483995D01*
X119279490Y-60378686D01*
X119009592Y-60325000D01*
X118734408Y-60325000D01*
X118464510Y-60378686D01*
X118210273Y-60483995D01*
X117981465Y-60636880D01*
X117786880Y-60831465D01*
X117633995Y-61060273D01*
X117528686Y-61314510D01*
X117475000Y-61584408D01*
X117475000Y-61859592D01*
X117528686Y-62129490D01*
X117633995Y-62383727D01*
X117786880Y-62612535D01*
X117981465Y-62807120D01*
X118210273Y-62960005D01*
X118287515Y-62992000D01*
X118210273Y-63023995D01*
X117981465Y-63176880D01*
X117786880Y-63371465D01*
X117633995Y-63600273D01*
X117528686Y-63854510D01*
X117475000Y-64124408D01*
X117475000Y-64399592D01*
X117528686Y-64669490D01*
X117633995Y-64923727D01*
X117759516Y-65111582D01*
X117685723Y-65151026D01*
X117626029Y-65200016D01*
X117569999Y-65245999D01*
X117546201Y-65274997D01*
X116779199Y-66042000D01*
X112424341Y-66042000D01*
X112337120Y-65911465D01*
X112142535Y-65716880D01*
X111913727Y-65563995D01*
X111836485Y-65532000D01*
X111913727Y-65500005D01*
X112142535Y-65347120D01*
X112337120Y-65152535D01*
X112490005Y-64923727D01*
X112595314Y-64669490D01*
X112649000Y-64399592D01*
X112649000Y-64124408D01*
X112595314Y-63854510D01*
X112490005Y-63600273D01*
X112337120Y-63371465D01*
X112142535Y-63176880D01*
X111913727Y-63023995D01*
X111836485Y-62992000D01*
X111913727Y-62960005D01*
X112142535Y-62807120D01*
X112337120Y-62612535D01*
X112490005Y-62383727D01*
X112595314Y-62129490D01*
X112649000Y-61859592D01*
X112649000Y-61584408D01*
X112595314Y-61314510D01*
X112490005Y-61060273D01*
X112337120Y-60831465D01*
X112142535Y-60636880D01*
X111913727Y-60483995D01*
X111659490Y-60378686D01*
X111389592Y-60325000D01*
X111114408Y-60325000D01*
X110844510Y-60378686D01*
X110590273Y-60483995D01*
X110361465Y-60636880D01*
X110166880Y-60831465D01*
X110013995Y-61060273D01*
X109908686Y-61314510D01*
X109855000Y-61584408D01*
X109855000Y-61859592D01*
X109908686Y-62129490D01*
X110013995Y-62383727D01*
X110166880Y-62612535D01*
X110361465Y-62807120D01*
X110590273Y-62960005D01*
X110667515Y-62992000D01*
X110590273Y-63023995D01*
X110361465Y-63176880D01*
X110166880Y-63371465D01*
X110013995Y-63600273D01*
X109908686Y-63854510D01*
X109855000Y-64124408D01*
X109855000Y-64399592D01*
X109885628Y-64553571D01*
X109654001Y-64785197D01*
X109624998Y-64809000D01*
X109575926Y-64868795D01*
X109530025Y-64924725D01*
X109507965Y-64965996D01*
X109459453Y-65056755D01*
X109415996Y-65200016D01*
X109404999Y-65311669D01*
X109404999Y-65311679D01*
X109401323Y-65349001D01*
X109404999Y-65386324D01*
X109405000Y-69826429D01*
X109401323Y-69863761D01*
X109415997Y-70012746D01*
X109459453Y-70156007D01*
X109530025Y-70288037D01*
X109601200Y-70374763D01*
X109624999Y-70403762D01*
X109653997Y-70427560D01*
X110166439Y-70940003D01*
X110190238Y-70969002D01*
X110219236Y-70992800D01*
X110305962Y-71063975D01*
X110437992Y-71134547D01*
X110581253Y-71178004D01*
X110692906Y-71189001D01*
X110692915Y-71189001D01*
X110730238Y-71192677D01*
X110767561Y-71189001D01*
X115207677Y-71189001D01*
X115244999Y-71192677D01*
X115282321Y-71189001D01*
X115282332Y-71189001D01*
X115393985Y-71178004D01*
X115537246Y-71134547D01*
X115669275Y-71063975D01*
X115785000Y-70969002D01*
X115808803Y-70939998D01*
X117475000Y-69273801D01*
X117475000Y-69479592D01*
X117507048Y-69640706D01*
X117475027Y-69679723D01*
X117404455Y-69811753D01*
X117360999Y-69955014D01*
X117346325Y-70103999D01*
X117350002Y-70141331D01*
X117350000Y-77663198D01*
X110434501Y-84578698D01*
X110334637Y-84429241D01*
X110134759Y-84229363D01*
X109899727Y-84072320D01*
X109638574Y-83964147D01*
X109361335Y-83909000D01*
X109078665Y-83909000D01*
X108801426Y-83964147D01*
X108540273Y-84072320D01*
X108305241Y-84229363D01*
X108105363Y-84429241D01*
X107948320Y-84664273D01*
X107840147Y-84925426D01*
X107785000Y-85202665D01*
X90429569Y-85202665D01*
X87259239Y-58498731D01*
X132557841Y-38759675D01*
X187504152Y-95731656D01*
G37*
%TD.AperFunction*%
%TD*%
M02*
