%TF.GenerationSoftware,KiCad,Pcbnew,(5.1.9)-1*%
%TF.CreationDate,2021-10-21T17:43:52-05:00*%
%TF.ProjectId,tutorial,7475746f-7269-4616-9c2e-6b696361645f,rev?*%
%TF.SameCoordinates,Original*%
%TF.FileFunction,Copper,L2,Bot*%
%TF.FilePolarity,Positive*%
%FSLAX46Y46*%
G04 Gerber Fmt 4.6, Leading zero omitted, Abs format (unit mm)*
G04 Created by KiCad (PCBNEW (5.1.9)-1) date 2021-10-21 17:43:52*
%MOMM*%
%LPD*%
G01*
G04 APERTURE LIST*
%TA.AperFunction,ComponentPad*%
%ADD10C,1.524000*%
%TD*%
%TA.AperFunction,ComponentPad*%
%ADD11O,2.400000X2.400000*%
%TD*%
%TA.AperFunction,ComponentPad*%
%ADD12C,2.400000*%
%TD*%
%TA.AperFunction,ViaPad*%
%ADD13C,0.800000*%
%TD*%
%TA.AperFunction,Conductor*%
%ADD14C,0.250000*%
%TD*%
%TA.AperFunction,Conductor*%
%ADD15C,0.254000*%
%TD*%
%TA.AperFunction,Conductor*%
%ADD16C,0.100000*%
%TD*%
G04 APERTURE END LIST*
D10*
%TO.P,U2,13*%
%TO.N,Net-(R3-Pad2)*%
X135636000Y-59182000D03*
%TO.P,U2,12*%
%TO.N,Net-(U2-Pad11)*%
X135636000Y-56642000D03*
%TO.P,U2,11*%
X135636000Y-54102000D03*
%TO.P,U2,10*%
%TO.N,PIN_0*%
X135636000Y-51562000D03*
%TO.P,U2,9*%
%TO.N,Net-(U1-Pad2)*%
X135636000Y-49022000D03*
%TO.P,U2,8*%
%TO.N,Net-(U1-Pad11)*%
X135636000Y-46482000D03*
%TO.P,U2,7*%
%TO.N,Net-(U1-Pad5)*%
X145796000Y-46482000D03*
%TO.P,U2,6*%
%TO.N,Net-(U1-Pad12)*%
X145796000Y-49022000D03*
%TO.P,U2,5*%
%TO.N,Net-(U1-Pad4)*%
X145796000Y-51562000D03*
%TO.P,U2,4*%
%TO.N,Net-(U1-Pad8)*%
X145796000Y-54102000D03*
%TO.P,U2,3*%
%TO.N,Net-(U1-Pad13)*%
X145796000Y-56642000D03*
%TO.P,U2,2*%
X145796000Y-59182000D03*
%TO.P,U2,1*%
%TO.N,Net-(U1-Pad1)*%
X145796000Y-61722000D03*
%TD*%
%TO.P,U1,13*%
%TO.N,Net-(U1-Pad13)*%
X110490000Y-60452000D03*
%TO.P,U1,12*%
%TO.N,Net-(U1-Pad12)*%
X110490000Y-57912000D03*
%TO.P,U1,11*%
%TO.N,Net-(U1-Pad11)*%
X110490000Y-55372000D03*
%TO.P,U1,10*%
%TO.N,Net-(U1-Pad10)*%
X110490000Y-52832000D03*
%TO.P,U1,9*%
%TO.N,Net-(U1-Pad9)*%
X110490000Y-50292000D03*
%TO.P,U1,8*%
%TO.N,Net-(U1-Pad8)*%
X110490000Y-47752000D03*
%TO.P,U1,7*%
%TO.N,Net-(U1-Pad7)*%
X120650000Y-47752000D03*
%TO.P,U1,6*%
%TO.N,PIN_0*%
X120650000Y-50292000D03*
%TO.P,U1,5*%
%TO.N,Net-(U1-Pad5)*%
X120650000Y-52832000D03*
%TO.P,U1,4*%
%TO.N,Net-(U1-Pad4)*%
X120650000Y-55372000D03*
%TO.P,U1,3*%
%TO.N,Net-(U1-Pad13)*%
X120650000Y-57912000D03*
%TO.P,U1,2*%
%TO.N,Net-(U1-Pad2)*%
X120650000Y-60452000D03*
%TO.P,U1,1*%
%TO.N,Net-(U1-Pad1)*%
X120650000Y-62992000D03*
%TD*%
D11*
%TO.P,R3,2*%
%TO.N,Net-(R3-Pad2)*%
X183642000Y-45974000D03*
D12*
%TO.P,R3,1*%
%TO.N,GND*%
X183642000Y-66294000D03*
%TD*%
D11*
%TO.P,R2,2*%
%TO.N,GND*%
X195580000Y-45212000D03*
D12*
%TO.P,R2,1*%
%TO.N,Net-(R1-Pad1)*%
X195580000Y-65532000D03*
%TD*%
D11*
%TO.P,R1,2*%
%TO.N,GND*%
X173482000Y-45974000D03*
D12*
%TO.P,R1,1*%
%TO.N,Net-(R1-Pad1)*%
X173482000Y-66294000D03*
%TD*%
D13*
%TO.N,Net-(R3-Pad2)*%
X140462000Y-55880000D03*
%TD*%
D14*
%TO.N,GND*%
X184374001Y-44448999D02*
X175007001Y-44448999D01*
X185167001Y-45241999D02*
X184374001Y-44448999D01*
X175007001Y-44448999D02*
X173482000Y-45974000D01*
X185167001Y-64768999D02*
X185167001Y-45241999D01*
X183642000Y-66294000D02*
X185167001Y-64768999D01*
X195580000Y-54356000D02*
X183642000Y-66294000D01*
X195580000Y-45212000D02*
X195580000Y-54356000D01*
%TO.N,Net-(R1-Pad1)*%
X194310000Y-65532000D02*
X195580000Y-65532000D01*
X192024000Y-67818000D02*
X194310000Y-65532000D01*
X187960000Y-67818000D02*
X192024000Y-67818000D01*
X187960000Y-102616000D02*
X172720000Y-102616000D01*
X199898000Y-94488000D02*
X196088000Y-94488000D01*
X172720000Y-102616000D02*
X167894000Y-107442000D01*
X125984000Y-107188000D02*
X132588000Y-107188000D01*
X177292000Y-87122000D02*
X192532000Y-87122000D01*
X121920000Y-92710000D02*
X121920000Y-83058000D01*
X192532000Y-87122000D02*
X199898000Y-94488000D01*
X176530000Y-86360000D02*
X177292000Y-87122000D01*
X151892000Y-100076000D02*
X151892000Y-89916000D01*
X162306000Y-76710002D02*
X162306000Y-99060000D01*
X153414999Y-67819001D02*
X162306000Y-76710002D01*
X196088000Y-94488000D02*
X187960000Y-102616000D01*
X159258000Y-107442000D02*
X151892000Y-100076000D01*
X176530000Y-84836000D02*
X176530000Y-86360000D01*
X175007001Y-67819001D02*
X153414999Y-67819001D01*
X162306000Y-99060000D02*
X176530000Y-84836000D01*
X173482000Y-66294000D02*
X175007001Y-67819001D01*
X167894000Y-107442000D02*
X159258000Y-107442000D01*
X151892000Y-89916000D02*
X122174000Y-89916000D01*
X122174000Y-89916000D02*
X122174000Y-92456000D01*
X114554000Y-95758000D02*
X125984000Y-107188000D01*
X122174000Y-92456000D02*
X121920000Y-92710000D01*
X121920000Y-83058000D02*
X114554000Y-90424000D01*
X114554000Y-90424000D02*
X114554000Y-95758000D01*
X132588000Y-107188000D02*
X127000000Y-101600000D01*
X127000000Y-101600000D02*
X143510000Y-101600000D01*
X143510000Y-101600000D02*
X145796000Y-103886000D01*
X145796000Y-103886000D02*
X151892000Y-103886000D01*
X151892000Y-103886000D02*
X187960000Y-67818000D01*
%TO.N,Net-(R3-Pad2)*%
X174426999Y-55189001D02*
X183642000Y-45974000D01*
X141152999Y-55189001D02*
X174426999Y-55189001D01*
X140462000Y-55880000D02*
X141152999Y-55189001D01*
%TO.N,Net-(U1-Pad4)*%
X125547001Y-50474999D02*
X120650000Y-55372000D01*
X144708999Y-50474999D02*
X125547001Y-50474999D01*
X145796000Y-51562000D02*
X144708999Y-50474999D01*
%TO.N,Net-(U2-Pad11)*%
X135636000Y-56642000D02*
X135636000Y-54102000D01*
%TD*%
D15*
%TO.N,GND*%
X217526001Y-40021410D02*
X217526001Y-50901973D01*
X216029900Y-111387178D01*
X114594382Y-118313392D01*
X100968963Y-119170522D01*
X101509649Y-90424000D01*
X113790324Y-90424000D01*
X113794000Y-90461323D01*
X113794001Y-95720668D01*
X113790324Y-95758000D01*
X113804998Y-95906985D01*
X113848454Y-96050246D01*
X113919026Y-96182276D01*
X113990201Y-96269002D01*
X114014000Y-96298001D01*
X114042998Y-96321799D01*
X125420201Y-107699003D01*
X125443999Y-107728001D01*
X125472997Y-107751799D01*
X125559723Y-107822974D01*
X125640735Y-107866276D01*
X125691753Y-107893546D01*
X125835014Y-107937003D01*
X125946667Y-107948000D01*
X125946677Y-107948000D01*
X125983999Y-107951676D01*
X126021322Y-107948000D01*
X132550676Y-107948000D01*
X132587999Y-107951676D01*
X132625322Y-107948000D01*
X132625333Y-107948000D01*
X132736986Y-107937003D01*
X132880247Y-107893546D01*
X133012276Y-107822974D01*
X133128001Y-107728001D01*
X133222974Y-107612276D01*
X133293546Y-107480247D01*
X133337003Y-107336986D01*
X133351677Y-107188000D01*
X133337003Y-107039014D01*
X133293546Y-106895753D01*
X133222974Y-106763724D01*
X133164930Y-106692997D01*
X133151799Y-106676996D01*
X133151795Y-106676992D01*
X133128001Y-106647999D01*
X133099008Y-106624205D01*
X128834801Y-102360000D01*
X143195199Y-102360000D01*
X145232201Y-104397003D01*
X145255999Y-104426001D01*
X145371724Y-104520974D01*
X145503753Y-104591546D01*
X145647014Y-104635003D01*
X145758667Y-104646000D01*
X145758676Y-104646000D01*
X145795999Y-104649676D01*
X145833322Y-104646000D01*
X151854678Y-104646000D01*
X151892000Y-104649676D01*
X151929322Y-104646000D01*
X151929333Y-104646000D01*
X152040986Y-104635003D01*
X152184247Y-104591546D01*
X152316276Y-104520974D01*
X152432001Y-104426001D01*
X152455804Y-104396997D01*
X153797000Y-103055801D01*
X158694201Y-107953003D01*
X158717999Y-107982001D01*
X158746997Y-108005799D01*
X158833723Y-108076974D01*
X158965753Y-108147546D01*
X159109014Y-108191003D01*
X159220667Y-108202000D01*
X159220676Y-108202000D01*
X159257999Y-108205676D01*
X159295322Y-108202000D01*
X167856678Y-108202000D01*
X167894000Y-108205676D01*
X167931322Y-108202000D01*
X167931333Y-108202000D01*
X168042986Y-108191003D01*
X168186247Y-108147546D01*
X168318276Y-108076974D01*
X168434001Y-107982001D01*
X168457804Y-107952997D01*
X173034802Y-103376000D01*
X187922678Y-103376000D01*
X187960000Y-103379676D01*
X187997322Y-103376000D01*
X187997333Y-103376000D01*
X188108986Y-103365003D01*
X188252247Y-103321546D01*
X188384276Y-103250974D01*
X188500001Y-103156001D01*
X188523804Y-103126997D01*
X196402802Y-95248000D01*
X199860676Y-95248000D01*
X199897999Y-95251676D01*
X199935322Y-95248000D01*
X199935333Y-95248000D01*
X200046986Y-95237003D01*
X200190247Y-95193546D01*
X200322276Y-95122974D01*
X200438001Y-95028001D01*
X200532974Y-94912276D01*
X200603546Y-94780247D01*
X200647003Y-94636986D01*
X200661677Y-94488000D01*
X200647003Y-94339014D01*
X200603546Y-94195753D01*
X200532974Y-94063723D01*
X200461799Y-93976997D01*
X200438001Y-93947999D01*
X200409003Y-93924201D01*
X193095804Y-86611003D01*
X193072001Y-86581999D01*
X192956276Y-86487026D01*
X192824247Y-86416454D01*
X192680986Y-86372997D01*
X192569333Y-86362000D01*
X192569322Y-86362000D01*
X192532000Y-86358324D01*
X192494678Y-86362000D01*
X177606802Y-86362000D01*
X177290000Y-86045199D01*
X177290000Y-84873325D01*
X177293676Y-84836000D01*
X177290000Y-84798675D01*
X177290000Y-84798667D01*
X177279003Y-84687014D01*
X177235546Y-84543753D01*
X177164974Y-84411724D01*
X177070001Y-84295999D01*
X177041003Y-84272201D01*
X176954276Y-84201026D01*
X176822246Y-84130454D01*
X176678986Y-84086997D01*
X176665628Y-84085681D01*
X176530000Y-84072323D01*
X176381014Y-84086997D01*
X176237753Y-84130454D01*
X176105724Y-84201026D01*
X175989999Y-84295999D01*
X175966202Y-84324996D01*
X163066000Y-97225199D01*
X163066000Y-93786801D01*
X188274802Y-68578000D01*
X191986678Y-68578000D01*
X192024000Y-68581676D01*
X192061322Y-68578000D01*
X192061333Y-68578000D01*
X192172986Y-68567003D01*
X192316247Y-68523546D01*
X192448276Y-68452974D01*
X192564001Y-68358001D01*
X192587804Y-68328997D01*
X194184860Y-66731942D01*
X194410256Y-66957338D01*
X194710801Y-67158156D01*
X195044750Y-67296482D01*
X195399268Y-67367000D01*
X195760732Y-67367000D01*
X196115250Y-67296482D01*
X196449199Y-67158156D01*
X196749744Y-66957338D01*
X197005338Y-66701744D01*
X197206156Y-66401199D01*
X197344482Y-66067250D01*
X197415000Y-65712732D01*
X197415000Y-65351268D01*
X197344482Y-64996750D01*
X197206156Y-64662801D01*
X197005338Y-64362256D01*
X196749744Y-64106662D01*
X196449199Y-63905844D01*
X196115250Y-63767518D01*
X195760732Y-63697000D01*
X195399268Y-63697000D01*
X195044750Y-63767518D01*
X194710801Y-63905844D01*
X194410256Y-64106662D01*
X194154662Y-64362256D01*
X193953844Y-64662801D01*
X193841942Y-64932957D01*
X193769999Y-64991999D01*
X193746201Y-65020997D01*
X191709199Y-67058000D01*
X187997325Y-67058000D01*
X187960000Y-67054324D01*
X187922675Y-67058000D01*
X187922667Y-67058000D01*
X187811014Y-67068997D01*
X187667753Y-67112454D01*
X187535724Y-67183026D01*
X187419999Y-67277999D01*
X187396201Y-67306997D01*
X163066000Y-91637199D01*
X163066000Y-76747324D01*
X163069676Y-76710001D01*
X163066000Y-76672678D01*
X163066000Y-76672669D01*
X163055003Y-76561016D01*
X163011546Y-76417755D01*
X162940974Y-76285726D01*
X162846001Y-76170001D01*
X162817004Y-76146204D01*
X155249800Y-68579001D01*
X174969677Y-68579001D01*
X175007000Y-68582677D01*
X175044323Y-68579001D01*
X175044334Y-68579001D01*
X175155987Y-68568004D01*
X175299248Y-68524547D01*
X175431277Y-68453975D01*
X175547002Y-68359002D01*
X175641975Y-68243277D01*
X175712547Y-68111248D01*
X175756004Y-67967987D01*
X175770678Y-67819001D01*
X175756004Y-67670015D01*
X175726266Y-67571980D01*
X182543626Y-67571980D01*
X182663514Y-67856836D01*
X182987210Y-68017699D01*
X183336069Y-68112322D01*
X183696684Y-68137067D01*
X184055198Y-68090985D01*
X184397833Y-67975846D01*
X184620486Y-67856836D01*
X184740374Y-67571980D01*
X183642000Y-66473605D01*
X182543626Y-67571980D01*
X175726266Y-67571980D01*
X175712547Y-67526754D01*
X175678867Y-67463744D01*
X175641975Y-67394724D01*
X175570800Y-67307998D01*
X175547002Y-67279000D01*
X175518004Y-67255202D01*
X175201250Y-66938449D01*
X175246482Y-66829250D01*
X175317000Y-66474732D01*
X175317000Y-66348684D01*
X181798933Y-66348684D01*
X181845015Y-66707198D01*
X181960154Y-67049833D01*
X182079164Y-67272486D01*
X182364020Y-67392374D01*
X183462395Y-66294000D01*
X183821605Y-66294000D01*
X184919980Y-67392374D01*
X185204836Y-67272486D01*
X185365699Y-66948790D01*
X185460322Y-66599931D01*
X185485067Y-66239316D01*
X185438985Y-65880802D01*
X185323846Y-65538167D01*
X185204836Y-65315514D01*
X184919980Y-65195626D01*
X183821605Y-66294000D01*
X183462395Y-66294000D01*
X182364020Y-65195626D01*
X182079164Y-65315514D01*
X181918301Y-65639210D01*
X181823678Y-65988069D01*
X181798933Y-66348684D01*
X175317000Y-66348684D01*
X175317000Y-66113268D01*
X175246482Y-65758750D01*
X175108156Y-65424801D01*
X174907338Y-65124256D01*
X174799102Y-65016020D01*
X182543626Y-65016020D01*
X183642000Y-66114395D01*
X184740374Y-65016020D01*
X184620486Y-64731164D01*
X184296790Y-64570301D01*
X183947931Y-64475678D01*
X183587316Y-64450933D01*
X183228802Y-64497015D01*
X182886167Y-64612154D01*
X182663514Y-64731164D01*
X182543626Y-65016020D01*
X174799102Y-65016020D01*
X174651744Y-64868662D01*
X174351199Y-64667844D01*
X174017250Y-64529518D01*
X173662732Y-64459000D01*
X173301268Y-64459000D01*
X172946750Y-64529518D01*
X172612801Y-64667844D01*
X172312256Y-64868662D01*
X172056662Y-65124256D01*
X171855844Y-65424801D01*
X171717518Y-65758750D01*
X171647000Y-66113268D01*
X171647000Y-66474732D01*
X171717518Y-66829250D01*
X171812684Y-67059001D01*
X153452321Y-67059001D01*
X153414999Y-67055325D01*
X153377677Y-67059001D01*
X153377666Y-67059001D01*
X153266013Y-67069998D01*
X153122752Y-67113455D01*
X152990723Y-67184027D01*
X152874998Y-67279000D01*
X152780025Y-67394725D01*
X152709453Y-67526754D01*
X152665996Y-67670015D01*
X152651322Y-67819001D01*
X152665996Y-67967987D01*
X152709453Y-68111248D01*
X152780025Y-68243277D01*
X152874998Y-68359002D01*
X152904002Y-68382805D01*
X161546000Y-77024804D01*
X161546001Y-93157198D01*
X153797000Y-100906199D01*
X152652000Y-99761199D01*
X152652000Y-89953333D01*
X152655677Y-89916000D01*
X152641003Y-89767014D01*
X152597546Y-89623753D01*
X152526974Y-89491724D01*
X152432001Y-89375999D01*
X152316276Y-89281026D01*
X152184247Y-89210454D01*
X152040986Y-89166997D01*
X151929333Y-89156000D01*
X151892000Y-89152323D01*
X151854667Y-89156000D01*
X122680000Y-89156000D01*
X122680000Y-83095324D01*
X122683676Y-83058001D01*
X122680000Y-83020678D01*
X122680000Y-83020667D01*
X122669003Y-82909014D01*
X122625546Y-82765753D01*
X122554974Y-82633724D01*
X122460001Y-82517999D01*
X122344276Y-82423026D01*
X122212247Y-82352454D01*
X122068986Y-82308997D01*
X121920000Y-82294323D01*
X121771015Y-82308997D01*
X121690132Y-82333532D01*
X121627753Y-82352454D01*
X121495723Y-82423026D01*
X121408997Y-82494201D01*
X121408993Y-82494205D01*
X121380000Y-82517999D01*
X121356206Y-82546992D01*
X114043003Y-89860196D01*
X114013999Y-89883999D01*
X113987737Y-89916000D01*
X113919026Y-89999724D01*
X113848455Y-90131753D01*
X113848454Y-90131754D01*
X113804997Y-90275015D01*
X113794000Y-90386668D01*
X113794000Y-90386678D01*
X113790324Y-90424000D01*
X101509649Y-90424000D01*
X102314845Y-47614408D01*
X109093000Y-47614408D01*
X109093000Y-47889592D01*
X109146686Y-48159490D01*
X109251995Y-48413727D01*
X109404880Y-48642535D01*
X109599465Y-48837120D01*
X109828273Y-48990005D01*
X109905515Y-49022000D01*
X109828273Y-49053995D01*
X109599465Y-49206880D01*
X109404880Y-49401465D01*
X109251995Y-49630273D01*
X109146686Y-49884510D01*
X109093000Y-50154408D01*
X109093000Y-50429592D01*
X109146686Y-50699490D01*
X109251995Y-50953727D01*
X109404880Y-51182535D01*
X109599465Y-51377120D01*
X109828273Y-51530005D01*
X109905515Y-51562000D01*
X109828273Y-51593995D01*
X109599465Y-51746880D01*
X109404880Y-51941465D01*
X109251995Y-52170273D01*
X109146686Y-52424510D01*
X109093000Y-52694408D01*
X109093000Y-52969592D01*
X109146686Y-53239490D01*
X109251995Y-53493727D01*
X109404880Y-53722535D01*
X109599465Y-53917120D01*
X109828273Y-54070005D01*
X109905515Y-54102000D01*
X109828273Y-54133995D01*
X109599465Y-54286880D01*
X109404880Y-54481465D01*
X109251995Y-54710273D01*
X109146686Y-54964510D01*
X109093000Y-55234408D01*
X109093000Y-55509592D01*
X109146686Y-55779490D01*
X109251995Y-56033727D01*
X109404880Y-56262535D01*
X109599465Y-56457120D01*
X109828273Y-56610005D01*
X109905515Y-56642000D01*
X109828273Y-56673995D01*
X109599465Y-56826880D01*
X109404880Y-57021465D01*
X109251995Y-57250273D01*
X109146686Y-57504510D01*
X109093000Y-57774408D01*
X109093000Y-58049592D01*
X109146686Y-58319490D01*
X109251995Y-58573727D01*
X109404880Y-58802535D01*
X109599465Y-58997120D01*
X109828273Y-59150005D01*
X109905515Y-59182000D01*
X109828273Y-59213995D01*
X109599465Y-59366880D01*
X109404880Y-59561465D01*
X109251995Y-59790273D01*
X109146686Y-60044510D01*
X109093000Y-60314408D01*
X109093000Y-60589592D01*
X109146686Y-60859490D01*
X109251995Y-61113727D01*
X109404880Y-61342535D01*
X109599465Y-61537120D01*
X109828273Y-61690005D01*
X110082510Y-61795314D01*
X110352408Y-61849000D01*
X110627592Y-61849000D01*
X110897490Y-61795314D01*
X111151727Y-61690005D01*
X111380535Y-61537120D01*
X111575120Y-61342535D01*
X111728005Y-61113727D01*
X111833314Y-60859490D01*
X111887000Y-60589592D01*
X111887000Y-60314408D01*
X111833314Y-60044510D01*
X111728005Y-59790273D01*
X111575120Y-59561465D01*
X111380535Y-59366880D01*
X111151727Y-59213995D01*
X111074485Y-59182000D01*
X111151727Y-59150005D01*
X111380535Y-58997120D01*
X111575120Y-58802535D01*
X111728005Y-58573727D01*
X111833314Y-58319490D01*
X111887000Y-58049592D01*
X111887000Y-57774408D01*
X111833314Y-57504510D01*
X111728005Y-57250273D01*
X111575120Y-57021465D01*
X111380535Y-56826880D01*
X111151727Y-56673995D01*
X111074485Y-56642000D01*
X111151727Y-56610005D01*
X111380535Y-56457120D01*
X111575120Y-56262535D01*
X111728005Y-56033727D01*
X111833314Y-55779490D01*
X111887000Y-55509592D01*
X111887000Y-55234408D01*
X111833314Y-54964510D01*
X111728005Y-54710273D01*
X111575120Y-54481465D01*
X111380535Y-54286880D01*
X111151727Y-54133995D01*
X111074485Y-54102000D01*
X111151727Y-54070005D01*
X111380535Y-53917120D01*
X111575120Y-53722535D01*
X111728005Y-53493727D01*
X111833314Y-53239490D01*
X111887000Y-52969592D01*
X111887000Y-52694408D01*
X111833314Y-52424510D01*
X111728005Y-52170273D01*
X111575120Y-51941465D01*
X111380535Y-51746880D01*
X111151727Y-51593995D01*
X111074485Y-51562000D01*
X111151727Y-51530005D01*
X111380535Y-51377120D01*
X111575120Y-51182535D01*
X111728005Y-50953727D01*
X111833314Y-50699490D01*
X111887000Y-50429592D01*
X111887000Y-50154408D01*
X111833314Y-49884510D01*
X111728005Y-49630273D01*
X111575120Y-49401465D01*
X111380535Y-49206880D01*
X111151727Y-49053995D01*
X111074485Y-49022000D01*
X111151727Y-48990005D01*
X111380535Y-48837120D01*
X111575120Y-48642535D01*
X111728005Y-48413727D01*
X111833314Y-48159490D01*
X111887000Y-47889592D01*
X111887000Y-47614408D01*
X119253000Y-47614408D01*
X119253000Y-47889592D01*
X119306686Y-48159490D01*
X119411995Y-48413727D01*
X119564880Y-48642535D01*
X119759465Y-48837120D01*
X119988273Y-48990005D01*
X120065515Y-49022000D01*
X119988273Y-49053995D01*
X119759465Y-49206880D01*
X119564880Y-49401465D01*
X119411995Y-49630273D01*
X119306686Y-49884510D01*
X119253000Y-50154408D01*
X119253000Y-50429592D01*
X119306686Y-50699490D01*
X119411995Y-50953727D01*
X119564880Y-51182535D01*
X119759465Y-51377120D01*
X119988273Y-51530005D01*
X120065515Y-51562000D01*
X119988273Y-51593995D01*
X119759465Y-51746880D01*
X119564880Y-51941465D01*
X119411995Y-52170273D01*
X119306686Y-52424510D01*
X119253000Y-52694408D01*
X119253000Y-52969592D01*
X119306686Y-53239490D01*
X119411995Y-53493727D01*
X119564880Y-53722535D01*
X119759465Y-53917120D01*
X119988273Y-54070005D01*
X120065515Y-54102000D01*
X119988273Y-54133995D01*
X119759465Y-54286880D01*
X119564880Y-54481465D01*
X119411995Y-54710273D01*
X119306686Y-54964510D01*
X119253000Y-55234408D01*
X119253000Y-55509592D01*
X119306686Y-55779490D01*
X119411995Y-56033727D01*
X119564880Y-56262535D01*
X119759465Y-56457120D01*
X119988273Y-56610005D01*
X120065515Y-56642000D01*
X119988273Y-56673995D01*
X119759465Y-56826880D01*
X119564880Y-57021465D01*
X119411995Y-57250273D01*
X119306686Y-57504510D01*
X119253000Y-57774408D01*
X119253000Y-58049592D01*
X119306686Y-58319490D01*
X119411995Y-58573727D01*
X119564880Y-58802535D01*
X119759465Y-58997120D01*
X119988273Y-59150005D01*
X120065515Y-59182000D01*
X119988273Y-59213995D01*
X119759465Y-59366880D01*
X119564880Y-59561465D01*
X119411995Y-59790273D01*
X119306686Y-60044510D01*
X119253000Y-60314408D01*
X119253000Y-60589592D01*
X119306686Y-60859490D01*
X119411995Y-61113727D01*
X119564880Y-61342535D01*
X119759465Y-61537120D01*
X119988273Y-61690005D01*
X120065515Y-61722000D01*
X119988273Y-61753995D01*
X119759465Y-61906880D01*
X119564880Y-62101465D01*
X119411995Y-62330273D01*
X119306686Y-62584510D01*
X119253000Y-62854408D01*
X119253000Y-63129592D01*
X119306686Y-63399490D01*
X119411995Y-63653727D01*
X119564880Y-63882535D01*
X119759465Y-64077120D01*
X119988273Y-64230005D01*
X120242510Y-64335314D01*
X120512408Y-64389000D01*
X120787592Y-64389000D01*
X121057490Y-64335314D01*
X121311727Y-64230005D01*
X121540535Y-64077120D01*
X121735120Y-63882535D01*
X121888005Y-63653727D01*
X121993314Y-63399490D01*
X122047000Y-63129592D01*
X122047000Y-62854408D01*
X121993314Y-62584510D01*
X121888005Y-62330273D01*
X121735120Y-62101465D01*
X121540535Y-61906880D01*
X121311727Y-61753995D01*
X121234485Y-61722000D01*
X121311727Y-61690005D01*
X121540535Y-61537120D01*
X121735120Y-61342535D01*
X121888005Y-61113727D01*
X121993314Y-60859490D01*
X122047000Y-60589592D01*
X122047000Y-60314408D01*
X121993314Y-60044510D01*
X121888005Y-59790273D01*
X121735120Y-59561465D01*
X121540535Y-59366880D01*
X121311727Y-59213995D01*
X121234485Y-59182000D01*
X121311727Y-59150005D01*
X121540535Y-58997120D01*
X121735120Y-58802535D01*
X121888005Y-58573727D01*
X121993314Y-58319490D01*
X122047000Y-58049592D01*
X122047000Y-57774408D01*
X121993314Y-57504510D01*
X121888005Y-57250273D01*
X121735120Y-57021465D01*
X121540535Y-56826880D01*
X121311727Y-56673995D01*
X121234485Y-56642000D01*
X121311727Y-56610005D01*
X121540535Y-56457120D01*
X121735120Y-56262535D01*
X121888005Y-56033727D01*
X121993314Y-55779490D01*
X122047000Y-55509592D01*
X122047000Y-55234408D01*
X122016372Y-55080429D01*
X125861803Y-51234999D01*
X134276676Y-51234999D01*
X134239000Y-51424408D01*
X134239000Y-51699592D01*
X134292686Y-51969490D01*
X134397995Y-52223727D01*
X134550880Y-52452535D01*
X134745465Y-52647120D01*
X134974273Y-52800005D01*
X135051515Y-52832000D01*
X134974273Y-52863995D01*
X134745465Y-53016880D01*
X134550880Y-53211465D01*
X134397995Y-53440273D01*
X134292686Y-53694510D01*
X134239000Y-53964408D01*
X134239000Y-54239592D01*
X134292686Y-54509490D01*
X134397995Y-54763727D01*
X134550880Y-54992535D01*
X134745465Y-55187120D01*
X134876001Y-55274341D01*
X134876000Y-55469659D01*
X134745465Y-55556880D01*
X134550880Y-55751465D01*
X134397995Y-55980273D01*
X134292686Y-56234510D01*
X134239000Y-56504408D01*
X134239000Y-56779592D01*
X134292686Y-57049490D01*
X134397995Y-57303727D01*
X134550880Y-57532535D01*
X134745465Y-57727120D01*
X134974273Y-57880005D01*
X135051515Y-57912000D01*
X134974273Y-57943995D01*
X134745465Y-58096880D01*
X134550880Y-58291465D01*
X134397995Y-58520273D01*
X134292686Y-58774510D01*
X134239000Y-59044408D01*
X134239000Y-59319592D01*
X134292686Y-59589490D01*
X134397995Y-59843727D01*
X134550880Y-60072535D01*
X134745465Y-60267120D01*
X134974273Y-60420005D01*
X135228510Y-60525314D01*
X135498408Y-60579000D01*
X135773592Y-60579000D01*
X136043490Y-60525314D01*
X136297727Y-60420005D01*
X136526535Y-60267120D01*
X136721120Y-60072535D01*
X136874005Y-59843727D01*
X136979314Y-59589490D01*
X137033000Y-59319592D01*
X137033000Y-59044408D01*
X136979314Y-58774510D01*
X136874005Y-58520273D01*
X136721120Y-58291465D01*
X136526535Y-58096880D01*
X136297727Y-57943995D01*
X136220485Y-57912000D01*
X136297727Y-57880005D01*
X136526535Y-57727120D01*
X136721120Y-57532535D01*
X136874005Y-57303727D01*
X136979314Y-57049490D01*
X137033000Y-56779592D01*
X137033000Y-56504408D01*
X136979314Y-56234510D01*
X136874005Y-55980273D01*
X136721120Y-55751465D01*
X136526535Y-55556880D01*
X136396000Y-55469659D01*
X136396000Y-55274341D01*
X136526535Y-55187120D01*
X136721120Y-54992535D01*
X136874005Y-54763727D01*
X136979314Y-54509490D01*
X137033000Y-54239592D01*
X137033000Y-53964408D01*
X136979314Y-53694510D01*
X136874005Y-53440273D01*
X136721120Y-53211465D01*
X136526535Y-53016880D01*
X136297727Y-52863995D01*
X136220485Y-52832000D01*
X136297727Y-52800005D01*
X136526535Y-52647120D01*
X136721120Y-52452535D01*
X136874005Y-52223727D01*
X136979314Y-51969490D01*
X137033000Y-51699592D01*
X137033000Y-51424408D01*
X136995324Y-51234999D01*
X144394198Y-51234999D01*
X144429628Y-51270429D01*
X144399000Y-51424408D01*
X144399000Y-51699592D01*
X144452686Y-51969490D01*
X144557995Y-52223727D01*
X144710880Y-52452535D01*
X144905465Y-52647120D01*
X145134273Y-52800005D01*
X145211515Y-52832000D01*
X145134273Y-52863995D01*
X144905465Y-53016880D01*
X144710880Y-53211465D01*
X144557995Y-53440273D01*
X144452686Y-53694510D01*
X144399000Y-53964408D01*
X144399000Y-54239592D01*
X144436676Y-54429001D01*
X141190321Y-54429001D01*
X141152998Y-54425325D01*
X141115675Y-54429001D01*
X141115666Y-54429001D01*
X141004013Y-54439998D01*
X140867312Y-54481465D01*
X140860752Y-54483455D01*
X140728722Y-54554027D01*
X140645082Y-54622669D01*
X140612998Y-54649000D01*
X140589200Y-54677999D01*
X140422198Y-54845000D01*
X140360061Y-54845000D01*
X140160102Y-54884774D01*
X139971744Y-54962795D01*
X139802226Y-55076063D01*
X139658063Y-55220226D01*
X139544795Y-55389744D01*
X139466774Y-55578102D01*
X139427000Y-55778061D01*
X139427000Y-55981939D01*
X139466774Y-56181898D01*
X139544795Y-56370256D01*
X139658063Y-56539774D01*
X139802226Y-56683937D01*
X139971744Y-56797205D01*
X140160102Y-56875226D01*
X140360061Y-56915000D01*
X140563939Y-56915000D01*
X140763898Y-56875226D01*
X140952256Y-56797205D01*
X141121774Y-56683937D01*
X141265937Y-56539774D01*
X141379205Y-56370256D01*
X141457226Y-56181898D01*
X141497000Y-55981939D01*
X141497000Y-55949001D01*
X144578890Y-55949001D01*
X144557995Y-55980273D01*
X144452686Y-56234510D01*
X144399000Y-56504408D01*
X144399000Y-56779592D01*
X144452686Y-57049490D01*
X144557995Y-57303727D01*
X144710880Y-57532535D01*
X144905465Y-57727120D01*
X145134273Y-57880005D01*
X145211515Y-57912000D01*
X145134273Y-57943995D01*
X144905465Y-58096880D01*
X144710880Y-58291465D01*
X144557995Y-58520273D01*
X144452686Y-58774510D01*
X144399000Y-59044408D01*
X144399000Y-59319592D01*
X144452686Y-59589490D01*
X144557995Y-59843727D01*
X144710880Y-60072535D01*
X144905465Y-60267120D01*
X145134273Y-60420005D01*
X145211515Y-60452000D01*
X145134273Y-60483995D01*
X144905465Y-60636880D01*
X144710880Y-60831465D01*
X144557995Y-61060273D01*
X144452686Y-61314510D01*
X144399000Y-61584408D01*
X144399000Y-61859592D01*
X144452686Y-62129490D01*
X144557995Y-62383727D01*
X144710880Y-62612535D01*
X144905465Y-62807120D01*
X145134273Y-62960005D01*
X145388510Y-63065314D01*
X145658408Y-63119000D01*
X145933592Y-63119000D01*
X146203490Y-63065314D01*
X146457727Y-62960005D01*
X146686535Y-62807120D01*
X146881120Y-62612535D01*
X147034005Y-62383727D01*
X147139314Y-62129490D01*
X147193000Y-61859592D01*
X147193000Y-61584408D01*
X147139314Y-61314510D01*
X147034005Y-61060273D01*
X146881120Y-60831465D01*
X146686535Y-60636880D01*
X146457727Y-60483995D01*
X146380485Y-60452000D01*
X146457727Y-60420005D01*
X146686535Y-60267120D01*
X146881120Y-60072535D01*
X147034005Y-59843727D01*
X147139314Y-59589490D01*
X147193000Y-59319592D01*
X147193000Y-59044408D01*
X147139314Y-58774510D01*
X147034005Y-58520273D01*
X146881120Y-58291465D01*
X146686535Y-58096880D01*
X146457727Y-57943995D01*
X146380485Y-57912000D01*
X146457727Y-57880005D01*
X146686535Y-57727120D01*
X146881120Y-57532535D01*
X147034005Y-57303727D01*
X147139314Y-57049490D01*
X147193000Y-56779592D01*
X147193000Y-56504408D01*
X147139314Y-56234510D01*
X147034005Y-55980273D01*
X147013110Y-55949001D01*
X174389677Y-55949001D01*
X174426999Y-55952677D01*
X174464321Y-55949001D01*
X174464332Y-55949001D01*
X174575985Y-55938004D01*
X174719246Y-55894547D01*
X174851275Y-55823975D01*
X174967000Y-55729002D01*
X174990803Y-55699998D01*
X182997552Y-47693251D01*
X183106750Y-47738482D01*
X183461268Y-47809000D01*
X183822732Y-47809000D01*
X184177250Y-47738482D01*
X184511199Y-47600156D01*
X184811744Y-47399338D01*
X185067338Y-47143744D01*
X185268156Y-46843199D01*
X185406482Y-46509250D01*
X185477000Y-46154732D01*
X185477000Y-45793268D01*
X185443292Y-45623806D01*
X193791801Y-45623806D01*
X193906500Y-45964754D01*
X194085511Y-46276774D01*
X194321954Y-46547875D01*
X194606743Y-46767639D01*
X194928934Y-46927621D01*
X195168195Y-47000195D01*
X195453000Y-46883432D01*
X195453000Y-45339000D01*
X195707000Y-45339000D01*
X195707000Y-46883432D01*
X195991805Y-47000195D01*
X196231066Y-46927621D01*
X196553257Y-46767639D01*
X196838046Y-46547875D01*
X197074489Y-46276774D01*
X197253500Y-45964754D01*
X197368199Y-45623806D01*
X197251854Y-45339000D01*
X195707000Y-45339000D01*
X195453000Y-45339000D01*
X193908146Y-45339000D01*
X193791801Y-45623806D01*
X185443292Y-45623806D01*
X185406482Y-45438750D01*
X185268156Y-45104801D01*
X185067338Y-44804256D01*
X185063276Y-44800194D01*
X193791801Y-44800194D01*
X193908146Y-45085000D01*
X195453000Y-45085000D01*
X195453000Y-43540568D01*
X195707000Y-43540568D01*
X195707000Y-45085000D01*
X197251854Y-45085000D01*
X197368199Y-44800194D01*
X197253500Y-44459246D01*
X197074489Y-44147226D01*
X196838046Y-43876125D01*
X196553257Y-43656361D01*
X196231066Y-43496379D01*
X195991805Y-43423805D01*
X195707000Y-43540568D01*
X195453000Y-43540568D01*
X195168195Y-43423805D01*
X194928934Y-43496379D01*
X194606743Y-43656361D01*
X194321954Y-43876125D01*
X194085511Y-44147226D01*
X193906500Y-44459246D01*
X193791801Y-44800194D01*
X185063276Y-44800194D01*
X184811744Y-44548662D01*
X184511199Y-44347844D01*
X184177250Y-44209518D01*
X183822732Y-44139000D01*
X183461268Y-44139000D01*
X183106750Y-44209518D01*
X182772801Y-44347844D01*
X182472256Y-44548662D01*
X182216662Y-44804256D01*
X182015844Y-45104801D01*
X181877518Y-45438750D01*
X181807000Y-45793268D01*
X181807000Y-46154732D01*
X181877518Y-46509250D01*
X181922749Y-46618448D01*
X174112198Y-54429001D01*
X147155324Y-54429001D01*
X147193000Y-54239592D01*
X147193000Y-53964408D01*
X147139314Y-53694510D01*
X147034005Y-53440273D01*
X146881120Y-53211465D01*
X146686535Y-53016880D01*
X146457727Y-52863995D01*
X146380485Y-52832000D01*
X146457727Y-52800005D01*
X146686535Y-52647120D01*
X146881120Y-52452535D01*
X147034005Y-52223727D01*
X147139314Y-51969490D01*
X147193000Y-51699592D01*
X147193000Y-51424408D01*
X147139314Y-51154510D01*
X147034005Y-50900273D01*
X146881120Y-50671465D01*
X146686535Y-50476880D01*
X146457727Y-50323995D01*
X146380485Y-50292000D01*
X146457727Y-50260005D01*
X146686535Y-50107120D01*
X146881120Y-49912535D01*
X147034005Y-49683727D01*
X147139314Y-49429490D01*
X147193000Y-49159592D01*
X147193000Y-48884408D01*
X147139314Y-48614510D01*
X147034005Y-48360273D01*
X146881120Y-48131465D01*
X146686535Y-47936880D01*
X146457727Y-47783995D01*
X146380485Y-47752000D01*
X146457727Y-47720005D01*
X146686535Y-47567120D01*
X146881120Y-47372535D01*
X147034005Y-47143727D01*
X147139314Y-46889490D01*
X147193000Y-46619592D01*
X147193000Y-46385806D01*
X171693801Y-46385806D01*
X171808500Y-46726754D01*
X171987511Y-47038774D01*
X172223954Y-47309875D01*
X172508743Y-47529639D01*
X172830934Y-47689621D01*
X173070195Y-47762195D01*
X173355000Y-47645432D01*
X173355000Y-46101000D01*
X173609000Y-46101000D01*
X173609000Y-47645432D01*
X173893805Y-47762195D01*
X174133066Y-47689621D01*
X174455257Y-47529639D01*
X174740046Y-47309875D01*
X174976489Y-47038774D01*
X175155500Y-46726754D01*
X175270199Y-46385806D01*
X175153854Y-46101000D01*
X173609000Y-46101000D01*
X173355000Y-46101000D01*
X171810146Y-46101000D01*
X171693801Y-46385806D01*
X147193000Y-46385806D01*
X147193000Y-46344408D01*
X147139314Y-46074510D01*
X147034005Y-45820273D01*
X146881120Y-45591465D01*
X146851849Y-45562194D01*
X171693801Y-45562194D01*
X171810146Y-45847000D01*
X173355000Y-45847000D01*
X173355000Y-44302568D01*
X173609000Y-44302568D01*
X173609000Y-45847000D01*
X175153854Y-45847000D01*
X175270199Y-45562194D01*
X175155500Y-45221246D01*
X174976489Y-44909226D01*
X174740046Y-44638125D01*
X174455257Y-44418361D01*
X174133066Y-44258379D01*
X173893805Y-44185805D01*
X173609000Y-44302568D01*
X173355000Y-44302568D01*
X173070195Y-44185805D01*
X172830934Y-44258379D01*
X172508743Y-44418361D01*
X172223954Y-44638125D01*
X171987511Y-44909226D01*
X171808500Y-45221246D01*
X171693801Y-45562194D01*
X146851849Y-45562194D01*
X146686535Y-45396880D01*
X146457727Y-45243995D01*
X146203490Y-45138686D01*
X145933592Y-45085000D01*
X145658408Y-45085000D01*
X145388510Y-45138686D01*
X145134273Y-45243995D01*
X144905465Y-45396880D01*
X144710880Y-45591465D01*
X144557995Y-45820273D01*
X144452686Y-46074510D01*
X144399000Y-46344408D01*
X144399000Y-46619592D01*
X144452686Y-46889490D01*
X144557995Y-47143727D01*
X144710880Y-47372535D01*
X144905465Y-47567120D01*
X145134273Y-47720005D01*
X145211515Y-47752000D01*
X145134273Y-47783995D01*
X144905465Y-47936880D01*
X144710880Y-48131465D01*
X144557995Y-48360273D01*
X144452686Y-48614510D01*
X144399000Y-48884408D01*
X144399000Y-49159592D01*
X144452686Y-49429490D01*
X144557995Y-49683727D01*
X144578890Y-49714999D01*
X136853110Y-49714999D01*
X136874005Y-49683727D01*
X136979314Y-49429490D01*
X137033000Y-49159592D01*
X137033000Y-48884408D01*
X136979314Y-48614510D01*
X136874005Y-48360273D01*
X136721120Y-48131465D01*
X136526535Y-47936880D01*
X136297727Y-47783995D01*
X136220485Y-47752000D01*
X136297727Y-47720005D01*
X136526535Y-47567120D01*
X136721120Y-47372535D01*
X136874005Y-47143727D01*
X136979314Y-46889490D01*
X137033000Y-46619592D01*
X137033000Y-46344408D01*
X136979314Y-46074510D01*
X136874005Y-45820273D01*
X136721120Y-45591465D01*
X136526535Y-45396880D01*
X136297727Y-45243995D01*
X136043490Y-45138686D01*
X135773592Y-45085000D01*
X135498408Y-45085000D01*
X135228510Y-45138686D01*
X134974273Y-45243995D01*
X134745465Y-45396880D01*
X134550880Y-45591465D01*
X134397995Y-45820273D01*
X134292686Y-46074510D01*
X134239000Y-46344408D01*
X134239000Y-46619592D01*
X134292686Y-46889490D01*
X134397995Y-47143727D01*
X134550880Y-47372535D01*
X134745465Y-47567120D01*
X134974273Y-47720005D01*
X135051515Y-47752000D01*
X134974273Y-47783995D01*
X134745465Y-47936880D01*
X134550880Y-48131465D01*
X134397995Y-48360273D01*
X134292686Y-48614510D01*
X134239000Y-48884408D01*
X134239000Y-49159592D01*
X134292686Y-49429490D01*
X134397995Y-49683727D01*
X134418890Y-49714999D01*
X125584323Y-49714999D01*
X125547000Y-49711323D01*
X125509677Y-49714999D01*
X125509668Y-49714999D01*
X125398015Y-49725996D01*
X125254754Y-49769453D01*
X125122725Y-49840025D01*
X125007000Y-49934998D01*
X124983202Y-49963996D01*
X122047000Y-52900199D01*
X122047000Y-52694408D01*
X121993314Y-52424510D01*
X121888005Y-52170273D01*
X121735120Y-51941465D01*
X121540535Y-51746880D01*
X121311727Y-51593995D01*
X121234485Y-51562000D01*
X121311727Y-51530005D01*
X121540535Y-51377120D01*
X121735120Y-51182535D01*
X121888005Y-50953727D01*
X121993314Y-50699490D01*
X122047000Y-50429592D01*
X122047000Y-50154408D01*
X121993314Y-49884510D01*
X121888005Y-49630273D01*
X121735120Y-49401465D01*
X121540535Y-49206880D01*
X121311727Y-49053995D01*
X121234485Y-49022000D01*
X121311727Y-48990005D01*
X121540535Y-48837120D01*
X121735120Y-48642535D01*
X121888005Y-48413727D01*
X121993314Y-48159490D01*
X122047000Y-47889592D01*
X122047000Y-47614408D01*
X121993314Y-47344510D01*
X121888005Y-47090273D01*
X121735120Y-46861465D01*
X121540535Y-46666880D01*
X121311727Y-46513995D01*
X121057490Y-46408686D01*
X120787592Y-46355000D01*
X120512408Y-46355000D01*
X120242510Y-46408686D01*
X119988273Y-46513995D01*
X119759465Y-46666880D01*
X119564880Y-46861465D01*
X119411995Y-47090273D01*
X119306686Y-47344510D01*
X119253000Y-47614408D01*
X111887000Y-47614408D01*
X111833314Y-47344510D01*
X111728005Y-47090273D01*
X111575120Y-46861465D01*
X111380535Y-46666880D01*
X111151727Y-46513995D01*
X110897490Y-46408686D01*
X110627592Y-46355000D01*
X110352408Y-46355000D01*
X110082510Y-46408686D01*
X109828273Y-46513995D01*
X109599465Y-46666880D01*
X109404880Y-46861465D01*
X109251995Y-47090273D01*
X109146686Y-47344510D01*
X109093000Y-47614408D01*
X102314845Y-47614408D01*
X102396242Y-43286837D01*
X102499667Y-38514514D01*
X217526001Y-40021410D01*
%TA.AperFunction,Conductor*%
D16*
G36*
X217526001Y-40021410D02*
G01*
X217526001Y-50901973D01*
X216029900Y-111387178D01*
X114594382Y-118313392D01*
X100968963Y-119170522D01*
X101509649Y-90424000D01*
X113790324Y-90424000D01*
X113794000Y-90461323D01*
X113794001Y-95720668D01*
X113790324Y-95758000D01*
X113804998Y-95906985D01*
X113848454Y-96050246D01*
X113919026Y-96182276D01*
X113990201Y-96269002D01*
X114014000Y-96298001D01*
X114042998Y-96321799D01*
X125420201Y-107699003D01*
X125443999Y-107728001D01*
X125472997Y-107751799D01*
X125559723Y-107822974D01*
X125640735Y-107866276D01*
X125691753Y-107893546D01*
X125835014Y-107937003D01*
X125946667Y-107948000D01*
X125946677Y-107948000D01*
X125983999Y-107951676D01*
X126021322Y-107948000D01*
X132550676Y-107948000D01*
X132587999Y-107951676D01*
X132625322Y-107948000D01*
X132625333Y-107948000D01*
X132736986Y-107937003D01*
X132880247Y-107893546D01*
X133012276Y-107822974D01*
X133128001Y-107728001D01*
X133222974Y-107612276D01*
X133293546Y-107480247D01*
X133337003Y-107336986D01*
X133351677Y-107188000D01*
X133337003Y-107039014D01*
X133293546Y-106895753D01*
X133222974Y-106763724D01*
X133164930Y-106692997D01*
X133151799Y-106676996D01*
X133151795Y-106676992D01*
X133128001Y-106647999D01*
X133099008Y-106624205D01*
X128834801Y-102360000D01*
X143195199Y-102360000D01*
X145232201Y-104397003D01*
X145255999Y-104426001D01*
X145371724Y-104520974D01*
X145503753Y-104591546D01*
X145647014Y-104635003D01*
X145758667Y-104646000D01*
X145758676Y-104646000D01*
X145795999Y-104649676D01*
X145833322Y-104646000D01*
X151854678Y-104646000D01*
X151892000Y-104649676D01*
X151929322Y-104646000D01*
X151929333Y-104646000D01*
X152040986Y-104635003D01*
X152184247Y-104591546D01*
X152316276Y-104520974D01*
X152432001Y-104426001D01*
X152455804Y-104396997D01*
X153797000Y-103055801D01*
X158694201Y-107953003D01*
X158717999Y-107982001D01*
X158746997Y-108005799D01*
X158833723Y-108076974D01*
X158965753Y-108147546D01*
X159109014Y-108191003D01*
X159220667Y-108202000D01*
X159220676Y-108202000D01*
X159257999Y-108205676D01*
X159295322Y-108202000D01*
X167856678Y-108202000D01*
X167894000Y-108205676D01*
X167931322Y-108202000D01*
X167931333Y-108202000D01*
X168042986Y-108191003D01*
X168186247Y-108147546D01*
X168318276Y-108076974D01*
X168434001Y-107982001D01*
X168457804Y-107952997D01*
X173034802Y-103376000D01*
X187922678Y-103376000D01*
X187960000Y-103379676D01*
X187997322Y-103376000D01*
X187997333Y-103376000D01*
X188108986Y-103365003D01*
X188252247Y-103321546D01*
X188384276Y-103250974D01*
X188500001Y-103156001D01*
X188523804Y-103126997D01*
X196402802Y-95248000D01*
X199860676Y-95248000D01*
X199897999Y-95251676D01*
X199935322Y-95248000D01*
X199935333Y-95248000D01*
X200046986Y-95237003D01*
X200190247Y-95193546D01*
X200322276Y-95122974D01*
X200438001Y-95028001D01*
X200532974Y-94912276D01*
X200603546Y-94780247D01*
X200647003Y-94636986D01*
X200661677Y-94488000D01*
X200647003Y-94339014D01*
X200603546Y-94195753D01*
X200532974Y-94063723D01*
X200461799Y-93976997D01*
X200438001Y-93947999D01*
X200409003Y-93924201D01*
X193095804Y-86611003D01*
X193072001Y-86581999D01*
X192956276Y-86487026D01*
X192824247Y-86416454D01*
X192680986Y-86372997D01*
X192569333Y-86362000D01*
X192569322Y-86362000D01*
X192532000Y-86358324D01*
X192494678Y-86362000D01*
X177606802Y-86362000D01*
X177290000Y-86045199D01*
X177290000Y-84873325D01*
X177293676Y-84836000D01*
X177290000Y-84798675D01*
X177290000Y-84798667D01*
X177279003Y-84687014D01*
X177235546Y-84543753D01*
X177164974Y-84411724D01*
X177070001Y-84295999D01*
X177041003Y-84272201D01*
X176954276Y-84201026D01*
X176822246Y-84130454D01*
X176678986Y-84086997D01*
X176665628Y-84085681D01*
X176530000Y-84072323D01*
X176381014Y-84086997D01*
X176237753Y-84130454D01*
X176105724Y-84201026D01*
X175989999Y-84295999D01*
X175966202Y-84324996D01*
X163066000Y-97225199D01*
X163066000Y-93786801D01*
X188274802Y-68578000D01*
X191986678Y-68578000D01*
X192024000Y-68581676D01*
X192061322Y-68578000D01*
X192061333Y-68578000D01*
X192172986Y-68567003D01*
X192316247Y-68523546D01*
X192448276Y-68452974D01*
X192564001Y-68358001D01*
X192587804Y-68328997D01*
X194184860Y-66731942D01*
X194410256Y-66957338D01*
X194710801Y-67158156D01*
X195044750Y-67296482D01*
X195399268Y-67367000D01*
X195760732Y-67367000D01*
X196115250Y-67296482D01*
X196449199Y-67158156D01*
X196749744Y-66957338D01*
X197005338Y-66701744D01*
X197206156Y-66401199D01*
X197344482Y-66067250D01*
X197415000Y-65712732D01*
X197415000Y-65351268D01*
X197344482Y-64996750D01*
X197206156Y-64662801D01*
X197005338Y-64362256D01*
X196749744Y-64106662D01*
X196449199Y-63905844D01*
X196115250Y-63767518D01*
X195760732Y-63697000D01*
X195399268Y-63697000D01*
X195044750Y-63767518D01*
X194710801Y-63905844D01*
X194410256Y-64106662D01*
X194154662Y-64362256D01*
X193953844Y-64662801D01*
X193841942Y-64932957D01*
X193769999Y-64991999D01*
X193746201Y-65020997D01*
X191709199Y-67058000D01*
X187997325Y-67058000D01*
X187960000Y-67054324D01*
X187922675Y-67058000D01*
X187922667Y-67058000D01*
X187811014Y-67068997D01*
X187667753Y-67112454D01*
X187535724Y-67183026D01*
X187419999Y-67277999D01*
X187396201Y-67306997D01*
X163066000Y-91637199D01*
X163066000Y-76747324D01*
X163069676Y-76710001D01*
X163066000Y-76672678D01*
X163066000Y-76672669D01*
X163055003Y-76561016D01*
X163011546Y-76417755D01*
X162940974Y-76285726D01*
X162846001Y-76170001D01*
X162817004Y-76146204D01*
X155249800Y-68579001D01*
X174969677Y-68579001D01*
X175007000Y-68582677D01*
X175044323Y-68579001D01*
X175044334Y-68579001D01*
X175155987Y-68568004D01*
X175299248Y-68524547D01*
X175431277Y-68453975D01*
X175547002Y-68359002D01*
X175641975Y-68243277D01*
X175712547Y-68111248D01*
X175756004Y-67967987D01*
X175770678Y-67819001D01*
X175756004Y-67670015D01*
X175726266Y-67571980D01*
X182543626Y-67571980D01*
X182663514Y-67856836D01*
X182987210Y-68017699D01*
X183336069Y-68112322D01*
X183696684Y-68137067D01*
X184055198Y-68090985D01*
X184397833Y-67975846D01*
X184620486Y-67856836D01*
X184740374Y-67571980D01*
X183642000Y-66473605D01*
X182543626Y-67571980D01*
X175726266Y-67571980D01*
X175712547Y-67526754D01*
X175678867Y-67463744D01*
X175641975Y-67394724D01*
X175570800Y-67307998D01*
X175547002Y-67279000D01*
X175518004Y-67255202D01*
X175201250Y-66938449D01*
X175246482Y-66829250D01*
X175317000Y-66474732D01*
X175317000Y-66348684D01*
X181798933Y-66348684D01*
X181845015Y-66707198D01*
X181960154Y-67049833D01*
X182079164Y-67272486D01*
X182364020Y-67392374D01*
X183462395Y-66294000D01*
X183821605Y-66294000D01*
X184919980Y-67392374D01*
X185204836Y-67272486D01*
X185365699Y-66948790D01*
X185460322Y-66599931D01*
X185485067Y-66239316D01*
X185438985Y-65880802D01*
X185323846Y-65538167D01*
X185204836Y-65315514D01*
X184919980Y-65195626D01*
X183821605Y-66294000D01*
X183462395Y-66294000D01*
X182364020Y-65195626D01*
X182079164Y-65315514D01*
X181918301Y-65639210D01*
X181823678Y-65988069D01*
X181798933Y-66348684D01*
X175317000Y-66348684D01*
X175317000Y-66113268D01*
X175246482Y-65758750D01*
X175108156Y-65424801D01*
X174907338Y-65124256D01*
X174799102Y-65016020D01*
X182543626Y-65016020D01*
X183642000Y-66114395D01*
X184740374Y-65016020D01*
X184620486Y-64731164D01*
X184296790Y-64570301D01*
X183947931Y-64475678D01*
X183587316Y-64450933D01*
X183228802Y-64497015D01*
X182886167Y-64612154D01*
X182663514Y-64731164D01*
X182543626Y-65016020D01*
X174799102Y-65016020D01*
X174651744Y-64868662D01*
X174351199Y-64667844D01*
X174017250Y-64529518D01*
X173662732Y-64459000D01*
X173301268Y-64459000D01*
X172946750Y-64529518D01*
X172612801Y-64667844D01*
X172312256Y-64868662D01*
X172056662Y-65124256D01*
X171855844Y-65424801D01*
X171717518Y-65758750D01*
X171647000Y-66113268D01*
X171647000Y-66474732D01*
X171717518Y-66829250D01*
X171812684Y-67059001D01*
X153452321Y-67059001D01*
X153414999Y-67055325D01*
X153377677Y-67059001D01*
X153377666Y-67059001D01*
X153266013Y-67069998D01*
X153122752Y-67113455D01*
X152990723Y-67184027D01*
X152874998Y-67279000D01*
X152780025Y-67394725D01*
X152709453Y-67526754D01*
X152665996Y-67670015D01*
X152651322Y-67819001D01*
X152665996Y-67967987D01*
X152709453Y-68111248D01*
X152780025Y-68243277D01*
X152874998Y-68359002D01*
X152904002Y-68382805D01*
X161546000Y-77024804D01*
X161546001Y-93157198D01*
X153797000Y-100906199D01*
X152652000Y-99761199D01*
X152652000Y-89953333D01*
X152655677Y-89916000D01*
X152641003Y-89767014D01*
X152597546Y-89623753D01*
X152526974Y-89491724D01*
X152432001Y-89375999D01*
X152316276Y-89281026D01*
X152184247Y-89210454D01*
X152040986Y-89166997D01*
X151929333Y-89156000D01*
X151892000Y-89152323D01*
X151854667Y-89156000D01*
X122680000Y-89156000D01*
X122680000Y-83095324D01*
X122683676Y-83058001D01*
X122680000Y-83020678D01*
X122680000Y-83020667D01*
X122669003Y-82909014D01*
X122625546Y-82765753D01*
X122554974Y-82633724D01*
X122460001Y-82517999D01*
X122344276Y-82423026D01*
X122212247Y-82352454D01*
X122068986Y-82308997D01*
X121920000Y-82294323D01*
X121771015Y-82308997D01*
X121690132Y-82333532D01*
X121627753Y-82352454D01*
X121495723Y-82423026D01*
X121408997Y-82494201D01*
X121408993Y-82494205D01*
X121380000Y-82517999D01*
X121356206Y-82546992D01*
X114043003Y-89860196D01*
X114013999Y-89883999D01*
X113987737Y-89916000D01*
X113919026Y-89999724D01*
X113848455Y-90131753D01*
X113848454Y-90131754D01*
X113804997Y-90275015D01*
X113794000Y-90386668D01*
X113794000Y-90386678D01*
X113790324Y-90424000D01*
X101509649Y-90424000D01*
X102314845Y-47614408D01*
X109093000Y-47614408D01*
X109093000Y-47889592D01*
X109146686Y-48159490D01*
X109251995Y-48413727D01*
X109404880Y-48642535D01*
X109599465Y-48837120D01*
X109828273Y-48990005D01*
X109905515Y-49022000D01*
X109828273Y-49053995D01*
X109599465Y-49206880D01*
X109404880Y-49401465D01*
X109251995Y-49630273D01*
X109146686Y-49884510D01*
X109093000Y-50154408D01*
X109093000Y-50429592D01*
X109146686Y-50699490D01*
X109251995Y-50953727D01*
X109404880Y-51182535D01*
X109599465Y-51377120D01*
X109828273Y-51530005D01*
X109905515Y-51562000D01*
X109828273Y-51593995D01*
X109599465Y-51746880D01*
X109404880Y-51941465D01*
X109251995Y-52170273D01*
X109146686Y-52424510D01*
X109093000Y-52694408D01*
X109093000Y-52969592D01*
X109146686Y-53239490D01*
X109251995Y-53493727D01*
X109404880Y-53722535D01*
X109599465Y-53917120D01*
X109828273Y-54070005D01*
X109905515Y-54102000D01*
X109828273Y-54133995D01*
X109599465Y-54286880D01*
X109404880Y-54481465D01*
X109251995Y-54710273D01*
X109146686Y-54964510D01*
X109093000Y-55234408D01*
X109093000Y-55509592D01*
X109146686Y-55779490D01*
X109251995Y-56033727D01*
X109404880Y-56262535D01*
X109599465Y-56457120D01*
X109828273Y-56610005D01*
X109905515Y-56642000D01*
X109828273Y-56673995D01*
X109599465Y-56826880D01*
X109404880Y-57021465D01*
X109251995Y-57250273D01*
X109146686Y-57504510D01*
X109093000Y-57774408D01*
X109093000Y-58049592D01*
X109146686Y-58319490D01*
X109251995Y-58573727D01*
X109404880Y-58802535D01*
X109599465Y-58997120D01*
X109828273Y-59150005D01*
X109905515Y-59182000D01*
X109828273Y-59213995D01*
X109599465Y-59366880D01*
X109404880Y-59561465D01*
X109251995Y-59790273D01*
X109146686Y-60044510D01*
X109093000Y-60314408D01*
X109093000Y-60589592D01*
X109146686Y-60859490D01*
X109251995Y-61113727D01*
X109404880Y-61342535D01*
X109599465Y-61537120D01*
X109828273Y-61690005D01*
X110082510Y-61795314D01*
X110352408Y-61849000D01*
X110627592Y-61849000D01*
X110897490Y-61795314D01*
X111151727Y-61690005D01*
X111380535Y-61537120D01*
X111575120Y-61342535D01*
X111728005Y-61113727D01*
X111833314Y-60859490D01*
X111887000Y-60589592D01*
X111887000Y-60314408D01*
X111833314Y-60044510D01*
X111728005Y-59790273D01*
X111575120Y-59561465D01*
X111380535Y-59366880D01*
X111151727Y-59213995D01*
X111074485Y-59182000D01*
X111151727Y-59150005D01*
X111380535Y-58997120D01*
X111575120Y-58802535D01*
X111728005Y-58573727D01*
X111833314Y-58319490D01*
X111887000Y-58049592D01*
X111887000Y-57774408D01*
X111833314Y-57504510D01*
X111728005Y-57250273D01*
X111575120Y-57021465D01*
X111380535Y-56826880D01*
X111151727Y-56673995D01*
X111074485Y-56642000D01*
X111151727Y-56610005D01*
X111380535Y-56457120D01*
X111575120Y-56262535D01*
X111728005Y-56033727D01*
X111833314Y-55779490D01*
X111887000Y-55509592D01*
X111887000Y-55234408D01*
X111833314Y-54964510D01*
X111728005Y-54710273D01*
X111575120Y-54481465D01*
X111380535Y-54286880D01*
X111151727Y-54133995D01*
X111074485Y-54102000D01*
X111151727Y-54070005D01*
X111380535Y-53917120D01*
X111575120Y-53722535D01*
X111728005Y-53493727D01*
X111833314Y-53239490D01*
X111887000Y-52969592D01*
X111887000Y-52694408D01*
X111833314Y-52424510D01*
X111728005Y-52170273D01*
X111575120Y-51941465D01*
X111380535Y-51746880D01*
X111151727Y-51593995D01*
X111074485Y-51562000D01*
X111151727Y-51530005D01*
X111380535Y-51377120D01*
X111575120Y-51182535D01*
X111728005Y-50953727D01*
X111833314Y-50699490D01*
X111887000Y-50429592D01*
X111887000Y-50154408D01*
X111833314Y-49884510D01*
X111728005Y-49630273D01*
X111575120Y-49401465D01*
X111380535Y-49206880D01*
X111151727Y-49053995D01*
X111074485Y-49022000D01*
X111151727Y-48990005D01*
X111380535Y-48837120D01*
X111575120Y-48642535D01*
X111728005Y-48413727D01*
X111833314Y-48159490D01*
X111887000Y-47889592D01*
X111887000Y-47614408D01*
X119253000Y-47614408D01*
X119253000Y-47889592D01*
X119306686Y-48159490D01*
X119411995Y-48413727D01*
X119564880Y-48642535D01*
X119759465Y-48837120D01*
X119988273Y-48990005D01*
X120065515Y-49022000D01*
X119988273Y-49053995D01*
X119759465Y-49206880D01*
X119564880Y-49401465D01*
X119411995Y-49630273D01*
X119306686Y-49884510D01*
X119253000Y-50154408D01*
X119253000Y-50429592D01*
X119306686Y-50699490D01*
X119411995Y-50953727D01*
X119564880Y-51182535D01*
X119759465Y-51377120D01*
X119988273Y-51530005D01*
X120065515Y-51562000D01*
X119988273Y-51593995D01*
X119759465Y-51746880D01*
X119564880Y-51941465D01*
X119411995Y-52170273D01*
X119306686Y-52424510D01*
X119253000Y-52694408D01*
X119253000Y-52969592D01*
X119306686Y-53239490D01*
X119411995Y-53493727D01*
X119564880Y-53722535D01*
X119759465Y-53917120D01*
X119988273Y-54070005D01*
X120065515Y-54102000D01*
X119988273Y-54133995D01*
X119759465Y-54286880D01*
X119564880Y-54481465D01*
X119411995Y-54710273D01*
X119306686Y-54964510D01*
X119253000Y-55234408D01*
X119253000Y-55509592D01*
X119306686Y-55779490D01*
X119411995Y-56033727D01*
X119564880Y-56262535D01*
X119759465Y-56457120D01*
X119988273Y-56610005D01*
X120065515Y-56642000D01*
X119988273Y-56673995D01*
X119759465Y-56826880D01*
X119564880Y-57021465D01*
X119411995Y-57250273D01*
X119306686Y-57504510D01*
X119253000Y-57774408D01*
X119253000Y-58049592D01*
X119306686Y-58319490D01*
X119411995Y-58573727D01*
X119564880Y-58802535D01*
X119759465Y-58997120D01*
X119988273Y-59150005D01*
X120065515Y-59182000D01*
X119988273Y-59213995D01*
X119759465Y-59366880D01*
X119564880Y-59561465D01*
X119411995Y-59790273D01*
X119306686Y-60044510D01*
X119253000Y-60314408D01*
X119253000Y-60589592D01*
X119306686Y-60859490D01*
X119411995Y-61113727D01*
X119564880Y-61342535D01*
X119759465Y-61537120D01*
X119988273Y-61690005D01*
X120065515Y-61722000D01*
X119988273Y-61753995D01*
X119759465Y-61906880D01*
X119564880Y-62101465D01*
X119411995Y-62330273D01*
X119306686Y-62584510D01*
X119253000Y-62854408D01*
X119253000Y-63129592D01*
X119306686Y-63399490D01*
X119411995Y-63653727D01*
X119564880Y-63882535D01*
X119759465Y-64077120D01*
X119988273Y-64230005D01*
X120242510Y-64335314D01*
X120512408Y-64389000D01*
X120787592Y-64389000D01*
X121057490Y-64335314D01*
X121311727Y-64230005D01*
X121540535Y-64077120D01*
X121735120Y-63882535D01*
X121888005Y-63653727D01*
X121993314Y-63399490D01*
X122047000Y-63129592D01*
X122047000Y-62854408D01*
X121993314Y-62584510D01*
X121888005Y-62330273D01*
X121735120Y-62101465D01*
X121540535Y-61906880D01*
X121311727Y-61753995D01*
X121234485Y-61722000D01*
X121311727Y-61690005D01*
X121540535Y-61537120D01*
X121735120Y-61342535D01*
X121888005Y-61113727D01*
X121993314Y-60859490D01*
X122047000Y-60589592D01*
X122047000Y-60314408D01*
X121993314Y-60044510D01*
X121888005Y-59790273D01*
X121735120Y-59561465D01*
X121540535Y-59366880D01*
X121311727Y-59213995D01*
X121234485Y-59182000D01*
X121311727Y-59150005D01*
X121540535Y-58997120D01*
X121735120Y-58802535D01*
X121888005Y-58573727D01*
X121993314Y-58319490D01*
X122047000Y-58049592D01*
X122047000Y-57774408D01*
X121993314Y-57504510D01*
X121888005Y-57250273D01*
X121735120Y-57021465D01*
X121540535Y-56826880D01*
X121311727Y-56673995D01*
X121234485Y-56642000D01*
X121311727Y-56610005D01*
X121540535Y-56457120D01*
X121735120Y-56262535D01*
X121888005Y-56033727D01*
X121993314Y-55779490D01*
X122047000Y-55509592D01*
X122047000Y-55234408D01*
X122016372Y-55080429D01*
X125861803Y-51234999D01*
X134276676Y-51234999D01*
X134239000Y-51424408D01*
X134239000Y-51699592D01*
X134292686Y-51969490D01*
X134397995Y-52223727D01*
X134550880Y-52452535D01*
X134745465Y-52647120D01*
X134974273Y-52800005D01*
X135051515Y-52832000D01*
X134974273Y-52863995D01*
X134745465Y-53016880D01*
X134550880Y-53211465D01*
X134397995Y-53440273D01*
X134292686Y-53694510D01*
X134239000Y-53964408D01*
X134239000Y-54239592D01*
X134292686Y-54509490D01*
X134397995Y-54763727D01*
X134550880Y-54992535D01*
X134745465Y-55187120D01*
X134876001Y-55274341D01*
X134876000Y-55469659D01*
X134745465Y-55556880D01*
X134550880Y-55751465D01*
X134397995Y-55980273D01*
X134292686Y-56234510D01*
X134239000Y-56504408D01*
X134239000Y-56779592D01*
X134292686Y-57049490D01*
X134397995Y-57303727D01*
X134550880Y-57532535D01*
X134745465Y-57727120D01*
X134974273Y-57880005D01*
X135051515Y-57912000D01*
X134974273Y-57943995D01*
X134745465Y-58096880D01*
X134550880Y-58291465D01*
X134397995Y-58520273D01*
X134292686Y-58774510D01*
X134239000Y-59044408D01*
X134239000Y-59319592D01*
X134292686Y-59589490D01*
X134397995Y-59843727D01*
X134550880Y-60072535D01*
X134745465Y-60267120D01*
X134974273Y-60420005D01*
X135228510Y-60525314D01*
X135498408Y-60579000D01*
X135773592Y-60579000D01*
X136043490Y-60525314D01*
X136297727Y-60420005D01*
X136526535Y-60267120D01*
X136721120Y-60072535D01*
X136874005Y-59843727D01*
X136979314Y-59589490D01*
X137033000Y-59319592D01*
X137033000Y-59044408D01*
X136979314Y-58774510D01*
X136874005Y-58520273D01*
X136721120Y-58291465D01*
X136526535Y-58096880D01*
X136297727Y-57943995D01*
X136220485Y-57912000D01*
X136297727Y-57880005D01*
X136526535Y-57727120D01*
X136721120Y-57532535D01*
X136874005Y-57303727D01*
X136979314Y-57049490D01*
X137033000Y-56779592D01*
X137033000Y-56504408D01*
X136979314Y-56234510D01*
X136874005Y-55980273D01*
X136721120Y-55751465D01*
X136526535Y-55556880D01*
X136396000Y-55469659D01*
X136396000Y-55274341D01*
X136526535Y-55187120D01*
X136721120Y-54992535D01*
X136874005Y-54763727D01*
X136979314Y-54509490D01*
X137033000Y-54239592D01*
X137033000Y-53964408D01*
X136979314Y-53694510D01*
X136874005Y-53440273D01*
X136721120Y-53211465D01*
X136526535Y-53016880D01*
X136297727Y-52863995D01*
X136220485Y-52832000D01*
X136297727Y-52800005D01*
X136526535Y-52647120D01*
X136721120Y-52452535D01*
X136874005Y-52223727D01*
X136979314Y-51969490D01*
X137033000Y-51699592D01*
X137033000Y-51424408D01*
X136995324Y-51234999D01*
X144394198Y-51234999D01*
X144429628Y-51270429D01*
X144399000Y-51424408D01*
X144399000Y-51699592D01*
X144452686Y-51969490D01*
X144557995Y-52223727D01*
X144710880Y-52452535D01*
X144905465Y-52647120D01*
X145134273Y-52800005D01*
X145211515Y-52832000D01*
X145134273Y-52863995D01*
X144905465Y-53016880D01*
X144710880Y-53211465D01*
X144557995Y-53440273D01*
X144452686Y-53694510D01*
X144399000Y-53964408D01*
X144399000Y-54239592D01*
X144436676Y-54429001D01*
X141190321Y-54429001D01*
X141152998Y-54425325D01*
X141115675Y-54429001D01*
X141115666Y-54429001D01*
X141004013Y-54439998D01*
X140867312Y-54481465D01*
X140860752Y-54483455D01*
X140728722Y-54554027D01*
X140645082Y-54622669D01*
X140612998Y-54649000D01*
X140589200Y-54677999D01*
X140422198Y-54845000D01*
X140360061Y-54845000D01*
X140160102Y-54884774D01*
X139971744Y-54962795D01*
X139802226Y-55076063D01*
X139658063Y-55220226D01*
X139544795Y-55389744D01*
X139466774Y-55578102D01*
X139427000Y-55778061D01*
X139427000Y-55981939D01*
X139466774Y-56181898D01*
X139544795Y-56370256D01*
X139658063Y-56539774D01*
X139802226Y-56683937D01*
X139971744Y-56797205D01*
X140160102Y-56875226D01*
X140360061Y-56915000D01*
X140563939Y-56915000D01*
X140763898Y-56875226D01*
X140952256Y-56797205D01*
X141121774Y-56683937D01*
X141265937Y-56539774D01*
X141379205Y-56370256D01*
X141457226Y-56181898D01*
X141497000Y-55981939D01*
X141497000Y-55949001D01*
X144578890Y-55949001D01*
X144557995Y-55980273D01*
X144452686Y-56234510D01*
X144399000Y-56504408D01*
X144399000Y-56779592D01*
X144452686Y-57049490D01*
X144557995Y-57303727D01*
X144710880Y-57532535D01*
X144905465Y-57727120D01*
X145134273Y-57880005D01*
X145211515Y-57912000D01*
X145134273Y-57943995D01*
X144905465Y-58096880D01*
X144710880Y-58291465D01*
X144557995Y-58520273D01*
X144452686Y-58774510D01*
X144399000Y-59044408D01*
X144399000Y-59319592D01*
X144452686Y-59589490D01*
X144557995Y-59843727D01*
X144710880Y-60072535D01*
X144905465Y-60267120D01*
X145134273Y-60420005D01*
X145211515Y-60452000D01*
X145134273Y-60483995D01*
X144905465Y-60636880D01*
X144710880Y-60831465D01*
X144557995Y-61060273D01*
X144452686Y-61314510D01*
X144399000Y-61584408D01*
X144399000Y-61859592D01*
X144452686Y-62129490D01*
X144557995Y-62383727D01*
X144710880Y-62612535D01*
X144905465Y-62807120D01*
X145134273Y-62960005D01*
X145388510Y-63065314D01*
X145658408Y-63119000D01*
X145933592Y-63119000D01*
X146203490Y-63065314D01*
X146457727Y-62960005D01*
X146686535Y-62807120D01*
X146881120Y-62612535D01*
X147034005Y-62383727D01*
X147139314Y-62129490D01*
X147193000Y-61859592D01*
X147193000Y-61584408D01*
X147139314Y-61314510D01*
X147034005Y-61060273D01*
X146881120Y-60831465D01*
X146686535Y-60636880D01*
X146457727Y-60483995D01*
X146380485Y-60452000D01*
X146457727Y-60420005D01*
X146686535Y-60267120D01*
X146881120Y-60072535D01*
X147034005Y-59843727D01*
X147139314Y-59589490D01*
X147193000Y-59319592D01*
X147193000Y-59044408D01*
X147139314Y-58774510D01*
X147034005Y-58520273D01*
X146881120Y-58291465D01*
X146686535Y-58096880D01*
X146457727Y-57943995D01*
X146380485Y-57912000D01*
X146457727Y-57880005D01*
X146686535Y-57727120D01*
X146881120Y-57532535D01*
X147034005Y-57303727D01*
X147139314Y-57049490D01*
X147193000Y-56779592D01*
X147193000Y-56504408D01*
X147139314Y-56234510D01*
X147034005Y-55980273D01*
X147013110Y-55949001D01*
X174389677Y-55949001D01*
X174426999Y-55952677D01*
X174464321Y-55949001D01*
X174464332Y-55949001D01*
X174575985Y-55938004D01*
X174719246Y-55894547D01*
X174851275Y-55823975D01*
X174967000Y-55729002D01*
X174990803Y-55699998D01*
X182997552Y-47693251D01*
X183106750Y-47738482D01*
X183461268Y-47809000D01*
X183822732Y-47809000D01*
X184177250Y-47738482D01*
X184511199Y-47600156D01*
X184811744Y-47399338D01*
X185067338Y-47143744D01*
X185268156Y-46843199D01*
X185406482Y-46509250D01*
X185477000Y-46154732D01*
X185477000Y-45793268D01*
X185443292Y-45623806D01*
X193791801Y-45623806D01*
X193906500Y-45964754D01*
X194085511Y-46276774D01*
X194321954Y-46547875D01*
X194606743Y-46767639D01*
X194928934Y-46927621D01*
X195168195Y-47000195D01*
X195453000Y-46883432D01*
X195453000Y-45339000D01*
X195707000Y-45339000D01*
X195707000Y-46883432D01*
X195991805Y-47000195D01*
X196231066Y-46927621D01*
X196553257Y-46767639D01*
X196838046Y-46547875D01*
X197074489Y-46276774D01*
X197253500Y-45964754D01*
X197368199Y-45623806D01*
X197251854Y-45339000D01*
X195707000Y-45339000D01*
X195453000Y-45339000D01*
X193908146Y-45339000D01*
X193791801Y-45623806D01*
X185443292Y-45623806D01*
X185406482Y-45438750D01*
X185268156Y-45104801D01*
X185067338Y-44804256D01*
X185063276Y-44800194D01*
X193791801Y-44800194D01*
X193908146Y-45085000D01*
X195453000Y-45085000D01*
X195453000Y-43540568D01*
X195707000Y-43540568D01*
X195707000Y-45085000D01*
X197251854Y-45085000D01*
X197368199Y-44800194D01*
X197253500Y-44459246D01*
X197074489Y-44147226D01*
X196838046Y-43876125D01*
X196553257Y-43656361D01*
X196231066Y-43496379D01*
X195991805Y-43423805D01*
X195707000Y-43540568D01*
X195453000Y-43540568D01*
X195168195Y-43423805D01*
X194928934Y-43496379D01*
X194606743Y-43656361D01*
X194321954Y-43876125D01*
X194085511Y-44147226D01*
X193906500Y-44459246D01*
X193791801Y-44800194D01*
X185063276Y-44800194D01*
X184811744Y-44548662D01*
X184511199Y-44347844D01*
X184177250Y-44209518D01*
X183822732Y-44139000D01*
X183461268Y-44139000D01*
X183106750Y-44209518D01*
X182772801Y-44347844D01*
X182472256Y-44548662D01*
X182216662Y-44804256D01*
X182015844Y-45104801D01*
X181877518Y-45438750D01*
X181807000Y-45793268D01*
X181807000Y-46154732D01*
X181877518Y-46509250D01*
X181922749Y-46618448D01*
X174112198Y-54429001D01*
X147155324Y-54429001D01*
X147193000Y-54239592D01*
X147193000Y-53964408D01*
X147139314Y-53694510D01*
X147034005Y-53440273D01*
X146881120Y-53211465D01*
X146686535Y-53016880D01*
X146457727Y-52863995D01*
X146380485Y-52832000D01*
X146457727Y-52800005D01*
X146686535Y-52647120D01*
X146881120Y-52452535D01*
X147034005Y-52223727D01*
X147139314Y-51969490D01*
X147193000Y-51699592D01*
X147193000Y-51424408D01*
X147139314Y-51154510D01*
X147034005Y-50900273D01*
X146881120Y-50671465D01*
X146686535Y-50476880D01*
X146457727Y-50323995D01*
X146380485Y-50292000D01*
X146457727Y-50260005D01*
X146686535Y-50107120D01*
X146881120Y-49912535D01*
X147034005Y-49683727D01*
X147139314Y-49429490D01*
X147193000Y-49159592D01*
X147193000Y-48884408D01*
X147139314Y-48614510D01*
X147034005Y-48360273D01*
X146881120Y-48131465D01*
X146686535Y-47936880D01*
X146457727Y-47783995D01*
X146380485Y-47752000D01*
X146457727Y-47720005D01*
X146686535Y-47567120D01*
X146881120Y-47372535D01*
X147034005Y-47143727D01*
X147139314Y-46889490D01*
X147193000Y-46619592D01*
X147193000Y-46385806D01*
X171693801Y-46385806D01*
X171808500Y-46726754D01*
X171987511Y-47038774D01*
X172223954Y-47309875D01*
X172508743Y-47529639D01*
X172830934Y-47689621D01*
X173070195Y-47762195D01*
X173355000Y-47645432D01*
X173355000Y-46101000D01*
X173609000Y-46101000D01*
X173609000Y-47645432D01*
X173893805Y-47762195D01*
X174133066Y-47689621D01*
X174455257Y-47529639D01*
X174740046Y-47309875D01*
X174976489Y-47038774D01*
X175155500Y-46726754D01*
X175270199Y-46385806D01*
X175153854Y-46101000D01*
X173609000Y-46101000D01*
X173355000Y-46101000D01*
X171810146Y-46101000D01*
X171693801Y-46385806D01*
X147193000Y-46385806D01*
X147193000Y-46344408D01*
X147139314Y-46074510D01*
X147034005Y-45820273D01*
X146881120Y-45591465D01*
X146851849Y-45562194D01*
X171693801Y-45562194D01*
X171810146Y-45847000D01*
X173355000Y-45847000D01*
X173355000Y-44302568D01*
X173609000Y-44302568D01*
X173609000Y-45847000D01*
X175153854Y-45847000D01*
X175270199Y-45562194D01*
X175155500Y-45221246D01*
X174976489Y-44909226D01*
X174740046Y-44638125D01*
X174455257Y-44418361D01*
X174133066Y-44258379D01*
X173893805Y-44185805D01*
X173609000Y-44302568D01*
X173355000Y-44302568D01*
X173070195Y-44185805D01*
X172830934Y-44258379D01*
X172508743Y-44418361D01*
X172223954Y-44638125D01*
X171987511Y-44909226D01*
X171808500Y-45221246D01*
X171693801Y-45562194D01*
X146851849Y-45562194D01*
X146686535Y-45396880D01*
X146457727Y-45243995D01*
X146203490Y-45138686D01*
X145933592Y-45085000D01*
X145658408Y-45085000D01*
X145388510Y-45138686D01*
X145134273Y-45243995D01*
X144905465Y-45396880D01*
X144710880Y-45591465D01*
X144557995Y-45820273D01*
X144452686Y-46074510D01*
X144399000Y-46344408D01*
X144399000Y-46619592D01*
X144452686Y-46889490D01*
X144557995Y-47143727D01*
X144710880Y-47372535D01*
X144905465Y-47567120D01*
X145134273Y-47720005D01*
X145211515Y-47752000D01*
X145134273Y-47783995D01*
X144905465Y-47936880D01*
X144710880Y-48131465D01*
X144557995Y-48360273D01*
X144452686Y-48614510D01*
X144399000Y-48884408D01*
X144399000Y-49159592D01*
X144452686Y-49429490D01*
X144557995Y-49683727D01*
X144578890Y-49714999D01*
X136853110Y-49714999D01*
X136874005Y-49683727D01*
X136979314Y-49429490D01*
X137033000Y-49159592D01*
X137033000Y-48884408D01*
X136979314Y-48614510D01*
X136874005Y-48360273D01*
X136721120Y-48131465D01*
X136526535Y-47936880D01*
X136297727Y-47783995D01*
X136220485Y-47752000D01*
X136297727Y-47720005D01*
X136526535Y-47567120D01*
X136721120Y-47372535D01*
X136874005Y-47143727D01*
X136979314Y-46889490D01*
X137033000Y-46619592D01*
X137033000Y-46344408D01*
X136979314Y-46074510D01*
X136874005Y-45820273D01*
X136721120Y-45591465D01*
X136526535Y-45396880D01*
X136297727Y-45243995D01*
X136043490Y-45138686D01*
X135773592Y-45085000D01*
X135498408Y-45085000D01*
X135228510Y-45138686D01*
X134974273Y-45243995D01*
X134745465Y-45396880D01*
X134550880Y-45591465D01*
X134397995Y-45820273D01*
X134292686Y-46074510D01*
X134239000Y-46344408D01*
X134239000Y-46619592D01*
X134292686Y-46889490D01*
X134397995Y-47143727D01*
X134550880Y-47372535D01*
X134745465Y-47567120D01*
X134974273Y-47720005D01*
X135051515Y-47752000D01*
X134974273Y-47783995D01*
X134745465Y-47936880D01*
X134550880Y-48131465D01*
X134397995Y-48360273D01*
X134292686Y-48614510D01*
X134239000Y-48884408D01*
X134239000Y-49159592D01*
X134292686Y-49429490D01*
X134397995Y-49683727D01*
X134418890Y-49714999D01*
X125584323Y-49714999D01*
X125547000Y-49711323D01*
X125509677Y-49714999D01*
X125509668Y-49714999D01*
X125398015Y-49725996D01*
X125254754Y-49769453D01*
X125122725Y-49840025D01*
X125007000Y-49934998D01*
X124983202Y-49963996D01*
X122047000Y-52900199D01*
X122047000Y-52694408D01*
X121993314Y-52424510D01*
X121888005Y-52170273D01*
X121735120Y-51941465D01*
X121540535Y-51746880D01*
X121311727Y-51593995D01*
X121234485Y-51562000D01*
X121311727Y-51530005D01*
X121540535Y-51377120D01*
X121735120Y-51182535D01*
X121888005Y-50953727D01*
X121993314Y-50699490D01*
X122047000Y-50429592D01*
X122047000Y-50154408D01*
X121993314Y-49884510D01*
X121888005Y-49630273D01*
X121735120Y-49401465D01*
X121540535Y-49206880D01*
X121311727Y-49053995D01*
X121234485Y-49022000D01*
X121311727Y-48990005D01*
X121540535Y-48837120D01*
X121735120Y-48642535D01*
X121888005Y-48413727D01*
X121993314Y-48159490D01*
X122047000Y-47889592D01*
X122047000Y-47614408D01*
X121993314Y-47344510D01*
X121888005Y-47090273D01*
X121735120Y-46861465D01*
X121540535Y-46666880D01*
X121311727Y-46513995D01*
X121057490Y-46408686D01*
X120787592Y-46355000D01*
X120512408Y-46355000D01*
X120242510Y-46408686D01*
X119988273Y-46513995D01*
X119759465Y-46666880D01*
X119564880Y-46861465D01*
X119411995Y-47090273D01*
X119306686Y-47344510D01*
X119253000Y-47614408D01*
X111887000Y-47614408D01*
X111833314Y-47344510D01*
X111728005Y-47090273D01*
X111575120Y-46861465D01*
X111380535Y-46666880D01*
X111151727Y-46513995D01*
X110897490Y-46408686D01*
X110627592Y-46355000D01*
X110352408Y-46355000D01*
X110082510Y-46408686D01*
X109828273Y-46513995D01*
X109599465Y-46666880D01*
X109404880Y-46861465D01*
X109251995Y-47090273D01*
X109146686Y-47344510D01*
X109093000Y-47614408D01*
X102314845Y-47614408D01*
X102396242Y-43286837D01*
X102499667Y-38514514D01*
X217526001Y-40021410D01*
G37*
%TD.AperFunction*%
%TD*%
M02*
