%FSLAX45Y45*%
G04 Gerber Fmt 4.5, Leading zero omitted, Abs format (unit mm)*
G04 Created by KiCad (PCBNEW (5.1.9)-1) date 2021-10-21 17:44:24*
%MOMM*%
%LPD*%
G01*
G04 APERTURE LIST*
%TA.AperFunction,Profile*%
%ADD10C,0.050000*%
%TD*%
%ADD11C,0.200000*%
%ADD12C,0.300000*%
G04 APERTURE END LIST*
D10*
X21717000Y-11252200D02*
X21818600Y-7010400D01*
X10007600Y-11988800D02*
X21717000Y-11252200D01*
X10185400Y-3784600D02*
X10007600Y-11988800D01*
X21818600Y-3937000D02*
X10185400Y-3784600D01*
X21818600Y-7010400D02*
X21818600Y-3937000D01*
D11*
X14026200Y-5568000D02*
X14066200Y-5608000D01*
X14066200Y-5568000D02*
X14026200Y-5608000D01*
X11087100Y-4775200D02*
G75*
G03*
X11087100Y-4775200I-38100J0D01*
G01*
X11087100Y-5029200D02*
G75*
G03*
X11087100Y-5029200I-38100J0D01*
G01*
X11087100Y-5283200D02*
G75*
G03*
X11087100Y-5283200I-38100J0D01*
G01*
X11087100Y-5537200D02*
G75*
G03*
X11087100Y-5537200I-38100J0D01*
G01*
X11087100Y-5791200D02*
G75*
G03*
X11087100Y-5791200I-38100J0D01*
G01*
X11087100Y-6045200D02*
G75*
G03*
X11087100Y-6045200I-38100J0D01*
G01*
X12103100Y-4775200D02*
G75*
G03*
X12103100Y-4775200I-38100J0D01*
G01*
X12103100Y-5029200D02*
G75*
G03*
X12103100Y-5029200I-38100J0D01*
G01*
X12103100Y-5283200D02*
G75*
G03*
X12103100Y-5283200I-38100J0D01*
G01*
X12103100Y-5537200D02*
G75*
G03*
X12103100Y-5537200I-38100J0D01*
G01*
X12103100Y-5791200D02*
G75*
G03*
X12103100Y-5791200I-38100J0D01*
G01*
X12103100Y-6045200D02*
G75*
G03*
X12103100Y-6045200I-38100J0D01*
G01*
X12103100Y-6299200D02*
G75*
G03*
X12103100Y-6299200I-38100J0D01*
G01*
X13601700Y-4648200D02*
G75*
G03*
X13601700Y-4648200I-38100J0D01*
G01*
X13601700Y-4902200D02*
G75*
G03*
X13601700Y-4902200I-38100J0D01*
G01*
X13601700Y-5156200D02*
G75*
G03*
X13601700Y-5156200I-38100J0D01*
G01*
X13601700Y-5410200D02*
G75*
G03*
X13601700Y-5410200I-38100J0D01*
G01*
X13601700Y-5664200D02*
G75*
G03*
X13601700Y-5664200I-38100J0D01*
G01*
X13601700Y-5918200D02*
G75*
G03*
X13601700Y-5918200I-38100J0D01*
G01*
X14617700Y-4648200D02*
G75*
G03*
X14617700Y-4648200I-38100J0D01*
G01*
X14617700Y-4902200D02*
G75*
G03*
X14617700Y-4902200I-38100J0D01*
G01*
X14617700Y-5156200D02*
G75*
G03*
X14617700Y-5156200I-38100J0D01*
G01*
X14617700Y-5410200D02*
G75*
G03*
X14617700Y-5410200I-38100J0D01*
G01*
X14617700Y-5664200D02*
G75*
G03*
X14617700Y-5664200I-38100J0D01*
G01*
X14617700Y-5918200D02*
G75*
G03*
X14617700Y-5918200I-38100J0D01*
G01*
X14617700Y-6172200D02*
G75*
G03*
X14617700Y-6172200I-38100J0D01*
G01*
X17348200Y-4537400D02*
X17348200Y-4657400D01*
X17288200Y-4597400D02*
X17408200Y-4597400D01*
X17348200Y-6569400D02*
X17348200Y-6689400D01*
X17288200Y-6629400D02*
X17408200Y-6629400D01*
X18364200Y-4537400D02*
X18364200Y-4657400D01*
X18304200Y-4597400D02*
X18424200Y-4597400D01*
X18364200Y-6569400D02*
X18364200Y-6689400D01*
X18304200Y-6629400D02*
X18424200Y-6629400D01*
X19558000Y-4461200D02*
X19558000Y-4581200D01*
X19498000Y-4521200D02*
X19618000Y-4521200D01*
X19558000Y-6493200D02*
X19558000Y-6613200D01*
X19498000Y-6553200D02*
X19618000Y-6553200D01*
D12*
X10291528Y-12457014D02*
X10291528Y-12157014D01*
X10362957Y-12157014D01*
X10405814Y-12171300D01*
X10434386Y-12199871D01*
X10448671Y-12228443D01*
X10462957Y-12285586D01*
X10462957Y-12328443D01*
X10448671Y-12385586D01*
X10434386Y-12414157D01*
X10405814Y-12442729D01*
X10362957Y-12457014D01*
X10291528Y-12457014D01*
X10591528Y-12457014D02*
X10591528Y-12257014D01*
X10591528Y-12314157D02*
X10605814Y-12285586D01*
X10620100Y-12271300D01*
X10648671Y-12257014D01*
X10677243Y-12257014D01*
X10777243Y-12457014D02*
X10777243Y-12257014D01*
X10777243Y-12157014D02*
X10762957Y-12171300D01*
X10777243Y-12185586D01*
X10791528Y-12171300D01*
X10777243Y-12157014D01*
X10777243Y-12185586D01*
X10962957Y-12457014D02*
X10934386Y-12442729D01*
X10920100Y-12414157D01*
X10920100Y-12157014D01*
X11120100Y-12457014D02*
X11091528Y-12442729D01*
X11077243Y-12414157D01*
X11077243Y-12157014D01*
X11462957Y-12457014D02*
X11462957Y-12157014D01*
X11562957Y-12371300D01*
X11662957Y-12157014D01*
X11662957Y-12457014D01*
X11934386Y-12457014D02*
X11934386Y-12299871D01*
X11920100Y-12271300D01*
X11891528Y-12257014D01*
X11834386Y-12257014D01*
X11805814Y-12271300D01*
X11934386Y-12442729D02*
X11905814Y-12457014D01*
X11834386Y-12457014D01*
X11805814Y-12442729D01*
X11791528Y-12414157D01*
X11791528Y-12385586D01*
X11805814Y-12357014D01*
X11834386Y-12342729D01*
X11905814Y-12342729D01*
X11934386Y-12328443D01*
X12077243Y-12257014D02*
X12077243Y-12557014D01*
X12077243Y-12271300D02*
X12105814Y-12257014D01*
X12162957Y-12257014D01*
X12191528Y-12271300D01*
X12205814Y-12285586D01*
X12220100Y-12314157D01*
X12220100Y-12399871D01*
X12205814Y-12428443D01*
X12191528Y-12442729D01*
X12162957Y-12457014D01*
X12105814Y-12457014D01*
X12077243Y-12442729D01*
X12348671Y-12428443D02*
X12362957Y-12442729D01*
X12348671Y-12457014D01*
X12334386Y-12442729D01*
X12348671Y-12428443D01*
X12348671Y-12457014D01*
X12348671Y-12271300D02*
X12362957Y-12285586D01*
X12348671Y-12299871D01*
X12334386Y-12285586D01*
X12348671Y-12271300D01*
X12348671Y-12299871D01*
X9965100Y-12931300D02*
X10005100Y-12971300D01*
X10005100Y-12931300D02*
X9965100Y-12971300D01*
X10348671Y-12787014D02*
X10377243Y-12787014D01*
X10405814Y-12801300D01*
X10420100Y-12815586D01*
X10434386Y-12844157D01*
X10448671Y-12901300D01*
X10448671Y-12972729D01*
X10434386Y-13029871D01*
X10420100Y-13058443D01*
X10405814Y-13072729D01*
X10377243Y-13087014D01*
X10348671Y-13087014D01*
X10320100Y-13072729D01*
X10305814Y-13058443D01*
X10291528Y-13029871D01*
X10277243Y-12972729D01*
X10277243Y-12901300D01*
X10291528Y-12844157D01*
X10305814Y-12815586D01*
X10320100Y-12801300D01*
X10348671Y-12787014D01*
X10577243Y-13058443D02*
X10591528Y-13072729D01*
X10577243Y-13087014D01*
X10562957Y-13072729D01*
X10577243Y-13058443D01*
X10577243Y-13087014D01*
X10848671Y-12887014D02*
X10848671Y-13087014D01*
X10777243Y-12772729D02*
X10705814Y-12987014D01*
X10891528Y-12987014D01*
X11062957Y-12787014D02*
X11091528Y-12787014D01*
X11120100Y-12801300D01*
X11134386Y-12815586D01*
X11148671Y-12844157D01*
X11162957Y-12901300D01*
X11162957Y-12972729D01*
X11148671Y-13029871D01*
X11134386Y-13058443D01*
X11120100Y-13072729D01*
X11091528Y-13087014D01*
X11062957Y-13087014D01*
X11034386Y-13072729D01*
X11020100Y-13058443D01*
X11005814Y-13029871D01*
X10991528Y-12972729D01*
X10991528Y-12901300D01*
X11005814Y-12844157D01*
X11020100Y-12815586D01*
X11034386Y-12801300D01*
X11062957Y-12787014D01*
X11291528Y-13087014D02*
X11291528Y-12887014D01*
X11291528Y-12915586D02*
X11305814Y-12901300D01*
X11334386Y-12887014D01*
X11377243Y-12887014D01*
X11405814Y-12901300D01*
X11420100Y-12929871D01*
X11420100Y-13087014D01*
X11420100Y-12929871D02*
X11434386Y-12901300D01*
X11462957Y-12887014D01*
X11505814Y-12887014D01*
X11534386Y-12901300D01*
X11548671Y-12929871D01*
X11548671Y-13087014D01*
X11691528Y-13087014D02*
X11691528Y-12887014D01*
X11691528Y-12915586D02*
X11705814Y-12901300D01*
X11734386Y-12887014D01*
X11777243Y-12887014D01*
X11805814Y-12901300D01*
X11820100Y-12929871D01*
X11820100Y-13087014D01*
X11820100Y-12929871D02*
X11834386Y-12901300D01*
X11862957Y-12887014D01*
X11905814Y-12887014D01*
X11934386Y-12901300D01*
X11948671Y-12929871D01*
X11948671Y-13087014D01*
X12534386Y-12772729D02*
X12277243Y-13158443D01*
X12920100Y-12787014D02*
X12948671Y-12787014D01*
X12977243Y-12801300D01*
X12991528Y-12815586D01*
X13005814Y-12844157D01*
X13020100Y-12901300D01*
X13020100Y-12972729D01*
X13005814Y-13029871D01*
X12991528Y-13058443D01*
X12977243Y-13072729D01*
X12948671Y-13087014D01*
X12920100Y-13087014D01*
X12891528Y-13072729D01*
X12877243Y-13058443D01*
X12862957Y-13029871D01*
X12848671Y-12972729D01*
X12848671Y-12901300D01*
X12862957Y-12844157D01*
X12877243Y-12815586D01*
X12891528Y-12801300D01*
X12920100Y-12787014D01*
X13148671Y-13058443D02*
X13162957Y-13072729D01*
X13148671Y-13087014D01*
X13134386Y-13072729D01*
X13148671Y-13058443D01*
X13148671Y-13087014D01*
X13348671Y-12787014D02*
X13377243Y-12787014D01*
X13405814Y-12801300D01*
X13420100Y-12815586D01*
X13434386Y-12844157D01*
X13448671Y-12901300D01*
X13448671Y-12972729D01*
X13434386Y-13029871D01*
X13420100Y-13058443D01*
X13405814Y-13072729D01*
X13377243Y-13087014D01*
X13348671Y-13087014D01*
X13320100Y-13072729D01*
X13305814Y-13058443D01*
X13291528Y-13029871D01*
X13277243Y-12972729D01*
X13277243Y-12901300D01*
X13291528Y-12844157D01*
X13305814Y-12815586D01*
X13320100Y-12801300D01*
X13348671Y-12787014D01*
X13734386Y-13087014D02*
X13562957Y-13087014D01*
X13648671Y-13087014D02*
X13648671Y-12787014D01*
X13620100Y-12829871D01*
X13591528Y-12858443D01*
X13562957Y-12872729D01*
X13991528Y-12787014D02*
X13934386Y-12787014D01*
X13905814Y-12801300D01*
X13891528Y-12815586D01*
X13862957Y-12858443D01*
X13848671Y-12915586D01*
X13848671Y-13029871D01*
X13862957Y-13058443D01*
X13877243Y-13072729D01*
X13905814Y-13087014D01*
X13962957Y-13087014D01*
X13991528Y-13072729D01*
X14005814Y-13058443D01*
X14020100Y-13029871D01*
X14020100Y-12958443D01*
X14005814Y-12929871D01*
X13991528Y-12915586D01*
X13962957Y-12901300D01*
X13905814Y-12901300D01*
X13877243Y-12915586D01*
X13862957Y-12929871D01*
X13848671Y-12958443D01*
X14134386Y-12787014D02*
X14134386Y-12844157D01*
X14248671Y-12787014D02*
X14248671Y-12844157D01*
X14691528Y-13201300D02*
X14677243Y-13187014D01*
X14648671Y-13144157D01*
X14634386Y-13115586D01*
X14620100Y-13072729D01*
X14605814Y-13001300D01*
X14605814Y-12944157D01*
X14620100Y-12872729D01*
X14634386Y-12829871D01*
X14648671Y-12801300D01*
X14677243Y-12758443D01*
X14691528Y-12744157D01*
X14962957Y-13087014D02*
X14791528Y-13087014D01*
X14877243Y-13087014D02*
X14877243Y-12787014D01*
X14848671Y-12829871D01*
X14820100Y-12858443D01*
X14791528Y-12872729D01*
X15320100Y-13087014D02*
X15320100Y-12787014D01*
X15448671Y-13087014D02*
X15448671Y-12929871D01*
X15434386Y-12901300D01*
X15405814Y-12887014D01*
X15362957Y-12887014D01*
X15334386Y-12901300D01*
X15320100Y-12915586D01*
X15634386Y-13087014D02*
X15605814Y-13072729D01*
X15591528Y-13058443D01*
X15577243Y-13029871D01*
X15577243Y-12944157D01*
X15591528Y-12915586D01*
X15605814Y-12901300D01*
X15634386Y-12887014D01*
X15677243Y-12887014D01*
X15705814Y-12901300D01*
X15720100Y-12915586D01*
X15734386Y-12944157D01*
X15734386Y-13029871D01*
X15720100Y-13058443D01*
X15705814Y-13072729D01*
X15677243Y-13087014D01*
X15634386Y-13087014D01*
X15905814Y-13087014D02*
X15877243Y-13072729D01*
X15862957Y-13044157D01*
X15862957Y-12787014D01*
X16134386Y-13072729D02*
X16105814Y-13087014D01*
X16048671Y-13087014D01*
X16020100Y-13072729D01*
X16005814Y-13044157D01*
X16005814Y-12929871D01*
X16020100Y-12901300D01*
X16048671Y-12887014D01*
X16105814Y-12887014D01*
X16134386Y-12901300D01*
X16148671Y-12929871D01*
X16148671Y-12958443D01*
X16005814Y-12987014D01*
X16248671Y-13201300D02*
X16262957Y-13187014D01*
X16291528Y-13144157D01*
X16305814Y-13115586D01*
X16320100Y-13072729D01*
X16334386Y-13001300D01*
X16334386Y-12944157D01*
X16320100Y-12872729D01*
X16305814Y-12829871D01*
X16291528Y-12801300D01*
X16262957Y-12758443D01*
X16248671Y-12744157D01*
X10005100Y-13347300D02*
G75*
G03*
X10005100Y-13347300I-38100J0D01*
G01*
X10348671Y-13183014D02*
X10377243Y-13183014D01*
X10405814Y-13197300D01*
X10420100Y-13211586D01*
X10434386Y-13240157D01*
X10448671Y-13297300D01*
X10448671Y-13368729D01*
X10434386Y-13425871D01*
X10420100Y-13454443D01*
X10405814Y-13468729D01*
X10377243Y-13483014D01*
X10348671Y-13483014D01*
X10320100Y-13468729D01*
X10305814Y-13454443D01*
X10291528Y-13425871D01*
X10277243Y-13368729D01*
X10277243Y-13297300D01*
X10291528Y-13240157D01*
X10305814Y-13211586D01*
X10320100Y-13197300D01*
X10348671Y-13183014D01*
X10577243Y-13454443D02*
X10591528Y-13468729D01*
X10577243Y-13483014D01*
X10562957Y-13468729D01*
X10577243Y-13454443D01*
X10577243Y-13483014D01*
X10691528Y-13183014D02*
X10891528Y-13183014D01*
X10762957Y-13483014D01*
X11134386Y-13183014D02*
X11077243Y-13183014D01*
X11048671Y-13197300D01*
X11034386Y-13211586D01*
X11005814Y-13254443D01*
X10991528Y-13311586D01*
X10991528Y-13425871D01*
X11005814Y-13454443D01*
X11020100Y-13468729D01*
X11048671Y-13483014D01*
X11105814Y-13483014D01*
X11134386Y-13468729D01*
X11148671Y-13454443D01*
X11162957Y-13425871D01*
X11162957Y-13354443D01*
X11148671Y-13325871D01*
X11134386Y-13311586D01*
X11105814Y-13297300D01*
X11048671Y-13297300D01*
X11020100Y-13311586D01*
X11005814Y-13325871D01*
X10991528Y-13354443D01*
X11291528Y-13483014D02*
X11291528Y-13283014D01*
X11291528Y-13311586D02*
X11305814Y-13297300D01*
X11334386Y-13283014D01*
X11377243Y-13283014D01*
X11405814Y-13297300D01*
X11420100Y-13325871D01*
X11420100Y-13483014D01*
X11420100Y-13325871D02*
X11434386Y-13297300D01*
X11462957Y-13283014D01*
X11505814Y-13283014D01*
X11534386Y-13297300D01*
X11548671Y-13325871D01*
X11548671Y-13483014D01*
X11691528Y-13483014D02*
X11691528Y-13283014D01*
X11691528Y-13311586D02*
X11705814Y-13297300D01*
X11734386Y-13283014D01*
X11777243Y-13283014D01*
X11805814Y-13297300D01*
X11820100Y-13325871D01*
X11820100Y-13483014D01*
X11820100Y-13325871D02*
X11834386Y-13297300D01*
X11862957Y-13283014D01*
X11905814Y-13283014D01*
X11934386Y-13297300D01*
X11948671Y-13325871D01*
X11948671Y-13483014D01*
X12534386Y-13168729D02*
X12277243Y-13554443D01*
X12920100Y-13183014D02*
X12948671Y-13183014D01*
X12977243Y-13197300D01*
X12991528Y-13211586D01*
X13005814Y-13240157D01*
X13020100Y-13297300D01*
X13020100Y-13368729D01*
X13005814Y-13425871D01*
X12991528Y-13454443D01*
X12977243Y-13468729D01*
X12948671Y-13483014D01*
X12920100Y-13483014D01*
X12891528Y-13468729D01*
X12877243Y-13454443D01*
X12862957Y-13425871D01*
X12848671Y-13368729D01*
X12848671Y-13297300D01*
X12862957Y-13240157D01*
X12877243Y-13211586D01*
X12891528Y-13197300D01*
X12920100Y-13183014D01*
X13148671Y-13454443D02*
X13162957Y-13468729D01*
X13148671Y-13483014D01*
X13134386Y-13468729D01*
X13148671Y-13454443D01*
X13148671Y-13483014D01*
X13348671Y-13183014D02*
X13377243Y-13183014D01*
X13405814Y-13197300D01*
X13420100Y-13211586D01*
X13434386Y-13240157D01*
X13448671Y-13297300D01*
X13448671Y-13368729D01*
X13434386Y-13425871D01*
X13420100Y-13454443D01*
X13405814Y-13468729D01*
X13377243Y-13483014D01*
X13348671Y-13483014D01*
X13320100Y-13468729D01*
X13305814Y-13454443D01*
X13291528Y-13425871D01*
X13277243Y-13368729D01*
X13277243Y-13297300D01*
X13291528Y-13240157D01*
X13305814Y-13211586D01*
X13320100Y-13197300D01*
X13348671Y-13183014D01*
X13548671Y-13183014D02*
X13734386Y-13183014D01*
X13634386Y-13297300D01*
X13677243Y-13297300D01*
X13705814Y-13311586D01*
X13720100Y-13325871D01*
X13734386Y-13354443D01*
X13734386Y-13425871D01*
X13720100Y-13454443D01*
X13705814Y-13468729D01*
X13677243Y-13483014D01*
X13591528Y-13483014D01*
X13562957Y-13468729D01*
X13548671Y-13454443D01*
X13920100Y-13183014D02*
X13948671Y-13183014D01*
X13977243Y-13197300D01*
X13991528Y-13211586D01*
X14005814Y-13240157D01*
X14020100Y-13297300D01*
X14020100Y-13368729D01*
X14005814Y-13425871D01*
X13991528Y-13454443D01*
X13977243Y-13468729D01*
X13948671Y-13483014D01*
X13920100Y-13483014D01*
X13891528Y-13468729D01*
X13877243Y-13454443D01*
X13862957Y-13425871D01*
X13848671Y-13368729D01*
X13848671Y-13297300D01*
X13862957Y-13240157D01*
X13877243Y-13211586D01*
X13891528Y-13197300D01*
X13920100Y-13183014D01*
X14134386Y-13183014D02*
X14134386Y-13240157D01*
X14248671Y-13183014D02*
X14248671Y-13240157D01*
X14691528Y-13597300D02*
X14677243Y-13583014D01*
X14648671Y-13540157D01*
X14634386Y-13511586D01*
X14620100Y-13468729D01*
X14605814Y-13397300D01*
X14605814Y-13340157D01*
X14620100Y-13268729D01*
X14634386Y-13225871D01*
X14648671Y-13197300D01*
X14677243Y-13154443D01*
X14691528Y-13140157D01*
X14791528Y-13211586D02*
X14805814Y-13197300D01*
X14834386Y-13183014D01*
X14905814Y-13183014D01*
X14934386Y-13197300D01*
X14948671Y-13211586D01*
X14962957Y-13240157D01*
X14962957Y-13268729D01*
X14948671Y-13311586D01*
X14777243Y-13483014D01*
X14962957Y-13483014D01*
X15220100Y-13183014D02*
X15162957Y-13183014D01*
X15134386Y-13197300D01*
X15120100Y-13211586D01*
X15091528Y-13254443D01*
X15077243Y-13311586D01*
X15077243Y-13425871D01*
X15091528Y-13454443D01*
X15105814Y-13468729D01*
X15134386Y-13483014D01*
X15191528Y-13483014D01*
X15220100Y-13468729D01*
X15234386Y-13454443D01*
X15248671Y-13425871D01*
X15248671Y-13354443D01*
X15234386Y-13325871D01*
X15220100Y-13311586D01*
X15191528Y-13297300D01*
X15134386Y-13297300D01*
X15105814Y-13311586D01*
X15091528Y-13325871D01*
X15077243Y-13354443D01*
X15605814Y-13483014D02*
X15605814Y-13183014D01*
X15734386Y-13483014D02*
X15734386Y-13325871D01*
X15720100Y-13297300D01*
X15691528Y-13283014D01*
X15648671Y-13283014D01*
X15620100Y-13297300D01*
X15605814Y-13311586D01*
X15920100Y-13483014D02*
X15891528Y-13468729D01*
X15877243Y-13454443D01*
X15862957Y-13425871D01*
X15862957Y-13340157D01*
X15877243Y-13311586D01*
X15891528Y-13297300D01*
X15920100Y-13283014D01*
X15962957Y-13283014D01*
X15991528Y-13297300D01*
X16005814Y-13311586D01*
X16020100Y-13340157D01*
X16020100Y-13425871D01*
X16005814Y-13454443D01*
X15991528Y-13468729D01*
X15962957Y-13483014D01*
X15920100Y-13483014D01*
X16191528Y-13483014D02*
X16162957Y-13468729D01*
X16148671Y-13440157D01*
X16148671Y-13183014D01*
X16420100Y-13468729D02*
X16391528Y-13483014D01*
X16334386Y-13483014D01*
X16305814Y-13468729D01*
X16291528Y-13440157D01*
X16291528Y-13325871D01*
X16305814Y-13297300D01*
X16334386Y-13283014D01*
X16391528Y-13283014D01*
X16420100Y-13297300D01*
X16434386Y-13325871D01*
X16434386Y-13354443D01*
X16291528Y-13383014D01*
X16548671Y-13468729D02*
X16577243Y-13483014D01*
X16634386Y-13483014D01*
X16662957Y-13468729D01*
X16677243Y-13440157D01*
X16677243Y-13425871D01*
X16662957Y-13397300D01*
X16634386Y-13383014D01*
X16591528Y-13383014D01*
X16562957Y-13368729D01*
X16548671Y-13340157D01*
X16548671Y-13325871D01*
X16562957Y-13297300D01*
X16591528Y-13283014D01*
X16634386Y-13283014D01*
X16662957Y-13297300D01*
X16777243Y-13597300D02*
X16791528Y-13583014D01*
X16820100Y-13540157D01*
X16834386Y-13511586D01*
X16848671Y-13468729D01*
X16862957Y-13397300D01*
X16862957Y-13340157D01*
X16848671Y-13268729D01*
X16834386Y-13225871D01*
X16820100Y-13197300D01*
X16791528Y-13154443D01*
X16777243Y-13140157D01*
X9945100Y-13683300D02*
X9945100Y-13803300D01*
X9885100Y-13743300D02*
X10005100Y-13743300D01*
X10448671Y-13879014D02*
X10277243Y-13879014D01*
X10362957Y-13879014D02*
X10362957Y-13579014D01*
X10334386Y-13621871D01*
X10305814Y-13650443D01*
X10277243Y-13664729D01*
X10577243Y-13850443D02*
X10591528Y-13864729D01*
X10577243Y-13879014D01*
X10562957Y-13864729D01*
X10577243Y-13850443D01*
X10577243Y-13879014D01*
X10705814Y-13607586D02*
X10720100Y-13593300D01*
X10748671Y-13579014D01*
X10820100Y-13579014D01*
X10848671Y-13593300D01*
X10862957Y-13607586D01*
X10877243Y-13636157D01*
X10877243Y-13664729D01*
X10862957Y-13707586D01*
X10691528Y-13879014D01*
X10877243Y-13879014D01*
X11062957Y-13579014D02*
X11091528Y-13579014D01*
X11120100Y-13593300D01*
X11134386Y-13607586D01*
X11148671Y-13636157D01*
X11162957Y-13693300D01*
X11162957Y-13764729D01*
X11148671Y-13821871D01*
X11134386Y-13850443D01*
X11120100Y-13864729D01*
X11091528Y-13879014D01*
X11062957Y-13879014D01*
X11034386Y-13864729D01*
X11020100Y-13850443D01*
X11005814Y-13821871D01*
X10991528Y-13764729D01*
X10991528Y-13693300D01*
X11005814Y-13636157D01*
X11020100Y-13607586D01*
X11034386Y-13593300D01*
X11062957Y-13579014D01*
X11291528Y-13879014D02*
X11291528Y-13679014D01*
X11291528Y-13707586D02*
X11305814Y-13693300D01*
X11334386Y-13679014D01*
X11377243Y-13679014D01*
X11405814Y-13693300D01*
X11420100Y-13721871D01*
X11420100Y-13879014D01*
X11420100Y-13721871D02*
X11434386Y-13693300D01*
X11462957Y-13679014D01*
X11505814Y-13679014D01*
X11534386Y-13693300D01*
X11548671Y-13721871D01*
X11548671Y-13879014D01*
X11691528Y-13879014D02*
X11691528Y-13679014D01*
X11691528Y-13707586D02*
X11705814Y-13693300D01*
X11734386Y-13679014D01*
X11777243Y-13679014D01*
X11805814Y-13693300D01*
X11820100Y-13721871D01*
X11820100Y-13879014D01*
X11820100Y-13721871D02*
X11834386Y-13693300D01*
X11862957Y-13679014D01*
X11905814Y-13679014D01*
X11934386Y-13693300D01*
X11948671Y-13721871D01*
X11948671Y-13879014D01*
X12534386Y-13564729D02*
X12277243Y-13950443D01*
X12920100Y-13579014D02*
X12948671Y-13579014D01*
X12977243Y-13593300D01*
X12991528Y-13607586D01*
X13005814Y-13636157D01*
X13020100Y-13693300D01*
X13020100Y-13764729D01*
X13005814Y-13821871D01*
X12991528Y-13850443D01*
X12977243Y-13864729D01*
X12948671Y-13879014D01*
X12920100Y-13879014D01*
X12891528Y-13864729D01*
X12877243Y-13850443D01*
X12862957Y-13821871D01*
X12848671Y-13764729D01*
X12848671Y-13693300D01*
X12862957Y-13636157D01*
X12877243Y-13607586D01*
X12891528Y-13593300D01*
X12920100Y-13579014D01*
X13148671Y-13850443D02*
X13162957Y-13864729D01*
X13148671Y-13879014D01*
X13134386Y-13864729D01*
X13148671Y-13850443D01*
X13148671Y-13879014D01*
X13348671Y-13579014D02*
X13377243Y-13579014D01*
X13405814Y-13593300D01*
X13420100Y-13607586D01*
X13434386Y-13636157D01*
X13448671Y-13693300D01*
X13448671Y-13764729D01*
X13434386Y-13821871D01*
X13420100Y-13850443D01*
X13405814Y-13864729D01*
X13377243Y-13879014D01*
X13348671Y-13879014D01*
X13320100Y-13864729D01*
X13305814Y-13850443D01*
X13291528Y-13821871D01*
X13277243Y-13764729D01*
X13277243Y-13693300D01*
X13291528Y-13636157D01*
X13305814Y-13607586D01*
X13320100Y-13593300D01*
X13348671Y-13579014D01*
X13705814Y-13679014D02*
X13705814Y-13879014D01*
X13634386Y-13564729D02*
X13562957Y-13779014D01*
X13748671Y-13779014D01*
X13834386Y-13579014D02*
X14034386Y-13579014D01*
X13905814Y-13879014D01*
X14134386Y-13579014D02*
X14134386Y-13636157D01*
X14248671Y-13579014D02*
X14248671Y-13636157D01*
X14691528Y-13993300D02*
X14677243Y-13979014D01*
X14648671Y-13936157D01*
X14634386Y-13907586D01*
X14620100Y-13864729D01*
X14605814Y-13793300D01*
X14605814Y-13736157D01*
X14620100Y-13664729D01*
X14634386Y-13621871D01*
X14648671Y-13593300D01*
X14677243Y-13550443D01*
X14691528Y-13536157D01*
X14934386Y-13579014D02*
X14877243Y-13579014D01*
X14848671Y-13593300D01*
X14834386Y-13607586D01*
X14805814Y-13650443D01*
X14791528Y-13707586D01*
X14791528Y-13821871D01*
X14805814Y-13850443D01*
X14820100Y-13864729D01*
X14848671Y-13879014D01*
X14905814Y-13879014D01*
X14934386Y-13864729D01*
X14948671Y-13850443D01*
X14962957Y-13821871D01*
X14962957Y-13750443D01*
X14948671Y-13721871D01*
X14934386Y-13707586D01*
X14905814Y-13693300D01*
X14848671Y-13693300D01*
X14820100Y-13707586D01*
X14805814Y-13721871D01*
X14791528Y-13750443D01*
X15320100Y-13879014D02*
X15320100Y-13579014D01*
X15448671Y-13879014D02*
X15448671Y-13721871D01*
X15434386Y-13693300D01*
X15405814Y-13679014D01*
X15362957Y-13679014D01*
X15334386Y-13693300D01*
X15320100Y-13707586D01*
X15634386Y-13879014D02*
X15605814Y-13864729D01*
X15591528Y-13850443D01*
X15577243Y-13821871D01*
X15577243Y-13736157D01*
X15591528Y-13707586D01*
X15605814Y-13693300D01*
X15634386Y-13679014D01*
X15677243Y-13679014D01*
X15705814Y-13693300D01*
X15720100Y-13707586D01*
X15734386Y-13736157D01*
X15734386Y-13821871D01*
X15720100Y-13850443D01*
X15705814Y-13864729D01*
X15677243Y-13879014D01*
X15634386Y-13879014D01*
X15905814Y-13879014D02*
X15877243Y-13864729D01*
X15862957Y-13836157D01*
X15862957Y-13579014D01*
X16134386Y-13864729D02*
X16105814Y-13879014D01*
X16048671Y-13879014D01*
X16020100Y-13864729D01*
X16005814Y-13836157D01*
X16005814Y-13721871D01*
X16020100Y-13693300D01*
X16048671Y-13679014D01*
X16105814Y-13679014D01*
X16134386Y-13693300D01*
X16148671Y-13721871D01*
X16148671Y-13750443D01*
X16005814Y-13779014D01*
X16262957Y-13864729D02*
X16291528Y-13879014D01*
X16348671Y-13879014D01*
X16377243Y-13864729D01*
X16391528Y-13836157D01*
X16391528Y-13821871D01*
X16377243Y-13793300D01*
X16348671Y-13779014D01*
X16305814Y-13779014D01*
X16277243Y-13764729D01*
X16262957Y-13736157D01*
X16262957Y-13721871D01*
X16277243Y-13693300D01*
X16305814Y-13679014D01*
X16348671Y-13679014D01*
X16377243Y-13693300D01*
X16491528Y-13993300D02*
X16505814Y-13979014D01*
X16534386Y-13936157D01*
X16548671Y-13907586D01*
X16562957Y-13864729D01*
X16577243Y-13793300D01*
X16577243Y-13736157D01*
X16562957Y-13664729D01*
X16548671Y-13621871D01*
X16534386Y-13593300D01*
X16505814Y-13550443D01*
X16491528Y-13536157D01*
M02*
