%TF.GenerationSoftware,KiCad,Pcbnew,(5.1.9)-1*%
%TF.CreationDate,2021-10-21T17:43:52-05:00*%
%TF.ProjectId,tutorial,7475746f-7269-4616-9c2e-6b696361645f,rev?*%
%TF.SameCoordinates,Original*%
%TF.FileFunction,Copper,L1,Top*%
%TF.FilePolarity,Positive*%
%FSLAX46Y46*%
G04 Gerber Fmt 4.6, Leading zero omitted, Abs format (unit mm)*
G04 Created by KiCad (PCBNEW (5.1.9)-1) date 2021-10-21 17:43:52*
%MOMM*%
%LPD*%
G01*
G04 APERTURE LIST*
%TA.AperFunction,ComponentPad*%
%ADD10C,1.524000*%
%TD*%
%TA.AperFunction,ComponentPad*%
%ADD11O,2.400000X2.400000*%
%TD*%
%TA.AperFunction,ComponentPad*%
%ADD12C,2.400000*%
%TD*%
%TA.AperFunction,ViaPad*%
%ADD13C,0.800000*%
%TD*%
%TA.AperFunction,Conductor*%
%ADD14C,0.250000*%
%TD*%
G04 APERTURE END LIST*
D10*
%TO.P,U2,13*%
%TO.N,Net-(R3-Pad2)*%
X135636000Y-59182000D03*
%TO.P,U2,12*%
%TO.N,Net-(U2-Pad11)*%
X135636000Y-56642000D03*
%TO.P,U2,11*%
X135636000Y-54102000D03*
%TO.P,U2,10*%
%TO.N,PIN_0*%
X135636000Y-51562000D03*
%TO.P,U2,9*%
%TO.N,Net-(U1-Pad2)*%
X135636000Y-49022000D03*
%TO.P,U2,8*%
%TO.N,Net-(U1-Pad11)*%
X135636000Y-46482000D03*
%TO.P,U2,7*%
%TO.N,Net-(U1-Pad5)*%
X145796000Y-46482000D03*
%TO.P,U2,6*%
%TO.N,Net-(U1-Pad12)*%
X145796000Y-49022000D03*
%TO.P,U2,5*%
%TO.N,Net-(U1-Pad4)*%
X145796000Y-51562000D03*
%TO.P,U2,4*%
%TO.N,Net-(U1-Pad8)*%
X145796000Y-54102000D03*
%TO.P,U2,3*%
%TO.N,Net-(U1-Pad13)*%
X145796000Y-56642000D03*
%TO.P,U2,2*%
X145796000Y-59182000D03*
%TO.P,U2,1*%
%TO.N,Net-(U1-Pad1)*%
X145796000Y-61722000D03*
%TD*%
%TO.P,U1,13*%
%TO.N,Net-(U1-Pad13)*%
X110490000Y-60452000D03*
%TO.P,U1,12*%
%TO.N,Net-(U1-Pad12)*%
X110490000Y-57912000D03*
%TO.P,U1,11*%
%TO.N,Net-(U1-Pad11)*%
X110490000Y-55372000D03*
%TO.P,U1,10*%
%TO.N,Net-(U1-Pad10)*%
X110490000Y-52832000D03*
%TO.P,U1,9*%
%TO.N,Net-(U1-Pad9)*%
X110490000Y-50292000D03*
%TO.P,U1,8*%
%TO.N,Net-(U1-Pad8)*%
X110490000Y-47752000D03*
%TO.P,U1,7*%
%TO.N,Net-(U1-Pad7)*%
X120650000Y-47752000D03*
%TO.P,U1,6*%
%TO.N,PIN_0*%
X120650000Y-50292000D03*
%TO.P,U1,5*%
%TO.N,Net-(U1-Pad5)*%
X120650000Y-52832000D03*
%TO.P,U1,4*%
%TO.N,Net-(U1-Pad4)*%
X120650000Y-55372000D03*
%TO.P,U1,3*%
%TO.N,Net-(U1-Pad13)*%
X120650000Y-57912000D03*
%TO.P,U1,2*%
%TO.N,Net-(U1-Pad2)*%
X120650000Y-60452000D03*
%TO.P,U1,1*%
%TO.N,Net-(U1-Pad1)*%
X120650000Y-62992000D03*
%TD*%
D11*
%TO.P,R3,2*%
%TO.N,Net-(R3-Pad2)*%
X183642000Y-45974000D03*
D12*
%TO.P,R3,1*%
%TO.N,GND*%
X183642000Y-66294000D03*
%TD*%
D11*
%TO.P,R2,2*%
%TO.N,GND*%
X195580000Y-45212000D03*
D12*
%TO.P,R2,1*%
%TO.N,Net-(R1-Pad1)*%
X195580000Y-65532000D03*
%TD*%
D11*
%TO.P,R1,2*%
%TO.N,GND*%
X173482000Y-45974000D03*
D12*
%TO.P,R1,1*%
%TO.N,Net-(R1-Pad1)*%
X173482000Y-66294000D03*
%TD*%
D13*
%TO.N,Net-(R3-Pad2)*%
X140462000Y-55880000D03*
%TD*%
D14*
%TO.N,Net-(R3-Pad2)*%
X135636000Y-59182000D02*
X137160000Y-59182000D01*
X137160000Y-59182000D02*
X140462000Y-55880000D01*
X140462000Y-55880000D02*
X140462000Y-55880000D01*
%TO.N,Net-(U1-Pad13)*%
X119197001Y-59364999D02*
X120650000Y-57912000D01*
X111577001Y-59364999D02*
X119197001Y-59364999D01*
X110490000Y-60452000D02*
X111577001Y-59364999D01*
X119959001Y-61539001D02*
X143438999Y-61539001D01*
X119562999Y-61142999D02*
X119959001Y-61539001D01*
X143438999Y-61539001D02*
X145796000Y-59182000D01*
X119562999Y-58999001D02*
X119562999Y-61142999D01*
X120650000Y-57912000D02*
X119562999Y-58999001D01*
X145796000Y-56642000D02*
X145796000Y-59182000D01*
%TO.N,Net-(U1-Pad12)*%
X111577001Y-56824999D02*
X110490000Y-57912000D01*
X120805763Y-56824999D02*
X111577001Y-56824999D01*
X122441761Y-55189001D02*
X120805763Y-56824999D01*
X139628999Y-55189001D02*
X122441761Y-55189001D01*
X145796000Y-49022000D02*
X139628999Y-55189001D01*
%TO.N,Net-(U1-Pad11)*%
X111421238Y-55372000D02*
X110490000Y-55372000D01*
X120311238Y-46482000D02*
X111421238Y-55372000D01*
X135636000Y-46482000D02*
X120311238Y-46482000D01*
%TO.N,Net-(U1-Pad8)*%
X110490000Y-47752000D02*
X110490000Y-41402000D01*
X110490000Y-41402000D02*
X111760000Y-40132000D01*
X111760000Y-40132000D02*
X146304000Y-40132000D01*
X146304000Y-40132000D02*
X150622000Y-44450000D01*
X150622000Y-49276000D02*
X145796000Y-54102000D01*
X150622000Y-44450000D02*
X150622000Y-49276000D01*
%TO.N,PIN_0*%
X134366000Y-50292000D02*
X135636000Y-51562000D01*
X120650000Y-50292000D02*
X134366000Y-50292000D01*
%TO.N,Net-(U1-Pad5)*%
X139446000Y-52832000D02*
X145796000Y-46482000D01*
X120650000Y-52832000D02*
X139446000Y-52832000D01*
%TO.N,Net-(U1-Pad2)*%
X139263001Y-45394999D02*
X135636000Y-49022000D01*
X146317761Y-45394999D02*
X139263001Y-45394999D01*
X146883001Y-52083761D02*
X146883001Y-45960239D01*
X146317761Y-52649001D02*
X146883001Y-52083761D01*
X145274239Y-52649001D02*
X146317761Y-52649001D01*
X146883001Y-45960239D02*
X146317761Y-45394999D01*
X137471240Y-60452000D02*
X145274239Y-52649001D01*
X120650000Y-60452000D02*
X137471240Y-60452000D01*
%TO.N,Net-(U1-Pad1)*%
X144526000Y-62992000D02*
X145796000Y-61722000D01*
X120650000Y-62992000D02*
X144526000Y-62992000D01*
%TD*%
M02*
