%TF.GenerationSoftware,KiCad,Pcbnew,(5.1.9)-1*%
%TF.CreationDate,2021-10-21T17:43:52-05:00*%
%TF.ProjectId,tutorial,7475746f-7269-4616-9c2e-6b696361645f,rev?*%
%TF.SameCoordinates,Original*%
%TF.FileFunction,Legend,Top*%
%TF.FilePolarity,Positive*%
%FSLAX46Y46*%
G04 Gerber Fmt 4.6, Leading zero omitted, Abs format (unit mm)*
G04 Created by KiCad (PCBNEW (5.1.9)-1) date 2021-10-21 17:43:52*
%MOMM*%
%LPD*%
G01*
G04 APERTURE LIST*
%ADD10C,0.120000*%
%ADD11C,0.150000*%
G04 APERTURE END LIST*
D10*
%TO.C,U2*%
X148336000Y-64262000D02*
X133096000Y-64262000D01*
X133096000Y-64262000D02*
X133096000Y-43942000D01*
X133096000Y-43942000D02*
X148336000Y-43942000D01*
X148336000Y-43942000D02*
X148336000Y-64262000D01*
X138176000Y-61722000D02*
X138176000Y-66802000D01*
X138176000Y-66802000D02*
X143256000Y-66802000D01*
X143256000Y-66802000D02*
X143256000Y-61722000D01*
X143256000Y-61722000D02*
X138176000Y-61722000D01*
%TO.C,U1*%
X123190000Y-65532000D02*
X107950000Y-65532000D01*
X107950000Y-65532000D02*
X107950000Y-45212000D01*
X107950000Y-45212000D02*
X123190000Y-45212000D01*
X123190000Y-45212000D02*
X123190000Y-65532000D01*
X113030000Y-62992000D02*
X113030000Y-68072000D01*
X113030000Y-68072000D02*
X118110000Y-68072000D01*
X118110000Y-68072000D02*
X118110000Y-62992000D01*
X118110000Y-62992000D02*
X113030000Y-62992000D01*
%TO.C,R3*%
X181022000Y-64004000D02*
X186262000Y-64004000D01*
X186262000Y-64004000D02*
X186262000Y-48264000D01*
X186262000Y-48264000D02*
X181022000Y-48264000D01*
X181022000Y-48264000D02*
X181022000Y-64004000D01*
X183642000Y-64854000D02*
X183642000Y-64004000D01*
X183642000Y-47414000D02*
X183642000Y-48264000D01*
%TO.C,R2*%
X192960000Y-63242000D02*
X198200000Y-63242000D01*
X198200000Y-63242000D02*
X198200000Y-47502000D01*
X198200000Y-47502000D02*
X192960000Y-47502000D01*
X192960000Y-47502000D02*
X192960000Y-63242000D01*
X195580000Y-64092000D02*
X195580000Y-63242000D01*
X195580000Y-46652000D02*
X195580000Y-47502000D01*
%TO.C,R1*%
X170862000Y-64004000D02*
X176102000Y-64004000D01*
X176102000Y-64004000D02*
X176102000Y-48264000D01*
X176102000Y-48264000D02*
X170862000Y-48264000D01*
X170862000Y-48264000D02*
X170862000Y-64004000D01*
X173482000Y-64854000D02*
X173482000Y-64004000D01*
X173482000Y-47414000D02*
X173482000Y-48264000D01*
%TO.C,U2*%
D11*
X137414095Y-47974380D02*
X137414095Y-48783904D01*
X137461714Y-48879142D01*
X137509333Y-48926761D01*
X137604571Y-48974380D01*
X137795047Y-48974380D01*
X137890285Y-48926761D01*
X137937904Y-48879142D01*
X137985523Y-48783904D01*
X137985523Y-47974380D01*
X138414095Y-48069619D02*
X138461714Y-48022000D01*
X138556952Y-47974380D01*
X138795047Y-47974380D01*
X138890285Y-48022000D01*
X138937904Y-48069619D01*
X138985523Y-48164857D01*
X138985523Y-48260095D01*
X138937904Y-48402952D01*
X138366476Y-48974380D01*
X138985523Y-48974380D01*
X147645523Y-51014380D02*
X148216952Y-51014380D01*
X147931238Y-52014380D02*
X147931238Y-51014380D01*
X148455047Y-52014380D02*
X148978857Y-51347714D01*
X148455047Y-51347714D02*
X148978857Y-52014380D01*
X148240761Y-54554380D02*
X147907428Y-54078190D01*
X147669333Y-54554380D02*
X147669333Y-53554380D01*
X148050285Y-53554380D01*
X148145523Y-53602000D01*
X148193142Y-53649619D01*
X148240761Y-53744857D01*
X148240761Y-53887714D01*
X148193142Y-53982952D01*
X148145523Y-54030571D01*
X148050285Y-54078190D01*
X147669333Y-54078190D01*
X148574095Y-54554380D02*
X149097904Y-53887714D01*
X148574095Y-53887714D02*
X149097904Y-54554380D01*
X147574095Y-61222000D02*
X147478857Y-61174380D01*
X147336000Y-61174380D01*
X147193142Y-61222000D01*
X147097904Y-61317238D01*
X147050285Y-61412476D01*
X147002666Y-61602952D01*
X147002666Y-61745809D01*
X147050285Y-61936285D01*
X147097904Y-62031523D01*
X147193142Y-62126761D01*
X147336000Y-62174380D01*
X147431238Y-62174380D01*
X147574095Y-62126761D01*
X147621714Y-62079142D01*
X147621714Y-61745809D01*
X147431238Y-61745809D01*
X148050285Y-62174380D02*
X148050285Y-61174380D01*
X148621714Y-62174380D01*
X148621714Y-61174380D01*
X149097904Y-62174380D02*
X149097904Y-61174380D01*
X149336000Y-61174380D01*
X149478857Y-61222000D01*
X149574095Y-61317238D01*
X149621714Y-61412476D01*
X149669333Y-61602952D01*
X149669333Y-61745809D01*
X149621714Y-61936285D01*
X149574095Y-62031523D01*
X149478857Y-62126761D01*
X149336000Y-62174380D01*
X149097904Y-62174380D01*
%TO.C,U1*%
X112268095Y-49244380D02*
X112268095Y-50053904D01*
X112315714Y-50149142D01*
X112363333Y-50196761D01*
X112458571Y-50244380D01*
X112649047Y-50244380D01*
X112744285Y-50196761D01*
X112791904Y-50149142D01*
X112839523Y-50053904D01*
X112839523Y-49244380D01*
X113839523Y-50244380D02*
X113268095Y-50244380D01*
X113553809Y-50244380D02*
X113553809Y-49244380D01*
X113458571Y-49387238D01*
X113363333Y-49482476D01*
X113268095Y-49530095D01*
X122499523Y-52284380D02*
X123070952Y-52284380D01*
X122785238Y-53284380D02*
X122785238Y-52284380D01*
X123309047Y-53284380D02*
X123832857Y-52617714D01*
X123309047Y-52617714D02*
X123832857Y-53284380D01*
X123094761Y-55824380D02*
X122761428Y-55348190D01*
X122523333Y-55824380D02*
X122523333Y-54824380D01*
X122904285Y-54824380D01*
X122999523Y-54872000D01*
X123047142Y-54919619D01*
X123094761Y-55014857D01*
X123094761Y-55157714D01*
X123047142Y-55252952D01*
X122999523Y-55300571D01*
X122904285Y-55348190D01*
X122523333Y-55348190D01*
X123428095Y-55824380D02*
X123951904Y-55157714D01*
X123428095Y-55157714D02*
X123951904Y-55824380D01*
X122428095Y-62492000D02*
X122332857Y-62444380D01*
X122190000Y-62444380D01*
X122047142Y-62492000D01*
X121951904Y-62587238D01*
X121904285Y-62682476D01*
X121856666Y-62872952D01*
X121856666Y-63015809D01*
X121904285Y-63206285D01*
X121951904Y-63301523D01*
X122047142Y-63396761D01*
X122190000Y-63444380D01*
X122285238Y-63444380D01*
X122428095Y-63396761D01*
X122475714Y-63349142D01*
X122475714Y-63015809D01*
X122285238Y-63015809D01*
X122904285Y-63444380D02*
X122904285Y-62444380D01*
X123475714Y-63444380D01*
X123475714Y-62444380D01*
X123951904Y-63444380D02*
X123951904Y-62444380D01*
X124190000Y-62444380D01*
X124332857Y-62492000D01*
X124428095Y-62587238D01*
X124475714Y-62682476D01*
X124523333Y-62872952D01*
X124523333Y-63015809D01*
X124475714Y-63206285D01*
X124428095Y-63301523D01*
X124332857Y-63396761D01*
X124190000Y-63444380D01*
X123951904Y-63444380D01*
%TO.C,R3*%
X180474380Y-56300666D02*
X179998190Y-56634000D01*
X180474380Y-56872095D02*
X179474380Y-56872095D01*
X179474380Y-56491142D01*
X179522000Y-56395904D01*
X179569619Y-56348285D01*
X179664857Y-56300666D01*
X179807714Y-56300666D01*
X179902952Y-56348285D01*
X179950571Y-56395904D01*
X179998190Y-56491142D01*
X179998190Y-56872095D01*
X179474380Y-55967333D02*
X179474380Y-55348285D01*
X179855333Y-55681619D01*
X179855333Y-55538761D01*
X179902952Y-55443523D01*
X179950571Y-55395904D01*
X180045809Y-55348285D01*
X180283904Y-55348285D01*
X180379142Y-55395904D01*
X180426761Y-55443523D01*
X180474380Y-55538761D01*
X180474380Y-55824476D01*
X180426761Y-55919714D01*
X180379142Y-55967333D01*
%TO.C,R2*%
X192412380Y-55538666D02*
X191936190Y-55872000D01*
X192412380Y-56110095D02*
X191412380Y-56110095D01*
X191412380Y-55729142D01*
X191460000Y-55633904D01*
X191507619Y-55586285D01*
X191602857Y-55538666D01*
X191745714Y-55538666D01*
X191840952Y-55586285D01*
X191888571Y-55633904D01*
X191936190Y-55729142D01*
X191936190Y-56110095D01*
X191507619Y-55157714D02*
X191460000Y-55110095D01*
X191412380Y-55014857D01*
X191412380Y-54776761D01*
X191460000Y-54681523D01*
X191507619Y-54633904D01*
X191602857Y-54586285D01*
X191698095Y-54586285D01*
X191840952Y-54633904D01*
X192412380Y-55205333D01*
X192412380Y-54586285D01*
%TO.C,R1*%
X170314380Y-56300666D02*
X169838190Y-56634000D01*
X170314380Y-56872095D02*
X169314380Y-56872095D01*
X169314380Y-56491142D01*
X169362000Y-56395904D01*
X169409619Y-56348285D01*
X169504857Y-56300666D01*
X169647714Y-56300666D01*
X169742952Y-56348285D01*
X169790571Y-56395904D01*
X169838190Y-56491142D01*
X169838190Y-56872095D01*
X170314380Y-55348285D02*
X170314380Y-55919714D01*
X170314380Y-55634000D02*
X169314380Y-55634000D01*
X169457238Y-55729238D01*
X169552476Y-55824476D01*
X169600095Y-55919714D01*
%TD*%
M02*
