M48
; DRILL file {KiCad (5.1.9)-1} date 10/21/21 17:44:23
; FORMAT={-:-/ absolute / inch / decimal}
; #@! TF.CreationDate,2021-10-21T17:44:23-05:00
; #@! TF.GenerationSoftware,Kicad,Pcbnew,(5.1.9)-1
; #@! TF.FileFunction,Plated,1,2,PTH
FMAT,2
INCH
T1C0.0157
T2C0.0300
T3C0.0472
%
G90
G05
T1
X5.53Y-2.2
T2
X4.35Y-1.88
X4.35Y-1.98
X4.35Y-2.08
X4.35Y-2.18
X4.35Y-2.28
X4.35Y-2.38
X4.75Y-1.88
X4.75Y-1.98
X4.75Y-2.08
X4.75Y-2.18
X4.75Y-2.28
X4.75Y-2.38
X4.75Y-2.48
X5.34Y-1.83
X5.34Y-1.93
X5.34Y-2.03
X5.34Y-2.13
X5.34Y-2.23
X5.34Y-2.33
X5.74Y-1.83
X5.74Y-1.93
X5.74Y-2.03
X5.74Y-2.13
X5.74Y-2.23
X5.74Y-2.33
X5.74Y-2.43
T3
X6.83Y-1.81
X6.83Y-2.61
X7.23Y-1.81
X7.23Y-2.61
X7.7Y-1.78
X7.7Y-2.58
T0
M30
